{"glyphs":{"0":{"ha":558,"x_min":29,"x_max":529,"o":"m 529 486 q 509 256 529 353 q 456 96 490 159 q 376 3 422 33 q 279 -28 331 -28 q 182 2 228 -28 q 103 94 137 31 q 49 253 68 156 q 29 486 29 351 q 49 726 29 628 q 103 884 68 823 q 182 972 137 945 q 279 999 228 999 q 376 969 331 999 q 456 878 422 940 q 509 719 490 816 q 529 486 529 621 m 374 486 q 366 661 374 588 q 346 782 359 734 q 316 851 334 829 q 279 873 299 873 q 242 853 260 873 q 211 787 224 833 q 191 667 198 741 q 183 486 183 593 q 191 310 183 384 q 211 189 198 237 q 242 119 224 142 q 279 97 260 97 q 316 120 299 97 q 346 191 334 143 q 366 312 359 239 q 374 486 374 386 z "},"1":{"ha":382,"x_min":-1,"x_max":345,"o":"m 345 981 q 329 590 334 783 q 323 201 323 397 q 323 99 323 151 q 325 -3 323 48 l 179 -3 q 184 247 182 121 q 186 501 186 373 q 185 652 186 578 q 183 802 184 727 l 75 707 l -1 808 q 104 898 54 853 q 201 989 155 943 l 345 981 z "},"2":{"ha":440,"x_min":16,"x_max":411,"o":"m 411 720 q 394 566 411 642 q 347 416 377 490 q 276 270 317 342 q 186 127 235 197 l 407 127 l 407 0 l 36 0 l 36 136 q 119 267 77 197 q 195 414 161 338 q 252 570 230 490 q 273 726 273 649 q 253 810 273 783 q 191 838 233 838 q 153 831 171 838 q 117 814 134 825 q 83 789 100 804 q 53 760 67 775 l 16 908 q 64 955 37 937 q 119 982 92 972 q 171 994 146 991 q 212 997 195 997 q 303 974 266 997 q 365 913 341 951 q 400 825 389 875 q 411 720 411 774 z "},"3":{"ha":461,"x_min":17,"x_max":440,"o":"m 440 237 q 415 110 440 162 q 353 24 390 57 q 273 -23 315 -8 q 197 -37 231 -37 q 182 -36 195 -37 q 146 -28 168 -35 q 94 -9 123 -22 q 29 26 64 3 l 50 191 q 98 149 74 163 q 142 127 122 134 q 186 117 164 119 q 228 128 209 117 q 261 158 248 139 q 282 201 275 177 q 290 252 290 225 q 278 312 290 284 q 243 362 265 340 q 191 397 220 384 q 126 412 161 410 l 126 522 q 180 563 155 539 q 225 615 205 586 q 255 677 244 644 q 267 746 267 710 q 262 781 267 762 q 247 814 257 799 q 220 840 236 829 q 182 850 204 850 q 165 848 176 850 q 139 838 155 846 q 104 816 124 831 q 58 777 83 802 l 17 911 q 82 962 50 943 q 142 990 114 981 q 193 1002 171 1000 q 227 1004 215 1004 q 304 986 268 1004 q 366 935 340 967 q 408 859 393 902 q 422 766 422 815 q 410 687 422 726 q 375 612 397 648 q 322 545 353 576 q 254 490 291 514 q 312 457 287 475 q 356 418 337 438 q 389 376 376 397 q 412 334 403 355 q 440 237 434 287 z "},"4":{"ha":486,"x_min":16,"x_max":443,"o":"m 443 979 q 431 372 431 673 q 432 188 431 280 q 435 4 433 96 l 281 3 q 288 169 285 85 q 294 336 291 252 l 16 335 q 50 633 35 482 q 71 942 64 783 l 218 942 q 191 697 203 823 q 176 452 180 572 l 297 457 q 298 553 298 505 q 298 650 298 601 q 297 813 298 732 q 293 978 296 895 l 443 979 z "},"5":{"ha":452,"x_min":25,"x_max":435,"o":"m 435 311 q 422 199 435 255 q 381 98 410 143 q 306 25 353 54 q 189 -3 258 -3 q 157 -1 176 -3 q 116 5 138 0 q 71 20 94 10 q 25 45 47 29 l 37 178 q 110 140 77 149 q 161 132 142 132 q 219 149 195 132 q 256 192 242 166 q 277 249 271 218 q 283 310 283 281 q 272 388 283 355 q 240 440 260 420 q 197 471 221 461 q 149 481 173 481 q 91 473 120 481 q 36 452 62 466 l 72 942 l 378 953 l 378 825 l 196 819 l 180 602 q 198 604 190 603 q 214 604 206 604 q 302 583 261 604 q 372 524 342 562 q 418 431 401 486 q 435 311 435 377 z "},"6":{"ha":513,"x_min":31,"x_max":496,"o":"m 496 339 q 475 178 496 245 q 421 70 455 112 q 346 9 388 28 q 260 -9 303 -9 q 202 -1 231 -9 q 149 27 174 7 q 102 81 123 47 q 64 166 80 115 q 39 288 48 217 q 31 452 31 358 q 42 643 31 562 q 75 781 54 724 q 122 876 95 839 q 178 933 149 912 q 238 962 208 954 q 296 970 268 970 q 338 967 316 970 q 381 960 357 965 q 429 946 406 955 l 415 821 q 380 839 397 834 q 346 844 363 844 q 279 826 307 844 q 233 774 252 807 q 203 696 214 741 q 186 597 192 650 q 220 630 201 619 q 254 647 239 642 q 292 654 273 653 q 372 639 334 654 q 436 587 409 623 q 480 490 464 550 q 496 339 496 429 m 264 526 q 230 513 246 525 q 201 484 216 504 q 178 427 186 463 l 178 410 q 185 271 178 326 q 205 183 193 216 q 235 138 218 151 q 269 125 251 125 q 301 139 286 125 q 327 181 316 154 q 345 248 338 208 q 351 336 351 287 q 346 413 351 378 q 330 473 340 448 q 303 512 319 498 q 264 526 286 526 z "},"7":{"ha":374,"x_min":17,"x_max":371,"o":"m 371 965 q 318 721 343 845 q 273 473 294 597 q 234 227 252 349 q 204 -12 217 104 l 56 -7 q 86 195 70 94 q 120 399 102 296 q 160 608 138 502 q 207 825 181 714 l 17 825 l 17 958 l 371 965 z "},"8":{"ha":493,"x_min":33,"x_max":460,"o":"m 460 228 q 442 118 460 163 q 394 44 424 73 q 326 2 365 16 q 245 -11 287 -11 q 166 4 205 -11 q 99 48 128 18 q 51 122 69 77 q 33 228 33 168 q 61 360 33 306 q 134 443 90 414 q 93 489 112 463 q 61 548 75 516 q 41 616 48 580 q 33 690 33 652 q 51 836 33 779 q 99 926 69 893 q 166 972 128 959 q 245 985 205 985 q 326 971 287 985 q 394 925 365 958 q 442 835 424 892 q 460 690 460 778 q 431 547 460 612 q 358 443 403 483 q 431 358 403 412 q 460 228 460 304 m 318 682 q 312 768 318 732 q 297 825 307 803 q 274 858 288 848 q 245 868 260 868 q 218 858 231 868 q 195 826 205 848 q 179 769 185 804 q 174 682 174 734 q 179 610 174 644 q 195 550 185 576 q 218 510 205 525 q 245 496 231 496 q 274 510 260 496 q 297 550 288 525 q 312 610 307 576 q 318 682 318 644 m 318 233 q 312 292 318 264 q 297 340 307 319 q 274 372 288 360 q 245 383 260 383 q 218 372 231 383 q 195 340 205 360 q 179 292 185 319 q 174 233 174 264 q 179 163 174 192 q 195 117 185 135 q 218 91 205 99 q 245 83 231 83 q 274 91 260 83 q 297 117 288 99 q 312 163 307 134 q 318 233 318 191 z "},"9":{"ha":511,"x_min":17,"x_max":482,"o":"m 17 621 q 37 781 17 715 q 91 889 58 848 q 167 950 125 931 q 253 970 209 970 q 310 962 281 970 q 364 933 338 954 q 411 879 389 913 q 449 794 433 845 q 473 672 465 743 q 482 509 482 602 q 470 318 482 399 q 437 179 458 237 q 390 85 417 121 q 334 27 363 48 q 274 -2 304 6 q 216 -9 244 -9 q 174 -7 196 -9 q 131 0 155 -5 q 83 14 107 5 l 97 139 q 132 120 115 125 q 167 114 150 114 q 232 133 205 114 q 278 184 260 151 q 309 263 297 218 q 326 361 320 308 q 292 329 310 340 q 258 313 273 318 q 221 306 239 307 q 141 321 178 306 q 76 373 104 336 q 33 470 49 410 q 17 621 17 530 m 249 433 q 283 446 267 435 q 311 476 296 456 q 335 533 326 496 l 335 550 q 328 689 335 634 q 307 777 320 744 q 278 822 294 809 q 243 835 261 835 q 212 820 227 835 q 185 779 197 806 q 168 712 174 751 q 161 624 161 673 q 167 547 161 582 q 183 486 172 511 q 210 447 193 461 q 249 433 227 433 z "}," ":{"ha":229,"x_min":0,"x_max":0,"o":""},"?":{"ha":429,"x_min":20,"x_max":410,"o":"m 410 755 q 397 646 410 692 q 363 563 384 600 q 318 491 343 525 q 268 419 292 458 q 221 334 243 381 q 186 221 199 286 l 94 221 q 94 231 94 227 q 93 240 93 235 q 101 320 93 283 q 121 385 110 357 q 149 446 133 418 q 193 512 169 480 q 236 577 216 544 q 270 646 256 610 q 283 724 283 682 q 275 788 283 762 q 254 831 267 814 q 222 855 240 848 q 184 863 204 863 q 148 858 166 863 q 111 843 129 852 q 77 822 93 834 q 47 796 60 810 l 20 903 q 85 952 52 935 q 145 978 118 970 q 190 988 172 987 q 211 990 208 990 q 288 974 252 990 q 351 927 324 958 q 394 853 378 897 q 410 755 410 810 m 228 57 q 222 26 228 41 q 205 2 216 12 q 180 -15 195 -9 q 150 -21 166 -21 q 119 -15 134 -21 q 94 2 105 -9 q 77 26 83 12 q 71 57 71 41 q 77 87 71 73 q 94 112 83 101 q 119 129 105 123 q 150 135 134 135 q 180 129 166 135 q 205 112 195 123 q 222 87 216 101 q 228 57 228 73 z "},"@":{"ha":739,"x_min":31,"x_max":717,"o":"m 717 432 q 705 302 717 357 q 672 209 692 246 q 624 153 651 172 q 566 135 596 135 q 496 157 524 135 q 456 228 468 179 q 409 172 437 192 q 345 151 381 151 q 268 197 296 151 q 240 342 240 243 q 251 441 240 401 q 281 505 262 481 q 325 539 300 529 q 375 549 349 549 q 403 541 389 547 q 428 525 414 536 q 452 493 441 513 q 455 520 453 507 q 458 547 456 534 l 547 541 q 545 479 546 513 q 543 410 543 450 q 542 321 542 370 q 548 247 542 269 q 567 225 554 225 q 581 233 574 225 q 595 260 589 241 q 605 312 601 279 q 608 396 608 345 q 599 519 608 462 q 566 618 590 576 q 502 684 543 660 q 397 708 461 708 q 288 679 335 708 q 208 602 240 650 q 160 490 176 553 q 144 355 144 426 q 159 235 144 286 q 197 148 174 183 q 249 95 220 113 q 306 72 277 76 l 300 -24 l 290 -24 q 204 -7 241 -24 q 140 37 168 9 q 94 98 113 64 q 63 170 75 133 q 31 363 35 254 q 51 533 31 461 q 104 654 71 604 q 177 733 136 703 q 258 780 218 764 q 334 803 298 797 q 392 808 370 808 q 447 804 414 808 q 516 785 480 799 q 588 745 553 770 q 653 677 624 720 q 699 575 682 635 q 717 432 717 515 m 447 403 q 427 434 437 423 q 407 450 416 445 q 386 457 396 456 q 351 432 364 457 q 338 363 338 407 q 339 318 338 340 q 346 279 341 296 q 360 252 351 262 q 383 241 369 241 q 407 251 395 243 q 427 272 416 258 q 446 313 438 286 q 446 330 446 322 q 446 347 446 338 q 446 370 446 357 q 447 403 446 383 z "},"A":{"ha":489,"x_min":5,"x_max":490,"o":"m 322 -5 q 316 89 319 41 q 309 184 313 136 q 251 189 279 186 q 195 191 223 191 l 186 191 q 180 94 182 142 q 175 0 177 47 l 5 3 q 81 486 47 245 q 139 971 115 726 l 343 968 q 405 487 369 726 q 490 5 441 248 l 322 -5 m 243 800 q 217 551 229 675 q 195 301 205 427 q 224 300 209 300 q 254 300 239 300 l 298 300 q 273 550 287 426 q 243 800 258 674 z "},"B":{"ha":484,"x_min":31,"x_max":467,"o":"m 467 705 q 457 618 467 663 q 429 532 448 574 q 380 456 410 491 q 309 400 350 422 q 372 356 349 382 q 408 301 395 330 q 423 248 420 273 q 427 207 427 222 q 411 118 427 155 q 372 56 396 81 q 319 15 349 31 q 261 -8 290 0 q 207 -19 232 -16 q 167 -21 182 -21 q 128 -18 148 -20 q 92 -10 111 -15 q 57 5 73 -5 q 61 262 61 134 q 53 607 61 437 q 31 950 45 777 q 93 965 62 960 q 149 973 123 970 q 204 977 178 976 q 253 971 225 977 q 309 954 280 966 q 367 921 338 941 q 417 871 395 901 q 453 800 439 841 q 467 705 467 759 m 335 675 q 335 687 335 674 q 332 719 335 699 q 322 761 329 738 q 300 804 315 784 q 263 840 286 825 q 207 859 241 855 q 199 635 203 747 q 193 412 195 524 q 237 437 218 421 q 271 474 256 454 q 296 516 286 494 q 313 562 306 539 q 335 675 330 614 m 297 225 q 283 286 296 258 q 271 309 278 297 q 252 331 263 321 q 226 348 241 340 q 192 358 211 355 q 189 217 190 287 q 187 75 187 146 q 223 93 208 83 q 250 116 239 104 q 270 140 262 127 q 283 165 277 153 q 297 225 295 194 z "},"C":{"ha":431,"x_min":26,"x_max":427,"o":"m 427 17 q 374 -2 400 5 q 328 -12 349 -8 q 282 -16 304 -15 q 230 -7 258 -16 q 173 23 201 2 q 118 82 144 45 q 71 175 92 119 q 39 309 51 231 q 26 490 26 387 q 41 671 26 594 q 79 804 56 749 q 132 895 102 859 q 192 951 161 930 q 251 980 222 972 q 301 987 280 987 q 340 983 321 987 q 374 973 356 980 q 406 954 392 966 l 392 818 q 356 832 373 827 q 325 836 340 836 q 274 821 296 836 q 236 781 252 806 q 209 724 220 755 q 191 659 198 692 q 172 481 174 581 q 192 304 174 382 q 211 240 199 271 q 238 183 222 208 q 276 144 254 159 q 328 129 298 129 q 401 151 359 129 l 427 17 z "},"D":{"ha":500,"x_min":40,"x_max":472,"o":"m 472 461 q 457 280 472 356 q 416 150 441 203 q 360 63 391 96 q 296 12 328 30 q 233 -13 263 -7 q 179 -20 202 -20 l 40 -8 q 54 270 49 130 q 58 553 58 410 q 56 766 58 661 q 47 978 53 872 q 79 980 64 979 q 110 981 95 981 q 293 942 222 981 q 403 835 363 904 q 457 671 443 766 q 472 461 472 576 m 334 479 q 332 550 334 513 q 327 625 331 588 q 313 698 322 663 q 290 763 304 733 q 255 813 276 792 q 205 843 235 834 q 198 697 201 768 q 193 557 195 627 q 190 420 191 488 q 189 283 189 352 q 189 193 189 239 q 191 100 189 147 q 245 123 222 103 q 284 175 268 144 q 310 244 300 205 q 325 325 319 283 q 332 406 330 366 q 334 479 334 446 z "},"E":{"ha":416,"x_min":45,"x_max":400,"o":"m 321 363 q 278 365 300 364 q 235 366 256 366 q 209 365 222 366 q 183 364 196 364 l 180 122 q 289 127 236 123 q 400 140 341 132 l 400 -1 q 327 1 362 0 q 256 1 291 1 q 151 0 203 1 q 45 -5 100 -2 q 55 244 51 121 q 58 494 58 368 q 55 734 58 615 q 45 974 52 853 q 197 968 125 968 q 289 970 243 968 q 387 977 335 972 l 387 821 q 304 832 345 828 q 222 836 263 836 l 196 836 q 187 667 189 751 q 183 498 184 583 q 219 497 201 497 q 256 497 237 497 q 288 497 271 497 q 321 498 304 497 l 321 363 z "},"F":{"ha":397,"x_min":45,"x_max":387,"o":"m 321 363 q 278 365 300 364 q 235 366 256 366 q 211 365 223 366 q 187 364 199 364 l 196 -5 q 162 -3 180 -3 q 127 -3 144 -3 q 96 -3 111 -3 q 70 -4 81 -3 q 45 -5 57 -5 q 55 244 51 121 q 58 494 58 368 q 55 734 58 615 q 45 974 52 853 q 197 968 125 968 q 289 970 243 968 q 387 977 335 972 l 387 821 q 304 832 345 828 q 222 836 263 836 l 196 836 q 189 683 191 760 q 187 525 187 606 l 187 498 q 221 497 204 497 q 256 497 238 497 q 288 497 271 497 q 321 498 304 497 l 321 363 z "},"G":{"ha":454,"x_min":26,"x_max":431,"o":"m 431 486 q 424 431 427 462 q 417 364 420 399 q 413 289 414 328 q 411 211 411 250 q 412 185 411 202 q 414 149 413 169 q 417 107 416 129 q 421 67 419 86 q 424 35 422 49 q 427 17 425 22 q 374 -2 400 5 q 328 -12 349 -8 q 282 -16 304 -15 q 230 -7 258 -16 q 173 23 201 2 q 118 82 144 45 q 71 175 92 119 q 39 309 51 231 q 26 490 26 387 q 41 671 26 594 q 79 804 56 749 q 132 895 102 859 q 192 951 161 930 q 251 980 222 972 q 301 987 280 987 q 340 983 321 987 q 374 973 356 980 q 406 954 392 966 l 392 818 q 356 832 373 827 q 325 836 340 836 q 274 821 296 836 q 236 781 252 806 q 209 724 220 755 q 191 659 198 692 q 172 481 174 581 q 188 323 174 395 q 203 262 194 292 q 225 205 212 231 q 257 160 239 179 q 298 134 275 141 q 290 309 297 222 q 269 484 283 395 l 431 486 z "},"H":{"ha":559,"x_min":45,"x_max":525,"o":"m 225 974 q 214 708 218 840 q 207 443 209 576 q 241 441 224 441 q 275 441 258 441 q 320 442 297 441 q 366 444 342 443 q 367 503 367 474 q 367 562 367 532 q 365 768 367 665 q 358 974 363 870 l 525 974 q 506 649 513 810 q 500 325 500 488 q 502 165 500 245 q 507 5 504 86 l 353 5 q 359 166 356 86 q 364 326 361 246 q 287 330 326 328 q 211 332 249 332 l 205 332 l 205 192 q 205 98 205 144 q 207 5 205 52 l 52 5 q 56 198 55 103 q 57 390 57 294 q 45 974 57 682 l 225 974 z "},"I":{"ha":338,"x_min":22,"x_max":321,"o":"m 314 9 q 260 12 287 11 q 205 12 233 12 q 116 11 161 12 q 26 5 71 9 l 28 151 q 59 148 43 149 q 90 146 75 147 q 98 355 94 251 q 102 564 102 459 q 100 702 102 633 q 96 839 98 770 q 60 838 78 839 q 22 836 41 838 l 24 978 q 128 973 76 975 q 233 971 180 971 q 271 971 252 971 q 310 972 290 971 l 306 838 q 275 838 290 838 q 244 839 260 839 q 231 596 235 717 q 227 354 227 476 q 231 142 227 248 q 275 142 252 142 q 321 144 298 143 l 314 9 z "},"J":{"ha":396,"x_min":5,"x_max":355,"o":"m 355 979 q 349 691 351 815 q 346 483 347 568 q 345 313 345 384 q 324 165 343 226 q 276 66 304 104 q 212 10 247 28 q 147 -9 178 -8 q 130 -9 144 -9 q 95 -6 115 -9 q 50 1 74 -4 q 5 17 26 7 l 25 135 q 57 123 41 126 q 87 119 73 119 q 152 131 127 119 q 193 174 178 143 q 213 258 208 205 q 218 393 218 311 q 218 417 218 407 q 218 444 218 428 q 218 485 218 459 q 216 557 217 511 q 212 671 214 602 q 207 843 210 741 l 100 843 l 100 977 l 355 979 z "},"K":{"ha":492,"x_min":45,"x_max":503,"o":"m 205 979 q 190 724 195 850 q 182 471 184 597 q 272 725 230 597 q 354 982 314 852 l 503 971 q 393 704 445 838 q 294 433 340 570 q 381 223 334 326 q 481 20 428 120 l 330 3 q 260 198 297 102 q 180 389 222 294 l 180 304 q 184 9 180 156 l 45 11 q 52 287 49 149 q 54 564 54 425 q 53 771 54 667 q 49 979 51 874 l 205 979 z "},"L":{"ha":410,"x_min":45,"x_max":400,"o":"m 400 -1 q 327 1 362 0 q 256 1 291 1 q 151 0 203 1 q 45 -5 100 -2 q 55 244 51 121 q 58 494 58 368 q 55 734 58 615 q 45 974 52 853 q 60 973 52 973 q 79 972 68 972 q 103 972 90 972 q 150 974 125 972 q 201 977 176 975 q 189 771 193 879 q 184 553 185 663 q 183 333 183 443 q 180 122 182 224 q 289 127 236 123 q 400 140 341 132 l 400 -1 z "},"M":{"ha":724,"x_min":28,"x_max":685,"o":"m 525 -1 q 530 210 527 102 q 531 306 530 255 q 533 409 532 357 q 534 513 534 461 q 534 614 534 566 q 534 674 534 646 q 533 729 534 703 q 512 600 525 679 q 486 426 500 521 q 459 224 473 330 q 436 12 446 117 l 307 16 q 276 224 291 121 q 247 418 260 326 q 221 589 233 511 q 201 726 210 668 l 201 490 q 202 343 201 417 q 204 203 203 269 q 207 84 205 137 q 212 3 209 32 l 28 -8 q 44 121 38 50 q 55 272 51 193 q 60 432 58 351 q 61 590 61 513 q 60 737 61 669 q 58 857 59 806 q 54 968 56 918 q 100 962 76 964 q 146 958 123 960 q 191 956 170 957 q 231 956 213 956 q 252 956 242 956 q 269 956 262 956 q 283 957 277 956 q 338 577 316 732 q 374 342 361 422 q 388 448 381 393 q 401 556 395 503 q 413 661 408 610 q 422 758 418 712 q 439 965 431 865 q 471 962 454 964 q 508 960 487 961 q 555 960 530 960 q 611 961 581 960 q 673 965 641 962 q 665 526 665 711 q 668 292 665 390 q 675 129 671 193 q 685 3 679 53 l 525 -1 z "},"N":{"ha":576,"x_min":45,"x_max":536,"o":"m 536 978 q 523 708 528 842 q 518 439 518 574 q 521 231 518 334 q 532 25 524 129 l 395 29 q 341 204 368 117 q 290 378 315 292 q 237 549 264 464 q 182 720 210 635 q 188 367 184 543 q 204 16 193 191 l 47 17 q 56 452 56 233 q 53 718 56 586 q 45 982 50 849 l 235 978 q 309 675 269 829 q 392 371 348 521 q 378 678 387 524 q 358 979 369 831 l 536 978 z "},"O":{"ha":532,"x_min":28,"x_max":504,"o":"m 504 475 q 485 243 504 338 q 435 89 467 149 q 359 3 403 30 q 267 -24 316 -24 q 174 2 217 -24 q 98 85 130 27 q 46 239 65 144 q 28 475 28 335 q 46 713 28 615 q 98 872 65 811 q 174 961 130 934 q 267 989 217 989 q 359 962 316 989 q 435 874 403 935 q 485 715 467 813 q 504 475 504 617 m 353 475 q 346 654 353 581 q 327 773 339 728 q 300 840 315 819 q 267 860 284 860 q 232 839 248 860 q 204 773 216 819 q 186 653 193 727 q 179 475 179 580 q 186 299 179 370 q 204 185 193 229 q 232 124 216 142 q 267 106 248 106 q 300 125 284 106 q 327 188 315 144 q 346 302 339 232 q 353 475 353 373 z "},"P":{"ha":461,"x_min":37,"x_max":449,"o":"m 449 673 q 434 559 449 615 q 387 456 418 503 q 307 372 355 408 q 193 317 259 336 q 197 154 195 235 q 203 -5 199 74 l 37 -5 q 53 302 48 149 q 58 612 58 456 q 57 792 58 703 q 52 974 56 882 q 124 988 87 985 q 187 991 161 991 q 232 987 205 991 q 288 971 259 983 q 346 938 317 960 q 397 881 374 917 q 435 795 420 846 q 449 673 449 744 m 193 432 q 232 454 216 440 q 261 484 249 467 q 282 519 274 500 q 296 557 291 538 q 311 650 309 600 q 311 665 311 650 q 308 703 311 680 q 298 753 304 726 q 279 806 291 781 q 249 851 267 831 q 203 879 230 871 q 195 668 197 774 q 193 456 193 563 l 193 432 z "},"Q":{"ha":532,"x_min":28,"x_max":504,"o":"m 358 -186 q 334 -102 349 -143 q 301 -20 320 -60 q 267 -24 285 -24 q 174 2 217 -24 q 98 85 130 27 q 46 239 65 144 q 28 475 28 335 q 46 713 28 615 q 98 872 65 811 q 174 961 130 934 q 267 989 217 989 q 359 962 316 989 q 435 874 403 935 q 485 715 467 813 q 504 475 504 617 q 495 312 504 384 q 472 184 487 239 q 434 89 456 128 q 386 25 412 50 q 434 -46 408 -12 q 489 -113 460 -80 l 358 -186 m 353 475 q 346 654 353 581 q 327 773 339 728 q 300 840 315 819 q 267 860 284 860 q 232 839 248 860 q 204 773 216 819 q 186 653 193 727 q 179 475 179 580 q 186 299 179 370 q 204 185 193 229 q 232 124 216 142 q 267 106 248 106 q 300 125 284 106 q 327 188 315 144 q 346 302 339 232 q 353 475 353 373 z "},"R":{"ha":471,"x_min":37,"x_max":471,"o":"m 443 684 q 434 592 443 638 q 407 504 426 547 q 358 425 388 462 q 285 359 328 388 q 369 173 323 262 q 471 1 414 84 l 301 -8 l 186 319 q 193 155 189 237 q 203 -5 197 74 l 37 -5 q 53 302 48 149 q 58 612 58 456 q 57 792 58 703 q 52 974 56 882 q 124 988 87 985 q 187 991 161 991 q 232 988 205 991 q 286 972 258 984 q 343 940 315 961 q 393 885 371 919 q 429 801 415 850 q 443 684 443 752 m 184 429 q 226 449 208 436 q 258 479 244 463 q 280 515 271 496 q 296 553 290 534 q 311 650 309 597 q 311 666 311 651 q 307 705 311 682 q 297 755 304 728 q 279 807 291 782 q 248 852 267 833 q 201 880 229 872 q 189 668 193 774 q 184 456 184 563 l 184 429 z "},"S":{"ha":418,"x_min":16,"x_max":400,"o":"m 389 240 q 377 146 389 186 q 348 77 366 106 q 308 30 330 48 q 262 0 286 11 q 217 -15 239 -11 q 180 -20 196 -20 q 158 -19 172 -20 q 125 -14 144 -18 q 85 -4 107 -11 q 39 14 63 2 l 46 184 q 118 139 86 151 q 171 127 149 127 q 234 158 213 127 q 256 237 256 189 q 240 310 256 270 q 183 397 224 351 q 125 465 155 430 q 71 541 96 500 q 31 627 47 581 q 16 726 16 673 q 34 844 16 794 q 84 926 53 893 q 156 974 115 958 q 240 990 196 990 q 319 980 279 990 q 400 947 359 969 l 387 777 q 350 812 370 799 q 313 832 331 825 q 280 841 295 839 q 254 843 264 843 q 218 833 235 843 q 190 807 201 823 q 171 767 178 790 q 164 720 164 745 q 181 650 164 681 q 222 588 197 618 q 276 525 248 557 q 330 453 305 493 q 372 360 355 412 q 389 240 389 309 z "},"T":{"ha":396,"x_min":11,"x_max":387,"o":"m 383 832 q 333 834 361 833 q 273 835 305 835 q 266 704 269 772 q 260 567 262 637 q 258 428 258 498 q 257 289 257 357 q 258 138 257 211 q 262 -3 259 65 l 118 -3 q 127 243 124 113 q 131 505 131 373 q 129 673 131 591 q 125 833 127 755 q 63 833 92 833 q 11 831 34 832 l 12 972 q 67 969 37 970 q 131 968 98 968 q 200 967 165 967 q 269 966 235 966 q 333 966 303 966 q 387 968 363 966 l 383 832 z "},"U":{"ha":503,"x_min":31,"x_max":460,"o":"m 432 982 q 454 702 448 844 q 460 407 460 561 q 455 303 460 355 q 440 206 451 252 q 413 120 430 159 q 370 51 395 80 q 309 6 344 22 q 228 -11 273 -11 q 157 4 187 -11 q 104 46 126 20 q 68 110 83 73 q 45 188 54 146 q 34 277 37 231 q 31 370 31 323 q 42 655 31 511 q 69 956 54 800 l 211 953 q 188 659 199 807 q 178 353 178 510 q 180 267 178 307 q 190 195 183 226 q 207 146 197 164 q 233 127 218 127 q 267 156 252 127 q 293 232 282 185 q 309 340 303 279 q 315 463 315 400 q 314 583 315 522 q 311 705 313 643 q 306 832 309 767 q 297 966 302 897 l 432 982 z "},"V":{"ha":488,"x_min":5,"x_max":490,"o":"m 490 960 q 405 478 441 718 q 343 -3 369 239 l 139 -5 q 81 479 115 239 q 5 962 47 720 l 175 965 q 203 563 186 762 q 243 164 221 364 q 290 567 269 366 q 322 971 310 768 l 490 960 z "},"W":{"ha":722,"x_min":25,"x_max":710,"o":"m 710 950 l 615 -26 l 436 -26 q 432 86 434 33 q 425 186 429 138 q 416 281 421 235 q 405 375 411 327 q 390 475 398 423 q 372 586 382 527 q 336 358 359 510 q 281 -20 313 207 l 93 -29 l 25 946 l 196 950 q 195 859 195 908 q 195 761 195 816 q 195 643 195 705 q 195 543 195 593 q 195 443 195 492 q 196 348 195 393 q 197 265 196 302 l 290 856 l 447 856 l 521 293 q 524 399 522 343 q 527 512 526 455 q 529 625 528 569 q 532 731 530 680 q 536 968 534 850 l 710 950 z "},"X":{"ha":482,"x_min":3,"x_max":484,"o":"m 484 960 q 386 718 430 840 q 302 469 341 595 q 384 238 340 351 q 479 12 428 125 l 318 -4 l 239 253 q 205 123 221 188 q 174 -8 189 58 l 3 11 q 90 242 49 127 q 170 476 131 357 q 90 715 131 597 q 4 953 49 833 l 161 974 q 197 831 179 901 q 235 690 215 760 q 276 830 256 760 q 315 972 296 900 l 484 960 z "},"Y":{"ha":484,"x_min":5,"x_max":493,"o":"m 493 972 q 392 625 439 800 q 302 286 345 450 l 302 244 q 303 180 302 210 q 306 120 304 150 q 310 60 307 91 q 315 -5 312 29 l 153 -5 q 162 73 158 37 q 169 144 166 109 q 172 217 171 180 q 174 298 174 254 q 134 460 155 376 q 92 629 113 545 q 48 798 70 714 q 5 960 26 882 l 175 974 q 184 856 178 918 q 199 730 191 794 q 219 600 208 665 q 241 471 230 534 q 267 602 254 535 q 290 734 279 669 q 310 861 301 799 q 326 977 319 922 l 493 972 z "},"Z":{"ha":407,"x_min":-1,"x_max":401,"o":"m 401 974 q 289 562 340 767 q 200 150 237 357 q 217 149 208 149 q 235 150 225 150 q 307 152 271 150 q 379 157 342 153 l 382 -1 q 240 9 311 6 q 96 12 170 12 q 47 12 72 12 q -1 11 22 12 q 127 418 68 212 q 229 842 186 625 q 135 835 182 840 q 39 823 88 830 l 35 972 q 118 969 77 970 q 201 968 159 968 q 401 974 302 968 z "},"a":{"ha":482,"x_min":16,"x_max":443,"o":"m 443 432 q 442 218 443 325 q 437 -5 441 111 l 319 1 l 319 93 q 273 37 299 56 q 224 8 248 18 q 171 -4 197 -3 q 110 11 138 -4 q 60 50 81 25 q 27 105 39 74 q 16 171 16 137 q 32 247 16 210 q 89 315 49 285 q 182 385 142 357 q 247 435 221 412 q 286 478 273 458 q 298 526 298 499 q 283 593 298 571 q 244 615 269 615 q 219 607 229 615 q 202 587 208 600 q 192 559 195 574 q 189 529 189 544 q 190 507 189 519 q 195 481 191 494 l 39 478 q 37 500 37 490 q 36 521 36 511 q 50 604 36 563 q 92 677 64 645 q 159 729 119 709 q 249 749 198 749 q 353 721 315 749 q 411 649 391 694 q 437 548 431 604 q 443 432 443 491 m 290 240 q 296 279 294 257 q 301 323 299 297 q 304 382 303 349 q 283 355 294 367 q 264 335 273 344 q 245 317 254 325 q 212 288 230 304 q 180 254 195 272 q 156 218 165 237 q 146 182 146 199 q 159 147 146 163 q 191 131 172 131 q 220 139 205 131 q 249 162 235 147 q 274 197 263 177 q 290 240 285 216 z "},"b":{"ha":497,"x_min":45,"x_max":474,"o":"m 472 343 q 446 172 465 241 q 400 61 427 103 q 340 0 373 18 q 275 -18 308 -18 q 245 -7 261 -16 q 215 15 232 0 q 179 56 197 30 l 179 -8 l 45 -8 l 45 954 l 214 954 l 199 682 q 234 721 216 708 q 269 741 253 734 q 304 750 287 749 q 374 728 345 750 q 422 669 403 705 q 452 588 441 633 q 468 497 463 543 q 474 411 473 452 q 472 343 474 370 m 328 342 q 328 389 328 362 q 328 444 328 416 q 323 500 327 473 q 313 549 320 528 q 293 584 306 571 q 261 597 281 597 q 224 581 239 597 q 200 538 210 564 q 185 479 191 512 q 178 415 180 447 q 175 355 176 383 q 175 310 175 327 q 179 235 175 270 q 191 174 182 200 q 213 132 199 147 q 244 117 226 117 q 281 137 266 117 q 307 190 297 157 q 321 262 317 222 q 328 342 326 302 z "},"c":{"ha":371,"x_min":25,"x_max":359,"o":"m 349 557 q 326 576 339 569 q 298 586 312 583 q 273 590 285 589 q 257 591 262 591 q 221 574 237 591 q 194 524 205 556 q 177 445 182 491 q 171 340 171 398 q 179 239 171 285 q 206 160 186 193 q 259 108 226 127 q 343 85 292 88 l 339 -32 q 316 -34 328 -33 q 294 -35 305 -35 q 194 -20 236 -35 q 121 21 151 -5 q 73 84 92 47 q 43 163 54 120 q 29 255 33 206 q 25 354 25 303 q 27 432 25 389 q 35 519 28 475 q 55 604 41 563 q 91 678 68 646 q 149 729 114 710 q 233 749 184 749 q 275 745 255 749 q 313 737 296 742 q 342 726 330 732 q 359 715 354 720 l 349 557 z "},"d":{"ha":498,"x_min":24,"x_max":463,"o":"m 463 966 l 446 -8 l 315 -8 l 315 61 q 277 16 296 32 q 245 -7 259 0 q 214 -18 228 -16 q 145 2 179 -18 q 84 71 111 23 q 41 198 58 119 q 24 392 24 276 q 38 548 24 481 q 77 661 53 616 q 134 730 102 707 q 200 753 165 753 q 237 743 218 751 q 271 721 252 736 q 307 679 290 706 l 298 960 l 463 966 m 319 328 q 316 422 318 374 q 307 510 315 470 q 284 575 300 549 q 241 600 269 600 q 201 579 216 600 q 179 525 186 558 q 171 452 172 492 q 170 374 170 412 q 171 318 170 347 q 174 260 172 289 q 182 205 177 231 q 196 160 188 180 q 216 128 204 140 q 244 117 228 117 q 279 133 264 117 q 302 178 293 150 q 315 245 311 207 q 319 328 319 283 z "},"e":{"ha":450,"x_min":22,"x_max":427,"o":"m 427 18 q 312 -10 363 -3 q 227 -17 260 -17 q 154 -1 185 -17 q 100 43 123 16 q 62 105 77 70 q 39 180 47 141 q 26 260 30 220 q 22 336 22 300 q 37 502 22 426 q 78 632 51 577 q 145 718 105 687 q 236 749 185 749 q 313 728 278 749 q 372 663 347 707 q 409 553 396 620 q 422 395 422 486 q 421 342 422 369 q 418 288 420 316 l 178 256 q 186 208 180 231 q 202 169 192 186 q 225 141 212 151 q 258 131 239 131 q 332 135 295 131 q 408 146 368 140 l 427 18 m 174 371 l 286 392 l 286 418 q 277 507 286 475 q 258 553 269 538 q 231 574 246 571 q 199 555 211 572 q 182 514 188 539 q 175 456 176 488 q 174 392 174 425 l 174 371 z "},"f":{"ha":329,"x_min":11,"x_max":386,"o":"m 370 857 q 341 874 355 869 q 315 879 327 879 q 275 865 292 879 q 248 826 259 850 q 230 771 237 802 q 221 707 224 740 l 328 707 l 328 581 l 215 583 l 215 532 q 213 357 214 447 q 212 274 212 318 q 211 185 212 231 q 211 92 211 139 q 211 -1 211 44 l 79 -5 q 74 298 75 168 q 72 521 72 428 l 72 587 l 11 589 l 11 707 l 74 707 q 76 768 75 747 q 77 787 77 779 q 90 890 77 844 q 127 968 102 936 q 185 1019 151 1001 q 262 1036 220 1036 q 322 1028 291 1036 q 386 1003 353 1021 l 370 857 z "},"g":{"ha":509,"x_min":24,"x_max":468,"o":"m 468 182 q 463 40 465 102 q 452 -67 460 -21 q 427 -144 444 -113 q 382 -195 411 -176 q 309 -222 353 -214 q 200 -231 264 -231 q 132 -228 168 -231 q 53 -218 95 -226 l 58 -69 q 147 -75 109 -73 q 211 -78 185 -77 q 264 -81 241 -80 q 313 -43 296 -81 q 332 62 330 -5 q 304 18 319 35 q 273 -8 289 1 q 242 -22 257 -18 q 214 -25 227 -25 q 145 -4 179 -25 q 84 65 111 17 q 41 192 58 114 q 24 386 24 271 q 38 543 24 475 q 77 657 53 611 q 134 727 102 703 q 200 750 165 750 q 235 745 216 750 q 273 725 254 739 q 309 688 292 711 q 339 628 326 665 l 338 711 l 458 705 l 468 182 m 319 321 q 319 371 319 342 q 317 430 319 399 q 311 491 315 461 q 297 545 306 521 q 275 583 289 568 q 241 597 262 597 q 201 576 216 597 q 179 520 186 554 q 171 446 172 486 q 170 367 170 405 q 171 311 170 340 q 174 253 172 282 q 182 199 177 224 q 196 153 188 173 q 216 121 204 133 q 244 110 228 110 q 279 126 264 110 q 302 172 293 143 q 315 238 311 200 q 319 321 319 277 z "},"h":{"ha":524,"x_min":41,"x_max":490,"o":"m 315 4 q 323 74 320 38 q 330 146 327 110 q 334 216 332 182 q 338 282 336 251 q 342 425 340 355 q 337 518 342 484 q 325 570 332 552 q 307 593 317 588 q 286 599 296 599 q 260 594 273 599 q 238 576 248 590 q 219 538 227 563 q 204 473 210 513 q 195 373 198 432 q 192 233 192 315 q 192 171 192 203 q 192 110 192 138 q 193 59 193 81 q 195 28 193 37 l 41 29 q 46 275 45 153 q 47 521 47 397 q 46 742 47 632 q 43 962 45 851 l 214 966 q 206 881 210 921 q 200 804 203 842 q 197 729 198 766 q 195 653 195 692 q 241 707 216 688 q 290 735 267 726 q 331 747 313 745 q 354 749 349 749 q 421 722 395 749 q 463 649 448 694 q 484 544 478 604 q 490 419 490 484 q 487 311 490 366 q 480 203 484 256 q 472 102 476 151 q 465 12 468 53 l 315 4 z "},"i":{"ha":243,"x_min":29,"x_max":249,"o":"m 249 901 q 242 862 249 880 q 222 831 235 844 q 188 810 208 818 q 139 803 167 803 q 88 810 109 803 q 54 831 67 818 q 35 862 41 844 q 29 901 29 880 q 35 940 29 922 q 55 971 41 958 q 89 992 68 985 q 139 1000 110 1000 q 189 992 168 1000 q 223 971 210 985 q 242 940 236 958 q 249 901 249 922 m 208 704 q 201 624 204 667 q 197 535 199 581 q 194 443 195 490 q 193 350 193 395 q 194 248 193 297 q 197 157 195 199 q 201 84 199 116 q 207 35 203 52 q 151 33 180 35 q 94 30 125 32 q 32 24 63 28 q 47 247 43 146 q 52 429 52 349 q 49 550 52 498 q 44 638 47 602 q 37 710 41 680 q 107 704 75 705 q 161 703 138 703 q 181 703 172 703 q 196 703 190 703 q 208 704 203 703 z "},"j":{"ha":233,"x_min":-139,"x_max":208,"o":"m 47 -218 q 10 -224 28 -222 q -24 -225 -8 -225 q -72 -222 -50 -225 q -108 -215 -93 -219 q -139 -204 -125 -210 l -134 -69 q -101 -75 -119 -73 q -66 -79 -86 -77 q -25 -81 -47 -81 q 37 -20 20 -81 q 54 164 54 41 q 53 252 54 205 q 50 347 52 298 q 46 444 48 395 q 41 537 43 492 q 29 747 36 642 l 182 747 q 187 519 184 627 q 189 424 188 473 q 191 331 191 376 q 193 248 192 286 q 193 182 193 209 q 187 20 193 91 q 165 -101 181 -51 q 121 -181 149 -151 q 47 -218 92 -210 m 208 899 q 202 860 208 878 q 182 829 195 842 q 148 808 168 816 q 98 800 127 800 q 47 808 68 800 q 14 829 26 816 q -5 860 1 842 q -11 899 -11 878 q -5 937 -11 919 q 15 968 1 955 q 48 989 28 981 q 98 997 69 997 q 149 989 127 997 q 183 968 170 981 q 202 937 196 955 q 208 899 208 919 z "},"k":{"ha":436,"x_min":24,"x_max":439,"o":"m 439 700 q 374 538 401 606 q 326 425 346 471 q 293 351 306 379 q 272 309 280 323 q 328 194 290 270 q 429 3 366 118 l 267 -8 l 165 235 q 166 167 165 205 q 167 93 166 129 q 169 26 168 56 q 172 -17 170 -3 l 134 -17 q 91 -17 116 -17 q 35 -20 65 -18 q 43 129 40 56 q 48 259 47 201 q 50 386 50 326 q 47 539 50 452 q 39 720 44 614 q 24 962 33 827 q 153 958 107 958 q 172 958 163 958 q 186 959 180 958 q 199 960 194 959 q 190 750 193 842 q 184 589 186 658 q 181 475 182 521 q 180 401 180 429 q 233 555 208 477 q 282 724 259 633 l 439 700 z "},"l":{"ha":241,"x_min":18,"x_max":197,"o":"m 197 18 q 157 16 180 18 q 113 12 138 14 q 57 7 87 10 q 44 413 51 237 q 32 712 37 590 q 18 960 25 854 l 195 968 q 195 692 195 814 q 195 474 195 570 q 196 308 195 379 q 196 186 196 237 q 197 18 197 68 z "},"m":{"ha":751,"x_min":32,"x_max":717,"o":"m 461 431 q 456 273 458 349 q 453 206 454 241 q 450 139 452 172 q 447 76 448 106 q 444 22 446 45 l 296 8 q 304 165 301 98 q 310 281 308 233 q 312 362 311 330 q 312 414 313 395 q 312 444 312 434 q 311 456 311 453 q 308 517 311 494 q 300 555 305 541 q 287 573 294 568 q 269 578 279 578 q 244 573 257 578 q 222 556 232 569 q 206 518 212 543 q 200 453 200 494 q 200 302 200 376 q 202 170 201 229 q 204 39 203 101 l 43 24 q 50 164 48 96 q 52 288 52 233 q 47 492 52 391 q 32 703 43 593 q 103 706 75 704 q 147 711 131 708 q 176 717 166 713 l 178 635 q 209 678 192 658 q 245 713 227 699 q 285 736 264 728 q 328 745 306 745 q 371 741 352 745 q 403 727 389 737 q 427 697 417 716 q 443 650 436 679 q 470 686 455 669 q 502 716 484 703 q 538 737 519 730 q 582 745 558 745 q 645 736 619 745 q 687 700 671 727 q 710 624 703 673 q 717 494 717 575 q 711 262 717 378 q 700 22 706 146 l 551 8 q 563 218 559 133 q 566 355 566 303 q 566 431 567 408 q 566 457 566 454 q 562 518 566 494 q 552 555 558 542 q 537 573 545 568 q 518 578 528 578 q 505 577 512 578 q 489 570 497 576 q 473 552 481 564 q 458 518 465 540 q 461 464 460 488 q 461 431 461 440 z "},"o":{"ha":464,"x_min":25,"x_max":439,"o":"m 439 389 q 431 243 439 306 q 410 135 424 181 q 377 59 396 90 q 334 11 357 29 q 283 -15 311 -7 q 228 -22 256 -22 q 173 -16 199 -22 q 125 6 147 -10 q 84 50 102 22 q 52 121 65 78 q 32 225 39 165 q 25 367 25 286 q 43 567 25 489 q 90 690 61 645 q 157 752 119 735 q 233 770 194 770 q 284 765 258 770 q 332 745 309 760 q 374 703 355 730 q 408 634 394 677 q 431 532 422 592 q 439 389 439 471 m 293 383 q 288 490 293 448 q 275 556 283 532 q 256 590 267 581 q 231 599 244 599 q 203 586 215 599 q 184 543 192 572 q 172 468 176 514 q 168 357 168 422 q 173 247 168 290 q 188 177 178 203 q 209 140 197 151 q 236 129 222 129 q 279 191 266 129 q 293 383 293 252 z "},"r":{"ha":458,"x_min":35,"x_max":450,"o":"m 446 418 q 400 410 424 414 q 354 399 380 406 q 302 383 328 392 q 312 443 309 417 q 314 489 314 468 q 308 546 314 526 q 293 577 301 567 q 277 589 285 587 q 267 591 269 591 q 231 573 245 591 q 210 526 218 555 q 200 458 203 496 q 197 380 197 420 q 198 323 197 352 q 200 267 199 295 l 210 0 l 53 -11 q 50 284 53 153 q 43 508 47 415 q 35 701 39 616 l 168 710 l 175 633 q 217 702 193 677 q 265 740 241 728 q 309 756 289 753 q 339 760 329 760 q 395 738 374 760 q 429 681 417 715 q 446 605 441 646 q 450 525 450 564 q 449 467 450 494 q 446 418 447 439 z "},"s":{"ha":382,"x_min":25,"x_max":358,"o":"m 358 203 q 338 102 358 142 q 288 37 318 62 q 222 2 258 13 q 154 -8 186 -8 q 108 -3 130 -7 q 66 10 88 1 q 26 35 44 18 l 32 189 q 81 159 56 170 q 127 142 106 148 q 175 135 152 136 q 204 164 194 145 q 215 205 215 182 q 206 247 215 225 q 178 289 197 269 q 133 335 159 308 q 82 395 106 361 q 42 471 58 429 q 25 561 25 512 q 38 649 25 609 q 76 717 52 688 q 133 761 100 745 q 207 777 167 777 q 277 767 239 777 q 358 736 315 757 l 347 578 q 310 603 330 593 q 273 618 290 613 q 235 627 254 625 q 191 600 209 622 q 172 543 172 578 q 185 487 172 511 q 219 441 199 463 q 262 398 239 420 q 307 350 286 377 q 342 288 328 323 q 358 203 357 252 z "},"t":{"ha":364,"x_min":5,"x_max":364,"o":"m 278 916 q 269 809 273 861 q 261 705 264 757 q 312 708 287 707 q 364 711 338 709 l 359 574 q 307 575 334 575 q 254 575 280 575 q 247 384 249 477 q 244 196 244 291 q 245 98 244 147 q 248 -1 246 49 l 98 -4 q 106 284 103 142 q 110 572 110 427 q 58 570 84 571 q 5 567 31 569 l 11 715 q 60 710 35 712 q 109 707 85 708 q 107 810 109 760 q 104 914 106 861 l 278 916 z "},"u":{"ha":504,"x_min":29,"x_max":468,"o":"m 468 669 q 460 453 463 560 q 458 239 458 347 q 459 113 458 175 q 461 -14 459 50 l 326 -17 l 326 68 q 281 17 306 35 q 233 -8 256 -1 q 194 -17 210 -16 q 175 -18 178 -18 q 104 19 132 -9 q 59 91 76 48 q 36 189 43 134 q 29 302 29 243 q 33 408 29 354 q 43 513 37 461 q 57 613 50 565 q 72 704 64 662 l 220 701 q 207 614 214 661 q 196 519 201 568 q 188 421 191 470 q 184 328 184 372 q 188 252 184 287 q 199 190 191 216 q 218 150 206 164 q 248 135 230 135 q 286 163 271 135 q 309 236 300 191 q 320 337 317 281 q 323 450 323 393 q 322 532 323 493 q 319 601 321 570 q 315 667 317 636 l 468 669 z "},"v":{"ha":439,"x_min":5,"x_max":440,"o":"m 440 701 q 398 525 417 612 q 361 351 378 438 q 328 176 344 264 q 294 -1 311 89 l 139 -3 q 112 174 128 87 q 77 348 96 262 q 40 522 59 435 q 5 697 21 608 l 168 699 q 178 579 171 640 q 193 456 184 518 q 210 333 201 395 q 227 210 219 271 q 241 334 235 271 q 254 460 248 397 q 267 585 260 523 q 279 707 273 648 l 440 701 z "},"x":{"ha":439,"x_min":3,"x_max":437,"o":"m 293 -5 q 259 93 276 45 q 222 189 241 140 q 188 94 205 142 q 155 -3 171 46 l 3 5 q 82 177 43 92 q 155 350 120 262 q 81 521 119 437 q 5 692 43 606 l 164 708 q 222 526 189 615 q 252 615 237 570 q 281 708 267 660 l 437 696 q 360 526 397 610 q 288 355 323 441 q 358 187 322 269 q 429 21 393 105 l 293 -5 z "},"y":{"ha":505,"x_min":31,"x_max":465,"o":"m 452 703 q 461 408 458 556 q 465 106 465 260 q 457 -58 465 8 q 425 -164 449 -123 q 355 -221 400 -204 q 235 -239 309 -239 q 147 -235 197 -239 q 35 -224 98 -232 l 40 -75 q 128 -81 90 -79 q 193 -84 167 -83 q 245 -86 223 -86 q 273 -82 262 -86 q 292 -69 285 -79 q 302 -41 299 -59 q 306 4 306 -24 q 306 22 306 13 q 304 43 306 31 q 280 17 294 26 q 252 2 266 7 q 226 -5 239 -3 q 205 -7 214 -7 q 117 16 151 -7 q 64 77 83 38 q 39 167 45 115 q 32 278 32 219 q 32 314 32 304 q 31 325 31 323 q 31 327 31 327 q 31 333 31 326 q 33 360 32 340 q 37 422 35 380 q 44 533 40 464 q 53 708 47 602 l 210 694 q 207 668 212 694 q 197 594 203 642 q 186 479 191 547 q 180 330 180 412 q 185 247 180 281 q 199 191 191 213 q 221 160 208 170 q 249 150 233 150 q 294 192 276 150 q 311 328 311 235 q 311 341 311 334 q 310 365 311 349 q 309 404 310 380 q 305 469 307 429 q 299 567 302 509 q 292 707 296 625 l 452 703 z "},"z":{"ha":392,"x_min":9,"x_max":380,"o":"m 380 717 l 193 134 l 370 138 l 370 -5 l 9 -11 l 203 587 l 25 581 l 21 717 l 380 717 z "},"£":{"ha":460,"x_min":31,"x_max":436,"o":"m 109 488 q 92 561 101 524 q 75 632 83 597 q 61 703 66 668 q 56 770 56 737 q 71 856 56 815 q 115 926 86 897 q 184 974 143 956 q 275 991 224 991 q 347 982 309 991 q 429 949 385 972 l 408 818 q 361 848 387 840 q 314 856 336 856 q 258 847 280 856 q 224 820 237 838 q 206 777 211 802 q 201 718 201 751 q 209 616 201 673 q 229 492 216 559 l 339 496 l 339 372 l 239 372 l 239 367 q 236 306 239 338 q 227 241 234 273 q 209 177 220 208 q 179 119 197 146 l 436 134 l 436 -1 l 32 -1 l 31 134 q 77 191 59 159 q 104 256 95 223 q 117 318 114 288 q 121 372 121 349 l 37 372 l 33 486 l 109 488 z "},"¶":{"ha":675,"x_min":18,"x_max":633,"o":"m 501 12 q 502 100 501 56 q 503 187 503 143 q 498 534 503 362 q 485 880 493 706 l 432 885 q 428 742 429 812 q 428 599 428 671 q 433 295 428 446 q 447 -9 437 144 l 286 -4 q 290 158 288 78 q 293 321 292 239 q 260 312 276 315 q 231 310 244 310 q 145 334 184 310 q 78 401 106 357 q 34 505 50 444 q 18 642 18 566 q 41 785 18 720 q 105 896 64 850 q 200 968 145 943 q 318 994 254 994 q 466 988 391 994 q 618 968 540 983 q 613 785 614 876 q 611 603 611 694 q 616 307 611 454 q 633 11 622 160 l 501 12 m 267 397 q 280 398 273 397 q 294 401 287 398 l 294 472 q 293 672 294 573 q 288 872 291 770 q 246 857 264 869 q 215 828 229 845 q 193 790 202 811 q 178 749 184 770 q 163 639 165 699 q 176 518 164 571 q 188 474 180 496 q 206 435 195 452 q 232 408 217 418 q 267 397 247 397 z "},"∞":{"ha":654,"x_min":28,"x_max":627,"o":"m 627 501 q 614 433 627 463 q 580 383 601 404 q 534 352 559 363 q 484 342 509 342 q 439 353 463 343 q 389 379 418 361 q 328 431 361 397 q 266 379 294 397 q 216 353 237 361 q 172 342 192 343 q 121 352 146 342 q 75 383 96 363 q 41 433 54 404 q 28 501 28 463 q 39 569 28 541 q 70 617 51 598 q 115 646 90 637 q 167 656 140 656 q 214 646 188 654 q 264 621 235 638 q 328 574 294 604 q 390 621 361 604 q 441 646 419 638 q 488 656 467 654 q 540 646 515 656 q 584 617 565 637 q 615 569 604 598 q 627 501 627 541 m 481 444 q 509 461 499 444 q 518 497 518 477 q 516 517 518 507 q 508 534 513 526 q 495 546 503 541 q 476 550 487 550 q 448 543 463 549 q 419 529 435 538 q 387 503 404 520 q 424 469 407 481 q 453 452 440 457 q 481 444 468 445 m 174 444 q 201 452 186 445 q 230 469 213 457 q 265 503 246 481 q 234 530 250 520 q 207 544 219 539 q 179 550 193 549 q 160 545 168 550 q 147 533 152 541 q 139 515 142 525 q 136 496 136 506 q 145 460 136 476 q 174 444 155 444 z "},"Ω":{"ha":543,"x_min":29,"x_max":513,"o":"m 493 12 l 296 12 l 292 204 q 313 238 304 217 q 329 285 322 259 q 341 339 336 311 q 349 397 345 368 q 357 539 356 463 q 354 664 357 604 q 343 771 351 724 q 321 845 335 817 q 285 872 307 872 q 244 849 262 872 q 214 783 227 826 q 194 681 201 741 q 187 547 187 621 q 196 406 189 473 q 204 349 199 378 q 216 294 209 320 q 233 245 223 267 q 256 210 243 223 l 256 1 l 58 1 l 58 150 l 161 143 l 163 195 q 97 268 123 224 q 56 363 71 313 q 35 466 41 414 q 29 566 29 519 q 47 769 29 686 q 99 904 66 852 q 180 978 133 955 q 285 1000 227 1000 q 392 969 349 1000 q 463 880 436 938 q 501 740 490 822 q 513 558 513 659 q 507 453 513 503 q 486 357 500 402 q 445 271 471 311 q 379 196 418 231 l 383 150 l 493 160 l 493 12 z "},"n":{"ha":532,"x_min":41,"x_max":496,"o":"m 315 4 q 337 225 330 113 q 343 460 343 337 q 338 526 343 501 q 323 564 332 551 q 304 581 315 577 q 285 585 294 585 q 259 580 271 585 q 237 562 248 575 q 219 524 227 548 q 204 459 210 499 q 195 362 198 419 q 192 225 192 304 q 192 166 192 197 q 192 107 192 135 q 193 58 193 79 q 195 28 193 37 l 41 29 q 44 139 43 91 q 46 229 45 188 q 47 305 47 269 q 47 375 47 340 q 47 439 47 406 q 46 510 47 472 q 45 593 46 548 q 43 693 44 638 l 201 697 l 199 628 q 238 683 217 663 q 280 715 259 704 q 320 731 300 727 q 355 734 340 734 q 425 705 397 734 q 468 628 452 676 q 490 517 484 579 q 496 387 496 454 q 493 288 496 338 q 488 190 491 238 q 481 96 485 141 q 475 12 477 51 l 315 4 z "},"p":{"ha":498,"x_min":46,"x_max":473,"o":"m 275 750 q 352 728 319 750 q 406 669 384 705 q 441 586 428 633 q 461 490 454 539 q 471 394 469 441 q 473 310 473 347 q 460 163 473 225 q 423 60 446 101 q 369 0 399 20 q 304 -20 338 -20 q 263 -10 284 -18 q 225 11 245 -3 q 186 50 204 24 l 199 -228 l 46 -228 l 46 699 l 176 708 l 176 671 q 195 701 184 686 q 218 726 205 715 q 244 744 230 737 q 275 750 258 750 m 328 310 q 327 365 328 333 q 323 430 326 396 q 315 497 320 464 q 300 556 309 530 q 278 599 291 583 q 245 615 264 615 q 214 598 227 615 q 192 553 200 582 q 179 487 183 525 q 175 408 175 450 q 175 362 175 389 q 178 304 176 334 q 185 243 180 273 q 199 188 190 212 q 223 149 208 164 q 258 134 237 134 q 295 149 281 134 q 316 188 309 163 q 326 245 323 213 q 328 310 328 277 z "},"q":{"ha":498,"x_min":24,"x_max":464,"o":"m 314 -231 l 319 58 q 280 17 301 31 q 241 -5 259 2 q 200 -14 220 -12 q 134 8 165 -14 q 77 73 102 29 q 38 182 53 117 q 24 338 24 248 q 40 529 24 450 q 83 655 56 607 q 142 726 109 704 q 210 747 176 747 q 251 740 233 747 q 283 720 269 733 q 309 690 298 707 q 328 653 319 673 l 328 720 l 447 718 l 464 -237 l 314 -231 m 319 368 q 319 400 319 378 q 317 449 319 422 q 311 505 315 476 q 299 558 307 534 q 277 597 290 582 q 245 612 264 612 q 210 592 224 612 q 186 539 195 572 q 174 467 178 507 q 170 387 170 427 q 170 306 170 349 q 177 225 171 262 q 198 163 183 188 q 240 139 212 139 q 272 150 259 139 q 293 178 285 160 q 307 219 302 196 q 314 268 312 243 q 318 319 317 294 q 319 368 319 345 z "},"w":{"ha":663,"x_min":8,"x_max":661,"o":"m 389 602 q 414 476 402 542 q 437 350 425 420 q 460 211 450 281 q 469 294 465 251 q 476 379 473 336 q 483 462 480 421 q 489 539 486 503 q 500 707 495 625 l 661 701 q 612 440 635 568 q 590 327 602 385 q 568 210 579 268 q 547 98 557 152 q 529 -1 537 43 l 374 -3 q 361 95 368 47 q 349 188 355 143 q 338 273 343 233 q 328 346 332 313 q 308 190 320 280 q 277 -1 295 99 l 121 -3 q 107 96 115 42 q 91 208 100 150 q 72 324 82 265 q 54 437 62 382 q 8 697 32 564 l 171 699 q 184 536 177 619 q 191 461 187 501 q 198 380 194 422 q 204 297 201 339 q 211 215 208 255 q 222 284 216 250 q 233 353 228 319 q 242 418 238 387 q 251 477 247 450 q 268 602 260 543 l 389 602 z "},",":{"ha":207,"x_min":22,"x_max":183,"o":"m 183 54 q 178 9 183 29 q 164 -30 174 -12 q 142 -64 155 -47 q 111 -98 129 -81 l 61 -75 q 71 -62 66 -70 q 79 -46 75 -56 q 87 -25 84 -37 q 41 2 59 -20 q 22 54 22 24 q 29 85 22 71 q 46 111 35 100 q 72 129 57 122 q 103 135 86 135 q 134 129 119 135 q 159 111 149 122 q 177 85 170 100 q 183 54 183 71 z "},".":{"ha":205,"x_min":22,"x_max":183,"o":"m 183 56 q 177 24 183 39 q 159 -1 170 9 q 134 -19 149 -12 q 103 -25 119 -25 q 72 -19 86 -25 q 46 -1 57 -12 q 29 24 35 9 q 22 56 22 39 q 29 87 22 72 q 46 113 35 102 q 72 130 57 123 q 103 136 86 136 q 134 130 119 136 q 159 113 149 123 q 177 87 170 102 q 183 56 183 72 z "},":":{"ha":250,"x_min":45,"x_max":205,"o":"m 205 533 q 199 503 205 517 q 182 478 193 488 q 156 461 171 467 q 125 454 142 454 q 94 461 109 454 q 68 478 79 467 q 51 503 58 488 q 45 533 45 517 q 51 565 45 550 q 68 591 58 581 q 94 609 79 602 q 125 615 109 615 q 156 609 142 615 q 182 591 171 602 q 199 565 193 581 q 205 533 205 550 m 205 56 q 199 24 205 39 q 182 -1 193 9 q 156 -19 171 -12 q 125 -25 142 -25 q 94 -19 109 -25 q 68 -1 79 -12 q 51 24 58 9 q 45 56 45 39 q 51 87 45 72 q 68 113 58 102 q 94 130 79 123 q 125 136 109 136 q 156 130 142 136 q 182 113 171 123 q 199 87 193 102 q 205 56 205 72 z "},";":{"ha":250,"x_min":45,"x_max":205,"o":"m 205 54 q 201 9 205 29 q 187 -30 196 -12 q 164 -64 178 -47 q 134 -98 151 -81 l 83 -75 q 93 -62 88 -70 q 101 -46 97 -56 q 110 -25 106 -37 q 63 2 81 -20 q 45 54 45 24 q 51 85 45 71 q 68 111 58 100 q 94 129 79 122 q 125 135 109 135 q 156 129 142 135 q 182 111 171 122 q 199 85 193 100 q 205 54 205 71 m 205 525 q 199 494 205 509 q 182 469 193 480 q 156 452 171 458 q 125 446 142 446 q 94 452 109 446 q 68 469 79 458 q 51 494 58 480 q 45 525 45 509 q 51 557 45 542 q 68 583 58 572 q 94 601 79 594 q 125 607 109 607 q 156 601 142 607 q 182 583 171 594 q 199 557 193 572 q 205 525 205 542 z "},"\"":{"ha":387,"x_min":24,"x_max":366,"o":"m 366 971 q 358 915 361 943 q 351 858 354 886 q 345 802 347 829 q 340 751 342 775 q 330 640 334 694 l 239 640 q 231 755 235 698 q 226 807 229 780 q 221 863 224 835 q 215 918 218 890 q 208 971 212 946 q 228 970 219 970 q 244 970 236 970 q 260 970 252 970 q 279 970 269 970 q 303 970 294 970 q 322 970 313 970 q 341 971 331 970 q 366 971 351 971 m 179 971 q 172 915 175 943 q 165 858 168 886 q 160 802 162 829 q 155 751 157 775 q 147 640 151 694 l 54 640 q 46 755 51 698 q 42 807 44 780 q 37 863 39 835 q 31 918 34 890 q 24 971 27 946 q 43 970 35 970 q 59 970 52 970 q 75 970 66 970 q 94 970 83 970 q 118 970 109 970 q 137 970 128 970 q 155 971 146 970 q 179 971 165 971 z "},"'":{"ha":203,"x_min":24,"x_max":179,"o":"m 179 971 q 172 915 175 943 q 165 858 168 886 q 160 802 162 829 q 155 751 157 775 q 147 640 151 694 l 54 640 q 46 755 51 698 q 42 807 44 780 q 37 863 39 835 q 31 918 34 890 q 24 971 27 946 q 43 970 35 970 q 59 970 52 970 q 75 970 66 970 q 94 970 83 970 q 118 970 109 970 q 137 970 128 970 q 155 971 146 970 q 179 971 165 971 z "},"*":{"ha":464,"x_min":20,"x_max":443,"o":"m 72 848 q 82 841 71 848 q 108 824 92 834 q 143 801 124 813 q 179 777 162 788 q 173 827 176 800 q 166 877 170 854 q 162 915 163 900 q 160 929 160 930 q 166 929 160 929 q 181 929 172 929 q 203 929 191 929 q 228 930 215 930 l 296 933 l 282 783 q 320 810 300 796 q 357 836 340 825 q 384 855 374 848 q 395 861 395 862 q 397 853 395 860 q 402 837 399 847 q 410 815 406 827 q 418 790 414 803 q 443 724 429 760 l 319 686 l 416 604 l 334 485 l 233 643 l 163 481 l 62 587 l 153 681 l 20 714 l 47 782 q 56 807 52 795 q 65 828 61 819 q 71 843 68 838 q 72 848 73 848 z "},"#":{"ha":447,"x_min":32,"x_max":412,"o":"m 256 755 q 272 756 256 755 q 308 758 288 757 l 359 761 l 355 633 l 412 636 l 412 543 l 353 542 l 350 461 q 375 462 363 462 q 395 463 387 463 l 412 463 l 411 361 l 347 361 l 343 221 l 257 215 q 256 256 256 234 q 256 302 256 276 q 256 359 256 329 l 197 359 l 196 228 l 104 221 l 103 358 l 32 358 l 35 460 l 102 460 l 102 534 l 33 533 l 33 625 l 100 627 l 100 760 l 201 758 l 200 629 l 254 631 q 254 673 254 651 q 254 713 254 695 q 255 744 254 732 q 256 755 255 755 m 254 460 l 254 539 l 199 538 l 199 460 l 254 460 z "},"(":{"ha":353,"x_min":25,"x_max":363,"o":"m 363 1018 q 298 947 326 987 q 249 862 270 907 q 215 769 229 817 q 192 674 201 721 q 180 585 184 628 q 176 505 176 541 q 186 361 176 438 q 218 209 197 283 q 271 67 239 134 q 349 -43 304 1 l 256 -146 q 151 1 195 -75 q 79 157 107 76 q 38 324 52 237 q 25 505 25 410 q 42 665 25 581 q 91 828 59 749 q 167 978 122 908 q 269 1095 212 1047 l 363 1018 z "},")":{"ha":353,"x_min":-9,"x_max":328,"o":"m 83 1095 q 185 978 140 1047 q 262 828 231 908 q 311 665 294 749 q 328 505 328 581 q 314 324 328 410 q 273 157 301 237 q 202 1 245 76 q 97 -146 158 -75 l 4 -43 q 81 67 49 1 q 135 209 114 134 q 166 361 156 283 q 176 505 176 438 q 173 585 176 541 q 160 674 169 628 q 138 769 152 721 q 103 862 124 817 q 55 947 83 907 q -9 1018 27 987 l 83 1095 z "},"+":{"ha":439,"x_min":33,"x_max":406,"o":"m 278 285 l 153 285 l 153 403 l 33 403 l 33 539 l 151 536 l 151 657 l 288 657 l 283 532 l 406 529 l 406 404 l 281 404 l 278 285 z "},"-":{"ha":449,"x_min":39,"x_max":411,"o":"m 411 529 l 411 404 l 39 403 l 39 539 l 411 529 z "},"/":{"ha":578,"x_min":12,"x_max":562,"o":"m 562 996 q 400 595 476 787 q 334 426 368 513 q 271 257 301 339 q 216 100 241 174 q 176 -29 191 26 q 119 -21 147 -24 q 65 -16 94 -18 q 12 -16 37 -14 q 67 101 37 32 q 130 251 97 170 q 197 419 163 332 q 262 591 231 507 q 415 1008 337 789 l 562 996 z "},"¦":{"ha":271,"x_min":49,"x_max":221,"o":"m 203 575 l 65 575 l 49 1086 l 216 1086 l 203 575 m 57 -115 l 68 441 l 207 441 l 221 -110 l 57 -115 z "},"[":{"ha":339,"x_min":49,"x_max":322,"o":"m 322 -118 q 180 -117 246 -118 q 49 -113 114 -116 q 56 42 54 -41 q 61 209 59 125 q 63 376 62 294 q 64 530 64 458 q 63 669 64 597 q 61 813 63 741 q 57 958 60 886 q 49 1096 54 1029 q 85 1098 65 1097 q 127 1099 105 1099 q 172 1101 149 1100 q 216 1103 195 1102 q 319 1107 267 1105 l 322 968 q 274 969 299 969 q 212 970 248 970 q 208 868 210 924 q 206 754 207 812 q 204 640 205 696 q 204 538 204 583 q 204 459 204 503 q 205 369 205 416 q 206 273 205 322 q 208 176 207 224 q 210 85 209 129 q 212 7 211 42 l 322 9 l 322 -118 z "},"<":{"ha":383,"x_min":28,"x_max":353,"o":"m 304 254 l 28 412 l 28 547 l 294 726 l 353 602 l 134 488 l 353 383 l 304 254 z "},"^":{"ha":336,"x_min":0,"x_max":336,"o":"m 336 632 l 211 616 q 186 739 197 684 q 177 784 181 762 q 169 825 172 807 q 163 856 165 844 q 161 871 161 868 l 117 612 l 0 629 l 104 985 q 131 983 118 983 q 158 982 144 982 q 183 982 172 982 q 203 983 194 983 q 221 985 213 984 l 336 632 z "},"_":{"ha":428,"x_min":50,"x_max":380,"o":"m 380 -62 q 378 -85 379 -66 q 378 -127 378 -104 q 378 -174 378 -152 q 380 -205 379 -196 q 258 -200 324 -202 q 125 -197 193 -197 q 87 -198 106 -197 q 50 -199 69 -199 q 51 -162 50 -182 q 52 -121 52 -142 q 52 -93 52 -107 q 50 -62 52 -78 q 136 -72 87 -68 q 233 -75 185 -75 q 321 -72 281 -75 q 380 -62 361 -68 z "},"{":{"ha":358,"x_min":12,"x_max":353,"o":"m 353 962 q 319 972 337 971 q 282 974 301 974 q 251 967 265 974 q 225 948 236 960 q 209 921 215 937 q 203 888 203 905 q 207 853 203 875 q 216 804 210 831 q 229 749 222 778 q 241 693 235 720 q 251 643 247 666 q 254 607 254 621 q 246 558 254 581 q 222 517 237 535 q 185 486 207 498 q 139 468 164 473 q 185 448 165 463 q 219 412 205 433 q 240 367 233 391 q 248 318 248 342 q 244 284 248 305 q 237 237 241 262 q 227 183 233 212 q 217 130 222 155 q 210 83 213 104 q 207 50 207 62 q 230 -11 207 10 q 298 -32 254 -32 q 314 -32 306 -32 q 328 -31 321 -31 q 340 -29 335 -30 l 314 -186 q 224 -163 268 -179 q 147 -121 181 -148 q 93 -56 113 -95 q 72 37 72 -17 q 79 95 72 62 q 96 161 87 127 q 112 228 104 195 q 119 285 119 260 q 113 324 119 306 q 93 356 106 342 q 63 377 81 370 q 22 385 45 385 l 12 385 l 12 530 q 53 539 35 530 q 83 562 71 547 q 102 595 96 576 q 109 636 109 614 q 103 687 109 657 q 91 749 98 717 q 79 815 85 782 q 74 879 74 849 q 87 975 74 932 q 128 1047 101 1017 q 197 1094 155 1078 q 293 1109 238 1109 q 315 1109 304 1109 q 336 1107 326 1108 l 353 962 z "},"|":{"ha":268,"x_min":47,"x_max":228,"o":"m 224 1086 q 212 965 216 1028 q 204 837 207 901 q 201 709 202 773 q 200 586 200 646 q 201 419 200 509 q 206 237 203 330 q 215 56 210 145 q 228 -110 220 -34 l 180 -110 q 115 -111 146 -110 q 47 -115 84 -112 q 51 -72 50 -104 q 54 6 53 -40 q 57 107 56 52 q 60 219 58 162 q 62 331 61 276 q 64 430 63 385 q 65 505 64 475 q 65 543 65 535 q 62 819 65 680 q 47 1086 60 958 q 84 1084 67 1085 q 118 1083 101 1083 q 170 1084 144 1083 q 224 1086 195 1085 z "},"~":{"ha":519,"x_min":28,"x_max":492,"o":"m 492 511 q 487 500 492 511 q 474 475 483 490 q 453 443 465 460 q 424 410 440 425 q 387 385 407 395 q 343 375 367 375 q 303 388 321 375 q 269 415 286 400 q 235 442 252 429 q 197 454 218 454 q 146 433 170 454 q 103 374 123 412 l 28 457 q 52 514 40 488 q 80 559 64 541 q 116 589 96 578 q 165 600 137 600 q 220 588 196 600 q 265 562 245 576 q 302 535 285 547 q 336 524 319 524 q 374 537 357 524 q 403 569 391 551 q 428 615 416 589 l 492 511 z "},"†":{"ha":410,"x_min":20,"x_max":390,"o":"m 300 1086 q 288 976 292 1033 q 282 860 284 918 q 324 860 304 860 q 358 861 343 860 q 390 861 376 861 q 388 840 389 857 q 387 801 387 823 q 388 759 387 780 q 390 725 389 737 q 331 728 359 727 q 278 730 304 729 q 277 657 277 693 q 277 586 277 621 q 278 419 277 509 q 283 237 279 330 q 291 56 286 145 q 304 -110 296 -34 q 255 -109 278 -109 q 211 -110 233 -109 q 169 -112 190 -111 q 123 -115 147 -113 q 132 89 128 -9 q 136 174 134 130 q 139 260 138 218 q 141 338 140 301 q 142 401 142 374 q 142 565 142 481 q 140 734 142 648 q 84 734 113 734 q 20 733 54 733 q 22 766 20 751 q 24 798 23 782 q 23 832 24 814 q 20 873 22 850 q 76 867 45 869 q 138 863 106 865 q 132 976 136 920 q 123 1086 129 1031 q 171 1084 149 1084 q 213 1084 193 1084 q 255 1085 234 1084 q 300 1086 276 1086 z "},"°":{"ha":294,"x_min":17,"x_max":278,"o":"m 196 827 q 181 861 196 848 q 146 875 167 875 q 112 861 127 875 q 97 827 97 848 q 112 793 97 808 q 146 779 127 779 q 181 793 167 779 q 196 827 196 808 m 278 827 q 267 777 278 800 q 238 736 256 754 q 197 709 220 719 q 147 699 173 699 q 98 709 121 699 q 56 736 74 719 q 27 777 38 754 q 17 827 17 800 q 27 878 17 854 q 56 919 38 901 q 98 947 74 937 q 147 957 121 957 q 197 947 173 957 q 238 919 220 937 q 267 878 256 901 q 278 827 278 854 z "},"•":{"ha":376,"x_min":57,"x_max":319,"o":"m 319 497 q 309 447 319 471 q 281 406 299 423 q 240 377 264 388 q 191 367 217 367 q 138 377 163 367 q 96 406 114 388 q 67 447 78 423 q 57 497 57 471 q 67 549 57 525 q 96 591 78 573 q 138 619 114 609 q 191 629 163 629 q 240 619 217 629 q 281 591 264 609 q 309 549 299 573 q 319 497 319 525 z "},"`":{"ha":243,"x_min":0,"x_max":243,"o":"m 243 851 l 179 804 l 0 997 q 37 1027 18 1013 q 73 1055 54 1040 q 110 1082 92 1069 l 243 851 z "},"´":{"ha":243,"x_min":0,"x_max":243,"o":"m 134 1082 q 170 1055 151 1069 q 205 1027 189 1040 q 243 997 224 1013 l 64 804 l 0 851 l 134 1082 z "},"¨":{"ha":328,"x_min":0,"x_max":328,"o":"m 144 878 q 139 850 144 863 q 123 828 133 838 q 100 812 113 818 q 72 807 87 807 q 44 812 58 807 q 21 828 31 818 q 6 850 12 838 q 0 878 0 863 q 6 906 0 892 q 21 929 12 920 q 44 944 31 939 q 72 950 58 950 q 100 944 87 950 q 123 929 113 939 q 139 906 133 920 q 144 878 144 892 m 328 878 q 322 850 328 863 q 306 828 316 838 q 283 812 296 818 q 256 807 270 807 q 228 812 241 807 q 204 828 214 818 q 189 850 195 838 q 183 878 183 863 q 189 906 183 892 q 204 929 195 920 q 228 944 214 939 q 256 950 241 950 q 283 944 270 950 q 306 929 296 939 q 322 906 316 920 q 328 878 328 892 z "},"¬":{"ha":482,"x_min":39,"x_max":440,"o":"m 440 267 l 301 261 l 307 429 q 173 428 240 431 q 39 418 106 425 l 39 555 q 238 559 140 555 q 428 570 335 563 l 428 568 l 429 570 l 440 267 z "},"√":{"ha":543,"x_min":1,"x_max":550,"o":"m 1 425 q 9 426 2 425 q 27 428 16 427 q 52 432 38 430 q 80 437 66 435 q 157 452 114 444 l 220 176 l 387 990 l 550 974 l 297 -3 l 158 -17 q 79 205 113 107 q 50 286 64 246 q 25 357 36 326 q 7 407 14 388 q 1 425 1 426 z "},"≈":{"ha":526,"x_min":32,"x_max":496,"o":"m 496 636 q 457 568 479 597 q 436 543 448 555 q 410 520 424 530 q 381 505 397 511 q 347 500 365 500 q 307 512 325 500 q 273 539 290 525 q 239 567 256 554 q 201 579 222 579 q 151 558 174 579 q 107 498 127 537 l 32 582 q 56 639 44 612 q 84 684 68 665 q 120 714 100 703 q 170 725 141 725 q 224 713 200 725 q 269 687 249 701 q 306 660 289 672 q 340 648 323 648 q 378 663 361 648 q 407 694 395 677 q 432 741 420 715 l 496 636 m 496 358 q 457 290 479 319 q 436 264 448 277 q 410 243 424 252 q 381 228 397 233 q 347 222 365 222 q 307 235 325 222 q 273 262 290 247 q 239 289 256 277 q 201 301 222 301 q 151 280 174 301 q 107 221 127 260 l 32 304 q 56 361 44 335 q 84 406 68 387 q 120 436 100 425 q 170 447 141 447 q 224 435 200 447 q 269 409 249 423 q 306 383 289 395 q 340 371 323 371 q 378 385 361 371 q 407 416 395 399 q 432 463 420 437 l 496 358 z "},"«":{"ha":667,"x_min":24,"x_max":637,"o":"m 283 129 l 24 262 l 24 401 l 261 559 l 318 427 l 113 340 l 318 256 l 283 129 m 603 129 l 343 262 l 343 401 l 582 559 l 637 427 l 432 338 l 637 256 l 603 129 z "},"»":{"ha":667,"x_min":29,"x_max":643,"o":"m 349 256 l 553 340 l 349 427 l 406 559 l 643 401 l 643 262 l 383 129 l 349 256 m 29 256 l 233 338 l 29 427 l 85 559 l 323 401 l 323 262 l 64 129 l 29 256 z "},"–":{"ha":633,"x_min":39,"x_max":596,"o":"m 596 529 l 596 404 l 39 403 l 39 539 l 596 529 z "},"—":{"ha":908,"x_min":39,"x_max":871,"o":"m 871 529 l 871 404 l 39 403 l 39 539 l 871 529 z "},"“":{"ha":395,"x_min":20,"x_max":379,"o":"m 218 804 q 223 850 218 829 q 236 888 227 870 q 259 922 245 905 q 290 957 273 939 l 340 933 q 330 920 335 928 q 321 905 326 914 q 313 884 317 895 q 360 856 341 878 q 379 804 379 833 q 373 773 379 787 q 355 747 366 758 q 330 730 345 736 q 298 724 315 724 q 268 730 282 724 q 242 747 253 736 q 225 773 231 758 q 218 804 218 787 m 20 811 q 25 853 20 834 q 39 890 30 873 q 61 923 48 907 q 92 957 75 939 l 142 933 q 132 920 136 928 q 123 905 127 914 q 114 884 118 895 q 161 856 142 878 q 180 804 180 833 q 174 773 180 787 q 157 747 168 758 q 131 730 146 736 q 100 724 117 724 q 69 730 83 724 q 43 748 54 736 q 26 775 33 760 q 20 811 20 791 z "},"”":{"ha":393,"x_min":16,"x_max":375,"o":"m 176 876 q 171 830 176 850 q 157 791 166 809 q 135 757 148 773 q 104 724 121 741 l 54 747 q 64 760 59 753 q 81 798 73 774 q 34 824 52 803 q 16 876 16 846 q 22 908 16 893 q 39 933 28 922 q 65 950 50 944 q 96 957 79 957 q 127 950 113 957 q 153 933 142 944 q 170 908 163 922 q 176 876 176 893 m 375 876 q 370 831 375 851 q 356 793 366 810 q 334 758 347 775 q 302 724 320 741 l 253 747 q 262 760 258 753 q 279 798 271 774 q 232 824 251 803 q 214 876 214 846 q 220 908 214 893 q 237 933 227 922 q 263 950 248 944 q 294 957 278 957 q 326 950 311 957 q 351 933 340 944 q 369 908 362 922 q 375 876 375 893 z "},"‘":{"ha":196,"x_min":20,"x_max":180,"o":"m 20 811 q 25 853 20 834 q 39 890 30 873 q 61 923 48 907 q 92 957 75 939 l 142 933 q 132 920 136 928 q 123 905 127 914 q 114 884 118 895 q 161 856 142 878 q 180 804 180 833 q 174 773 180 787 q 157 747 168 758 q 131 730 146 736 q 100 724 117 724 q 69 730 83 724 q 43 748 54 736 q 26 775 33 760 q 20 811 20 791 z "},"’":{"ha":195,"x_min":16,"x_max":176,"o":"m 176 876 q 172 831 176 851 q 158 793 167 810 q 135 758 149 775 q 104 724 122 741 l 54 747 q 64 760 59 753 q 81 798 73 774 q 34 824 52 803 q 16 876 16 846 q 22 908 16 893 q 39 933 28 922 q 65 950 50 944 q 96 957 79 957 q 127 950 113 957 q 153 933 142 944 q 170 908 163 922 q 176 876 176 893 z "},"÷":{"ha":432,"x_min":31,"x_max":403,"o":"m 403 404 l 31 403 l 31 539 l 403 529 l 403 404 m 296 273 q 289 242 296 257 q 272 217 283 228 q 247 200 261 206 q 215 193 232 193 q 184 200 199 193 q 159 217 170 206 q 141 242 148 228 q 135 273 135 257 q 141 305 135 290 q 159 330 148 319 q 184 348 170 341 q 215 354 199 354 q 247 348 232 354 q 272 330 261 341 q 289 305 283 319 q 296 273 296 290 m 296 664 q 289 632 296 647 q 272 607 283 618 q 247 590 261 596 q 215 583 232 583 q 184 590 199 583 q 159 607 170 596 q 141 632 148 618 q 135 664 135 647 q 141 695 135 680 q 159 721 148 710 q 184 738 170 732 q 215 745 199 745 q 247 738 232 745 q 272 721 261 732 q 289 695 283 710 q 296 664 296 680 z "},"⁄":{"ha":437,"x_min":3,"x_max":436,"o":"m 436 868 q 366 717 404 801 q 287 535 328 633 q 202 327 245 437 q 113 94 158 216 q 72 103 92 99 q 36 109 55 106 q 3 111 17 112 q 65 234 33 167 q 129 374 97 302 q 192 518 161 446 q 249 659 222 591 q 296 784 275 726 q 329 885 317 842 l 436 868 z "},"‹":{"ha":347,"x_min":24,"x_max":318,"o":"m 283 129 l 24 262 l 24 401 l 261 559 l 318 427 l 113 340 l 318 256 l 283 129 z "},"›":{"ha":347,"x_min":29,"x_max":323,"o":"m 29 256 l 233 340 l 29 427 l 86 559 l 323 401 l 323 262 l 64 129 l 29 256 z "},"‡":{"ha":427,"x_min":28,"x_max":399,"o":"m 399 267 q 396 246 397 263 q 395 207 395 229 q 396 164 395 185 q 399 131 397 142 l 294 136 q 302 8 298 71 q 313 -110 307 -54 q 263 -109 286 -109 q 220 -110 241 -109 q 177 -112 199 -111 q 132 -115 156 -113 q 136 -38 134 -79 q 139 43 137 -3 q 143 139 141 89 l 28 139 q 30 172 28 157 q 32 203 31 187 q 32 237 33 219 q 28 279 31 256 q 85 272 54 275 q 147 268 116 270 q 149 341 149 307 q 150 401 150 376 q 150 565 150 481 q 149 734 150 648 q 92 734 121 734 q 28 733 62 733 q 30 766 28 751 q 32 798 31 782 q 32 832 33 814 q 28 873 31 850 q 84 867 54 869 q 146 863 115 865 q 141 976 144 920 q 132 1086 138 1031 q 179 1084 157 1084 q 222 1084 201 1084 q 264 1085 243 1084 q 309 1086 285 1086 q 297 976 301 1033 q 290 860 292 918 q 332 860 313 860 q 367 861 352 860 q 399 861 385 861 q 396 840 397 857 q 395 801 395 823 q 396 759 395 780 q 399 725 397 737 q 339 728 367 727 q 286 730 312 729 q 285 657 285 693 q 285 586 285 621 q 286 433 285 515 q 289 265 287 351 q 331 265 311 265 q 366 266 351 265 q 399 267 384 266 z "},"·":{"ha":227,"x_min":24,"x_max":203,"o":"m 203 498 q 196 464 203 480 q 177 436 189 448 q 149 417 165 424 q 114 410 132 410 q 79 417 95 410 q 50 436 62 424 q 31 464 38 448 q 24 498 24 480 q 31 534 24 517 q 50 562 38 550 q 79 582 62 574 q 114 589 95 589 q 149 582 132 589 q 177 562 165 574 q 196 534 189 550 q 203 498 203 517 z "},"‚":{"ha":207,"x_min":22,"x_max":183,"o":"m 183 54 q 178 9 183 29 q 164 -30 174 -12 q 142 -64 155 -47 q 111 -98 129 -81 l 61 -75 q 71 -62 66 -70 q 79 -46 75 -56 q 87 -25 84 -37 q 41 2 59 -20 q 22 54 22 24 q 29 85 22 71 q 46 111 35 100 q 72 129 57 122 q 103 135 86 135 q 134 129 119 135 q 159 111 149 122 q 177 85 170 100 q 183 54 183 71 z "},"„":{"ha":406,"x_min":22,"x_max":382,"o":"m 183 54 q 178 7 182 28 q 164 -31 173 -14 q 141 -65 155 -49 q 111 -98 128 -81 l 61 -75 q 71 -62 66 -70 q 79 -46 75 -56 q 87 -25 84 -37 q 41 2 59 -20 q 22 54 22 24 q 29 85 22 71 q 46 111 35 100 q 72 129 57 122 q 103 135 86 135 q 134 129 119 135 q 159 111 149 122 q 177 85 170 100 q 183 54 183 71 m 382 54 q 377 9 382 29 q 363 -30 372 -12 q 341 -64 354 -47 q 310 -98 328 -81 l 260 -75 q 269 -62 264 -70 q 278 -46 273 -56 q 286 -25 283 -37 q 239 2 258 -20 q 221 54 221 24 q 228 85 221 71 q 245 111 234 100 q 270 129 256 122 q 301 135 285 135 q 333 129 318 135 q 358 111 347 122 q 375 85 369 100 q 382 54 382 71 z "},"ˆ":{"ha":307,"x_min":0,"x_max":307,"o":"m 307 846 l 201 807 l 149 966 l 104 803 l 0 844 l 103 1072 l 212 1072 l 307 846 z "},"˜":{"ha":400,"x_min":0,"x_max":400,"o":"m 400 925 q 366 871 385 895 q 324 833 349 850 q 268 817 299 817 q 232 827 248 817 q 201 850 216 838 q 171 872 186 862 q 138 882 156 882 q 100 865 114 882 q 68 817 85 848 l 0 884 q 22 928 11 908 q 46 963 33 949 q 78 986 60 978 q 122 994 96 994 q 170 985 150 994 q 205 965 189 976 q 234 945 220 954 q 261 936 247 936 q 295 947 280 936 q 320 972 309 958 q 342 1008 332 988 l 400 925 z "},"¯":{"ha":318,"x_min":0,"x_max":318,"o":"m 318 957 l 318 831 l 0 836 q 2 882 1 859 q 2 921 3 901 q 0 957 2 941 q 39 956 16 956 q 86 955 61 956 q 139 955 112 955 q 192 956 166 956 q 318 957 252 956 z "},"˘":{"ha":301,"x_min":-1,"x_max":302,"o":"m 300 1017 q 297 938 302 978 q 273 865 291 898 q 224 811 255 832 q 146 790 193 790 q 72 808 102 790 q 26 858 43 826 q 4 931 9 889 q 4 1023 -1 974 l 110 1038 q 108 993 109 1016 q 112 952 108 970 q 125 921 115 933 q 153 909 134 909 q 177 919 168 909 q 193 945 187 928 q 201 985 199 962 q 203 1034 203 1007 q 234 1026 217 1029 q 266 1021 251 1023 q 300 1017 283 1018 z "},"˙":{"ha":144,"x_min":0,"x_max":144,"o":"m 144 878 q 139 850 144 863 q 123 828 133 838 q 100 812 113 818 q 72 807 87 807 q 44 812 58 807 q 21 828 31 818 q 6 850 12 838 q 0 878 0 863 q 6 906 0 892 q 21 929 12 920 q 44 944 31 939 q 72 950 58 950 q 100 944 87 950 q 123 929 113 939 q 139 906 133 920 q 144 878 144 892 z "},"˚":{"ha":261,"x_min":0,"x_max":261,"o":"m 179 932 q 164 967 179 953 q 129 981 150 981 q 96 967 111 981 q 81 932 81 953 q 96 899 81 913 q 129 885 111 885 q 164 899 150 885 q 179 932 179 913 m 261 932 q 251 883 261 906 q 222 842 240 859 q 180 814 204 825 q 131 804 157 804 q 81 814 104 804 q 39 842 57 825 q 11 883 21 859 q 0 932 0 906 q 11 983 0 959 q 39 1024 21 1006 q 81 1053 57 1042 q 131 1063 104 1063 q 180 1053 157 1063 q 222 1024 204 1042 q 251 983 240 1006 q 261 932 261 959 z "},"¸":{"ha":180,"x_min":0,"x_max":180,"o":"m 180 -144 q 173 -181 180 -165 q 153 -211 165 -198 q 122 -231 140 -223 q 86 -241 105 -239 q 50 -244 66 -245 q 22 -239 34 -243 q 0 -231 9 -236 l 0 -155 q 10 -161 3 -159 q 25 -166 17 -164 q 41 -169 33 -168 q 54 -170 50 -170 q 81 -164 70 -170 q 93 -139 93 -158 q 89 -124 93 -130 q 77 -114 84 -118 q 62 -109 71 -111 q 47 -107 54 -107 q 28 -108 38 -107 q 8 -113 18 -109 l 66 41 l 115 41 l 92 -56 q 127 -61 111 -55 q 156 -80 144 -68 q 174 -108 168 -92 q 180 -144 180 -125 z "},"˝":{"ha":403,"x_min":0,"x_max":403,"o":"m 92 1068 l 215 1011 l 64 790 l 0 823 l 92 1068 m 282 1068 l 403 997 l 212 790 l 149 838 l 282 1068 z "},"˛":{"ha":218,"x_min":0,"x_max":218,"o":"m 218 -176 q 157 -224 186 -208 q 92 -240 127 -240 q 54 -232 71 -240 q 25 -210 37 -224 q 7 -179 14 -197 q 0 -142 0 -161 q 4 -107 0 -127 q 21 -64 9 -87 q 56 -15 34 -41 q 113 39 78 12 l 160 21 q 140 -2 153 13 q 112 -37 126 -17 q 88 -79 98 -56 q 78 -123 78 -101 q 85 -141 78 -135 q 103 -147 92 -147 q 137 -134 123 -147 q 164 -106 151 -120 l 218 -176 z "},"ˇ":{"ha":307,"x_min":0,"x_max":307,"o":"m 307 1029 l 212 803 l 103 803 l 0 1031 l 104 1072 l 149 908 l 201 1068 l 307 1029 z "},"]":{"ha":339,"x_min":17,"x_max":290,"o":"m 17 1107 q 159 1106 93 1107 q 290 1101 225 1105 q 283 947 286 1029 q 278 780 280 864 q 276 613 277 695 q 275 458 275 530 q 276 320 275 392 q 278 175 276 248 q 282 31 279 102 q 290 -107 285 -41 q 254 -109 274 -108 q 212 -111 233 -110 q 167 -112 190 -111 q 123 -114 144 -113 q 20 -118 73 -116 l 17 21 q 65 20 40 20 q 126 20 91 20 q 131 121 129 65 q 133 235 132 177 q 135 349 134 293 q 135 452 135 406 q 135 529 135 486 q 134 620 134 572 q 133 716 134 667 q 131 812 132 765 q 129 903 130 860 q 126 982 127 947 l 17 979 l 17 1107 z "},"}":{"ha":357,"x_min":5,"x_max":346,"o":"m 22 1107 q 44 1109 33 1108 q 65 1109 55 1109 q 161 1094 120 1109 q 230 1047 203 1078 q 271 975 258 1017 q 285 879 285 932 q 279 815 285 849 q 268 749 274 782 q 256 687 261 717 q 250 636 250 657 q 257 595 250 614 q 275 562 263 576 q 305 539 288 547 q 346 530 323 530 l 346 385 l 335 385 q 295 377 313 385 q 265 356 277 370 q 245 324 252 342 q 239 285 239 306 q 246 228 239 260 q 262 161 254 195 q 279 95 271 127 q 286 37 286 62 q 266 -56 286 -17 q 211 -121 245 -95 q 134 -163 178 -148 q 45 -186 90 -179 l 18 -29 q 31 -31 24 -30 q 44 -32 37 -31 q 58 -32 51 -32 q 128 -11 104 -32 q 151 50 151 10 q 148 83 151 62 q 141 130 145 104 q 131 183 136 155 q 122 237 126 212 q 114 284 117 262 q 111 318 111 305 q 118 367 111 342 q 139 412 125 391 q 173 448 153 433 q 220 468 193 463 q 173 486 194 473 q 137 517 152 498 q 113 558 121 535 q 104 607 104 581 q 108 643 104 621 q 118 693 112 666 q 130 749 123 720 q 142 804 136 778 q 152 853 148 831 q 155 888 155 875 q 149 921 155 905 q 133 948 143 937 q 107 967 122 960 q 77 974 93 974 q 39 972 58 974 q 5 962 21 971 l 22 1107 z "},"§":{"ha":435,"x_min":25,"x_max":410,"o":"m 399 435 q 386 334 399 376 q 353 264 372 293 q 386 180 372 226 q 399 74 399 134 q 388 -20 399 20 q 358 -89 376 -60 q 318 -137 340 -118 q 272 -166 296 -155 q 228 -181 249 -177 q 191 -186 206 -186 q 168 -185 182 -186 q 136 -180 154 -184 q 95 -171 117 -177 q 49 -153 73 -164 l 56 18 q 127 -27 96 -16 q 180 -39 159 -39 q 244 -8 222 -39 q 265 71 265 22 q 250 143 265 103 q 193 231 234 184 q 135 298 165 263 q 81 374 105 334 q 41 460 56 414 q 25 559 25 506 q 40 660 25 615 q 78 739 54 705 q 40 823 55 779 q 25 921 25 868 q 44 1038 25 989 q 94 1120 62 1088 q 166 1169 125 1153 q 250 1185 206 1185 q 329 1174 289 1185 q 410 1141 369 1163 l 397 971 q 360 1007 380 994 q 323 1027 341 1020 q 289 1036 304 1034 q 264 1038 274 1038 q 228 1028 244 1038 q 199 1001 211 1018 q 180 962 187 985 q 174 914 174 939 q 190 844 174 876 q 232 782 207 812 q 286 720 257 752 q 340 647 315 688 q 382 555 366 607 q 399 435 399 503 m 180 604 q 175 578 177 591 q 174 551 174 565 q 181 506 174 528 q 199 465 188 485 q 227 427 211 446 q 260 389 242 408 q 263 409 262 398 q 265 432 265 419 q 250 505 265 465 q 193 591 234 545 l 180 604 z "},"−":{"ha":456,"x_min":41,"x_max":414,"o":"m 414 529 l 414 404 l 41 403 l 41 539 l 414 529 z "},"\\":{"ha":578,"x_min":16,"x_max":566,"o":"m 163 1008 q 315 591 241 789 q 381 419 347 507 q 448 251 415 332 q 511 101 481 170 q 566 -16 541 32 l 550 -16 q 499 -18 526 -16 q 451 -22 473 -20 q 401 -29 425 -25 q 361 100 386 26 q 306 257 336 174 q 243 426 276 339 q 178 595 210 513 q 16 996 102 787 l 163 1008 z "},">":{"ha":383,"x_min":31,"x_max":355,"o":"m 31 383 l 250 488 l 31 602 l 89 726 l 355 547 l 355 412 l 79 254 l 31 383 z "},"¡":{"ha":232,"x_min":31,"x_max":200,"o":"m 31 -229 q 60 150 50 -41 q 74 526 71 341 l 164 529 q 176 151 168 342 q 195 -228 184 -41 l 31 -229 m 43 697 q 49 728 43 713 q 66 752 56 742 q 92 769 77 763 q 122 775 106 775 q 153 769 138 775 q 177 752 167 763 q 194 728 188 742 q 200 697 200 713 q 194 667 200 681 q 177 642 188 653 q 153 625 167 631 q 122 619 138 619 q 92 625 106 619 q 66 642 77 631 q 49 667 56 653 q 43 697 43 681 z "},"¿":{"ha":428,"x_min":18,"x_max":410,"o":"m 18 7 q 31 116 18 70 q 65 200 44 162 q 111 272 85 238 q 161 345 136 306 q 208 431 186 383 q 243 543 230 478 l 335 543 l 335 524 q 327 444 335 481 q 308 378 318 406 q 281 318 296 345 q 237 252 260 283 q 193 187 213 220 q 159 118 173 154 q 146 39 146 81 q 154 -25 146 1 q 176 -67 162 -51 q 207 -91 189 -83 q 244 -98 224 -98 q 281 -93 262 -98 q 318 -79 300 -88 q 353 -58 336 -70 q 382 -32 369 -46 l 410 -139 q 344 -189 377 -171 q 284 -215 311 -206 q 240 -225 258 -223 q 218 -227 222 -227 q 141 -210 178 -227 q 78 -163 105 -194 q 34 -90 50 -133 q 18 7 18 -47 m 201 707 q 208 737 201 723 q 224 762 214 751 q 249 779 235 772 q 279 785 263 785 q 310 779 296 785 q 335 762 324 772 q 352 737 345 751 q 358 707 358 723 q 352 676 358 690 q 335 652 345 663 q 310 635 324 642 q 279 629 296 629 q 249 635 263 629 q 224 652 235 642 q 208 676 214 663 q 201 707 201 690 z "},"=":{"ha":456,"x_min":41,"x_max":414,"o":"m 414 418 l 414 293 l 41 292 l 41 428 l 414 418 m 414 640 l 414 515 l 41 515 l 41 650 l 414 640 z "},"þ":{"ha":498,"x_min":46,"x_max":473,"o":"m 275 750 q 352 728 319 750 q 406 669 384 705 q 441 586 428 633 q 461 490 454 539 q 471 394 469 441 q 473 310 473 347 q 460 163 473 225 q 423 60 446 101 q 369 0 399 20 q 304 -20 338 -20 q 263 -10 284 -18 q 224 11 245 -3 q 184 52 203 25 l 199 -228 l 46 -228 l 46 1000 l 176 1000 l 176 671 q 195 701 184 686 q 218 726 205 715 q 244 744 230 737 q 275 750 258 750 m 328 310 q 327 365 328 333 q 323 430 326 396 q 315 497 320 464 q 300 556 309 530 q 278 599 291 583 q 245 615 264 615 q 214 598 227 615 q 192 553 200 582 q 179 487 183 525 q 175 408 175 450 q 175 362 175 389 q 178 304 176 334 q 185 243 180 273 q 199 188 190 212 q 223 149 208 164 q 258 134 237 134 q 295 149 281 134 q 316 188 309 163 q 326 245 323 213 q 328 310 328 277 z "},"∆":{"ha":518,"x_min":17,"x_max":501,"o":"m 17 3 q 92 486 58 245 q 150 971 126 726 l 354 968 q 416 487 380 726 q 501 5 452 248 l 17 3 m 253 783 q 221 468 235 627 q 195 155 206 309 l 319 147 l 253 783 z "},"×":{"ha":424,"x_min":33,"x_max":392,"o":"m 297 292 q 256 342 277 317 q 214 390 235 367 q 170 341 192 366 q 129 292 149 317 l 33 387 q 84 428 59 407 q 134 469 110 448 q 84 513 110 491 q 33 554 59 534 l 129 650 q 170 596 149 623 q 212 545 191 570 q 258 593 236 568 q 302 643 281 618 l 392 555 q 338 511 364 534 q 289 465 313 488 q 336 422 312 444 q 385 380 359 400 l 297 292 z "},"±":{"ha":458,"x_min":43,"x_max":415,"o":"m 288 285 l 163 285 l 163 403 l 43 403 l 43 539 l 161 536 l 161 657 l 297 657 l 293 532 l 415 529 l 415 404 l 290 404 l 288 285 m 415 189 l 415 64 l 43 62 l 43 199 l 415 189 z "},"Ð":{"ha":517,"x_min":1,"x_max":489,"o":"m 489 461 q 474 280 489 356 q 433 150 458 203 q 377 63 408 96 q 313 12 345 30 q 250 -13 280 -7 q 196 -20 219 -20 l 57 -8 q 67 189 63 90 q 74 389 71 288 l 1 389 l 1 525 l 75 522 q 73 751 75 637 q 64 978 70 865 q 152 980 113 983 q 219 973 191 978 q 275 960 252 968 q 318 940 295 951 q 366 909 342 929 q 412 855 389 888 q 451 768 434 821 q 478 640 468 715 q 489 461 489 565 m 290 390 l 205 390 q 204 247 204 318 q 207 100 205 176 q 261 124 239 104 q 300 175 284 144 q 326 245 316 206 q 341 325 336 283 q 348 406 347 366 q 350 479 350 446 q 349 550 350 513 q 343 625 347 588 q 330 698 338 663 q 307 763 321 733 q 272 813 293 792 q 222 843 252 834 q 214 677 217 757 q 208 518 210 597 l 290 515 l 290 390 z "},"Š":{"ha":418,"x_min":16,"x_max":400,"o":"m 389 240 q 377 146 389 186 q 348 77 366 106 q 308 30 330 48 q 262 0 286 11 q 217 -15 239 -11 q 180 -20 196 -20 q 158 -19 172 -20 q 125 -14 144 -18 q 85 -4 107 -11 q 39 14 63 2 l 46 184 q 118 139 86 151 q 171 127 149 127 q 234 158 213 127 q 256 237 256 189 q 240 310 256 270 q 183 397 224 351 q 125 465 155 430 q 71 541 96 500 q 31 627 47 581 q 16 726 16 673 q 34 844 16 794 q 84 926 53 893 q 156 974 115 958 q 240 990 196 990 q 319 980 279 990 q 400 947 359 969 l 387 777 q 350 812 370 799 q 313 832 331 825 q 280 841 295 839 q 254 843 264 843 q 218 833 235 843 q 190 807 201 823 q 171 767 178 790 q 164 720 164 745 q 181 650 164 681 q 222 588 197 618 q 276 525 248 557 q 330 453 305 493 q 372 360 355 412 q 389 240 389 309 m 361 1251 l 267 1024 l 157 1024 l 54 1252 l 159 1293 l 203 1129 l 256 1289 l 361 1251 z "},"š":{"ha":382,"x_min":25,"x_max":358,"o":"m 358 203 q 338 102 358 142 q 288 37 318 62 q 222 2 258 13 q 154 -8 186 -8 q 108 -3 130 -7 q 66 10 88 1 q 26 35 44 18 l 32 189 q 81 159 56 170 q 127 142 106 148 q 175 135 152 136 q 204 164 194 145 q 215 205 215 182 q 206 247 215 225 q 178 289 197 269 q 133 335 159 308 q 82 395 106 361 q 42 471 58 429 q 25 561 25 512 q 38 649 25 609 q 76 717 52 688 q 133 761 100 745 q 207 777 167 777 q 277 767 239 777 q 358 736 315 757 l 347 578 q 310 603 330 593 q 273 618 290 613 q 235 627 254 625 q 191 600 209 622 q 172 543 172 578 q 185 487 172 511 q 219 441 199 463 q 262 398 239 420 q 307 350 286 377 q 342 288 328 323 q 358 203 357 252 m 346 1045 l 251 819 l 142 819 l 39 1046 l 143 1088 l 187 924 l 240 1084 l 346 1045 z "},"Ý":{"ha":484,"x_min":5,"x_max":493,"o":"m 493 972 q 392 625 439 800 q 302 286 345 450 l 302 244 q 303 180 302 210 q 306 120 304 150 q 310 60 307 91 q 315 -5 312 29 l 153 -5 q 162 73 158 37 q 169 144 166 109 q 172 217 171 180 q 174 298 174 254 q 134 460 155 376 q 92 629 113 545 q 48 798 70 714 q 5 960 26 882 l 175 974 q 184 856 178 918 q 199 730 191 794 q 219 600 208 665 q 241 471 230 534 q 267 602 254 535 q 290 734 279 669 q 310 861 301 799 q 326 977 319 922 l 493 972 m 343 1258 q 379 1231 360 1246 q 415 1204 399 1217 q 452 1173 434 1189 l 273 981 l 210 1027 l 343 1258 z "},"ý":{"ha":505,"x_min":31,"x_max":465,"o":"m 452 703 q 461 408 458 556 q 465 106 465 260 q 457 -58 465 8 q 425 -164 449 -123 q 355 -221 400 -204 q 235 -239 309 -239 q 147 -235 197 -239 q 35 -224 98 -232 l 40 -75 q 128 -81 90 -79 q 193 -84 167 -83 q 245 -86 223 -86 q 273 -82 262 -86 q 292 -69 285 -79 q 302 -41 299 -59 q 306 4 306 -24 q 306 22 306 13 q 304 43 306 31 q 280 17 294 26 q 252 2 266 7 q 226 -5 239 -3 q 205 -7 214 -7 q 117 16 151 -7 q 64 77 83 38 q 39 167 45 115 q 32 278 32 219 q 32 314 32 304 q 31 325 31 323 q 31 327 31 327 q 31 333 31 326 q 33 360 32 340 q 37 422 35 380 q 44 533 40 464 q 53 708 47 602 l 210 694 q 207 668 212 694 q 197 594 203 642 q 186 479 191 547 q 180 330 180 412 q 185 247 180 281 q 199 191 191 213 q 221 160 208 170 q 249 150 233 150 q 294 192 276 150 q 311 328 311 235 q 311 341 311 334 q 310 365 311 349 q 309 404 310 380 q 305 469 307 429 q 299 567 302 509 q 292 707 296 625 l 452 703 m 332 1023 q 369 996 349 1010 q 404 968 388 981 q 441 938 423 954 l 262 745 l 199 792 l 332 1023 z "},"Ž":{"ha":407,"x_min":-1,"x_max":401,"o":"m 401 974 q 289 562 340 767 q 200 150 237 357 q 217 149 208 149 q 235 150 225 150 q 307 152 271 150 q 379 157 342 153 l 382 -1 q 240 9 311 6 q 96 12 170 12 q 47 12 72 12 q -1 11 22 12 q 127 418 68 212 q 229 842 186 625 q 135 835 182 840 q 39 823 88 830 l 35 972 q 118 969 77 970 q 201 968 159 968 q 401 974 302 968 m 367 1242 l 272 1015 l 163 1015 l 60 1243 l 164 1284 l 208 1120 l 261 1280 l 367 1242 z "},"ž":{"ha":392,"x_min":9,"x_max":380,"o":"m 380 717 l 193 134 l 370 138 l 370 -5 l 9 -11 l 203 587 l 25 581 l 21 717 l 380 717 m 349 996 l 254 769 l 144 769 l 41 997 l 146 1038 l 190 874 l 243 1034 l 349 996 z "},"À":{"ha":489,"x_min":5,"x_max":490,"o":"m 322 -5 q 316 89 319 41 q 309 184 313 136 q 251 189 279 186 q 195 191 223 191 l 186 191 q 180 94 182 142 q 175 0 177 47 l 5 3 q 81 486 47 245 q 139 971 115 726 l 343 968 q 405 487 369 726 q 490 5 441 248 l 322 -5 m 243 800 q 217 551 229 675 q 195 301 205 427 q 224 300 209 300 q 254 300 239 300 l 298 300 q 273 550 287 426 q 243 800 258 674 m 258 1055 l 195 1008 l 16 1201 q 53 1232 34 1217 q 89 1259 69 1244 q 125 1286 108 1274 l 258 1055 z "},"Ã":{"ha":489,"x_min":5,"x_max":490,"o":"m 322 -5 q 316 89 319 41 q 309 184 313 136 q 251 189 279 186 q 195 191 223 191 l 186 191 q 180 94 182 142 q 175 0 177 47 l 5 3 q 81 486 47 245 q 139 971 115 726 l 343 968 q 405 487 369 726 q 490 5 441 248 l 322 -5 m 243 800 q 217 551 229 675 q 195 301 205 427 q 224 300 209 300 q 254 300 239 300 l 298 300 q 273 550 287 426 q 243 800 258 674 m 448 1117 q 413 1063 433 1086 q 371 1025 396 1042 q 315 1008 347 1008 q 279 1019 295 1009 q 249 1042 263 1029 q 219 1064 234 1054 q 185 1074 203 1074 q 147 1057 161 1074 q 115 1008 133 1040 l 47 1076 q 69 1120 58 1100 q 94 1155 80 1141 q 126 1178 108 1170 q 170 1186 144 1186 q 217 1177 197 1186 q 252 1157 237 1168 q 281 1137 268 1146 q 309 1128 294 1128 q 342 1139 328 1128 q 368 1164 357 1150 q 389 1200 380 1180 l 448 1117 z "},"Õ":{"ha":532,"x_min":28,"x_max":504,"o":"m 504 475 q 485 243 504 338 q 435 89 467 149 q 359 3 403 30 q 267 -24 316 -24 q 174 2 217 -24 q 98 85 130 27 q 46 239 65 144 q 28 475 28 335 q 46 713 28 615 q 98 872 65 811 q 174 961 130 934 q 267 989 217 989 q 359 962 316 989 q 435 874 403 935 q 485 715 467 813 q 504 475 504 617 m 353 475 q 346 654 353 581 q 327 773 339 728 q 300 840 315 819 q 267 860 284 860 q 232 839 248 860 q 204 773 216 819 q 186 653 193 727 q 179 475 179 580 q 186 299 179 370 q 204 185 193 229 q 232 124 216 142 q 267 106 248 106 q 300 125 284 106 q 327 188 315 144 q 346 302 339 232 q 353 475 353 373 m 465 1125 q 431 1071 450 1095 q 389 1034 414 1050 q 333 1017 364 1017 q 297 1027 313 1017 q 266 1050 281 1038 q 236 1072 252 1062 q 203 1082 221 1082 q 165 1065 179 1082 q 133 1017 151 1048 l 65 1084 q 87 1128 76 1108 q 112 1163 98 1149 q 143 1186 125 1178 q 187 1194 161 1194 q 235 1185 215 1194 q 270 1165 254 1176 q 299 1145 286 1154 q 326 1136 312 1136 q 360 1147 345 1136 q 385 1172 374 1158 q 407 1208 397 1188 l 465 1125 z "},"ÿ":{"ha":505,"x_min":31,"x_max":465,"o":"m 452 703 q 461 408 458 556 q 465 106 465 260 q 457 -58 465 8 q 425 -164 449 -123 q 355 -221 400 -204 q 235 -239 309 -239 q 147 -235 197 -239 q 35 -224 98 -232 l 40 -75 q 128 -81 90 -79 q 193 -84 167 -83 q 245 -86 223 -86 q 273 -82 262 -86 q 292 -69 285 -79 q 302 -41 299 -59 q 306 4 306 -24 q 306 22 306 13 q 304 43 306 31 q 280 17 294 26 q 252 2 266 7 q 226 -5 239 -3 q 205 -7 214 -7 q 117 16 151 -7 q 64 77 83 38 q 39 167 45 115 q 32 278 32 219 q 32 314 32 304 q 31 325 31 323 q 31 327 31 327 q 31 333 31 326 q 33 360 32 340 q 37 422 35 380 q 44 533 40 464 q 53 708 47 602 l 210 694 q 207 668 212 694 q 197 594 203 642 q 186 479 191 547 q 180 330 180 412 q 185 247 180 281 q 199 191 191 213 q 221 160 208 170 q 249 150 233 150 q 294 192 276 150 q 311 328 311 235 q 311 341 311 334 q 310 365 311 349 q 309 404 310 380 q 305 469 307 429 q 299 567 302 509 q 292 707 296 625 l 452 703 m 229 833 q 223 806 229 819 q 208 784 218 793 q 185 768 198 774 q 157 763 172 763 q 129 768 142 763 q 106 784 116 774 q 91 806 96 793 q 85 833 85 819 q 91 862 85 848 q 106 885 96 876 q 129 900 116 895 q 157 906 142 906 q 185 900 172 906 q 208 885 198 895 q 223 862 218 876 q 229 833 229 848 m 412 833 q 407 806 412 819 q 391 784 401 793 q 368 768 381 774 q 340 763 355 763 q 312 768 326 763 q 289 784 299 774 q 274 806 279 793 q 268 833 268 819 q 274 862 268 848 q 289 885 279 876 q 312 900 299 895 q 340 906 326 906 q 368 900 355 906 q 391 885 381 895 q 407 862 401 876 q 412 833 412 848 z "},"Ÿ":{"ha":484,"x_min":5,"x_max":493,"o":"m 493 972 q 392 625 439 800 q 302 286 345 450 l 302 244 q 303 180 302 210 q 306 120 304 150 q 310 60 307 91 q 315 -5 312 29 l 153 -5 q 162 73 158 37 q 169 144 166 109 q 172 217 171 180 q 174 298 174 254 q 134 460 155 376 q 92 629 113 545 q 48 798 70 714 q 5 960 26 882 l 175 974 q 184 856 178 918 q 199 730 191 794 q 219 600 208 665 q 241 471 230 534 q 267 602 254 535 q 290 734 279 669 q 310 861 301 799 q 326 977 319 922 l 493 972 m 229 1083 q 223 1056 229 1069 q 208 1033 218 1043 q 185 1018 198 1023 q 157 1013 172 1013 q 129 1018 142 1013 q 106 1033 116 1023 q 91 1056 96 1043 q 85 1083 85 1069 q 91 1112 85 1098 q 106 1135 96 1125 q 129 1150 116 1144 q 157 1156 142 1156 q 185 1150 172 1156 q 208 1135 198 1144 q 223 1112 218 1125 q 229 1083 229 1098 m 412 1083 q 407 1056 412 1069 q 391 1033 401 1043 q 368 1018 381 1023 q 340 1013 355 1013 q 312 1018 326 1013 q 289 1033 299 1023 q 274 1056 279 1043 q 268 1083 268 1069 q 274 1112 268 1098 q 289 1135 279 1125 q 312 1150 299 1144 q 340 1156 326 1156 q 368 1150 355 1156 q 391 1135 381 1144 q 407 1112 401 1125 q 412 1083 412 1098 z "},"Â":{"ha":489,"x_min":5,"x_max":490,"o":"m 322 -5 q 316 89 319 41 q 309 184 313 136 q 251 189 279 186 q 195 191 223 191 l 186 191 q 180 94 182 142 q 175 0 177 47 l 5 3 q 81 486 47 245 q 139 971 115 726 l 343 968 q 405 487 369 726 q 490 5 441 248 l 322 -5 m 243 800 q 217 551 229 675 q 195 301 205 427 q 224 300 209 300 q 254 300 239 300 l 298 300 q 273 550 287 426 q 243 800 258 674 m 401 1044 l 296 1006 l 243 1165 l 199 1002 l 94 1043 l 197 1271 l 307 1271 l 401 1044 z "},"Ê":{"ha":416,"x_min":45,"x_max":400,"o":"m 321 363 q 278 365 300 364 q 235 366 256 366 q 209 365 222 366 q 183 364 196 364 l 180 122 q 289 127 236 123 q 400 140 341 132 l 400 -1 q 327 1 362 0 q 256 1 291 1 q 151 0 203 1 q 45 -5 100 -2 q 55 244 51 121 q 58 494 58 368 q 55 734 58 615 q 45 974 52 853 q 197 968 125 968 q 289 970 243 968 q 387 977 335 972 l 387 821 q 304 832 345 828 q 222 836 263 836 l 196 836 q 187 667 189 751 q 183 498 184 583 q 219 497 201 497 q 256 497 237 497 q 288 497 271 497 q 321 498 304 497 l 321 363 m 375 1044 l 269 1006 l 216 1165 l 172 1002 l 68 1043 l 171 1271 l 280 1271 l 375 1044 z "},"Á":{"ha":489,"x_min":5,"x_max":490,"o":"m 322 -5 q 316 89 319 41 q 309 184 313 136 q 251 189 279 186 q 195 191 223 191 l 186 191 q 180 94 182 142 q 175 0 177 47 l 5 3 q 81 486 47 245 q 139 971 115 726 l 343 968 q 405 487 369 726 q 490 5 441 248 l 322 -5 m 243 800 q 217 551 229 675 q 195 301 205 427 q 224 300 209 300 q 254 300 239 300 l 298 300 q 273 550 287 426 q 243 800 258 674 m 342 1286 q 378 1259 359 1274 q 414 1232 397 1244 q 451 1201 433 1217 l 272 1008 l 208 1055 l 342 1286 z "},"Ë":{"ha":416,"x_min":45,"x_max":400,"o":"m 321 363 q 278 365 300 364 q 235 366 256 366 q 209 365 222 366 q 183 364 196 364 l 180 122 q 289 127 236 123 q 400 140 341 132 l 400 -1 q 327 1 362 0 q 256 1 291 1 q 151 0 203 1 q 45 -5 100 -2 q 55 244 51 121 q 58 494 58 368 q 55 734 58 615 q 45 974 52 853 q 197 968 125 968 q 289 970 243 968 q 387 977 335 972 l 387 821 q 304 832 345 828 q 222 836 263 836 l 196 836 q 187 667 189 751 q 183 498 184 583 q 219 497 201 497 q 256 497 237 497 q 288 497 271 497 q 321 498 304 497 l 321 363 m 203 1079 q 197 1052 203 1065 q 181 1029 191 1039 q 158 1014 172 1019 q 130 1008 145 1008 q 103 1014 116 1008 q 80 1029 90 1019 q 64 1052 70 1039 q 58 1079 58 1065 q 64 1107 58 1094 q 80 1131 70 1121 q 103 1146 90 1140 q 130 1152 116 1152 q 158 1146 145 1152 q 181 1131 172 1140 q 197 1107 191 1121 q 203 1079 203 1094 m 386 1079 q 380 1052 386 1065 q 365 1029 374 1039 q 341 1014 355 1019 q 314 1008 328 1008 q 286 1014 299 1008 q 263 1029 273 1019 q 247 1052 253 1039 q 241 1079 241 1065 q 247 1107 241 1094 q 263 1131 253 1121 q 286 1146 273 1140 q 314 1152 299 1152 q 341 1146 328 1152 q 365 1131 355 1140 q 380 1107 374 1121 q 386 1079 386 1094 z "},"È":{"ha":416,"x_min":0,"x_max":400,"o":"m 321 363 q 278 365 300 364 q 235 366 256 366 q 209 365 222 366 q 183 364 196 364 l 180 122 q 289 127 236 123 q 400 140 341 132 l 400 -1 q 327 1 362 0 q 256 1 291 1 q 151 0 203 1 q 45 -5 100 -2 q 55 244 51 121 q 58 494 58 368 q 55 734 58 615 q 45 974 52 853 q 197 968 125 968 q 289 970 243 968 q 387 977 335 972 l 387 821 q 304 832 345 828 q 222 836 263 836 l 196 836 q 187 667 189 751 q 183 498 184 583 q 219 497 201 497 q 256 497 237 497 q 288 497 271 497 q 321 498 304 497 l 321 363 m 243 1054 l 179 1007 l 0 1200 q 37 1230 18 1215 q 73 1258 54 1243 q 110 1284 92 1272 l 243 1054 z "},"Í":{"ha":338,"x_min":22,"x_max":394,"o":"m 314 9 q 260 12 287 11 q 205 12 233 12 q 116 11 161 12 q 26 5 71 9 l 28 151 q 59 148 43 149 q 90 146 75 147 q 98 355 94 251 q 102 564 102 459 q 100 702 102 633 q 96 839 98 770 q 60 838 78 839 q 22 836 41 838 l 24 978 q 128 973 76 975 q 233 971 180 971 q 271 971 252 971 q 310 972 290 971 l 306 838 q 275 838 290 838 q 244 839 260 839 q 231 596 235 717 q 227 354 227 476 q 231 142 227 248 q 275 142 252 142 q 321 144 298 143 l 314 9 m 285 1276 q 321 1250 302 1264 q 357 1222 340 1235 q 394 1192 376 1207 l 215 999 l 151 1046 l 285 1276 z "},"Î":{"ha":338,"x_min":18,"x_max":326,"o":"m 314 9 q 260 12 287 11 q 205 12 233 12 q 116 11 161 12 q 26 5 71 9 l 28 151 q 59 148 43 149 q 90 146 75 147 q 98 355 94 251 q 102 564 102 459 q 100 702 102 633 q 96 839 98 770 q 60 838 78 839 q 22 836 41 838 l 24 978 q 128 973 76 975 q 233 971 180 971 q 271 971 252 971 q 310 972 290 971 l 306 838 q 275 838 290 838 q 244 839 260 839 q 231 596 235 717 q 227 354 227 476 q 231 142 227 248 q 275 142 252 142 q 321 144 298 143 l 314 9 m 326 1051 l 220 1013 l 167 1172 l 123 1008 l 18 1050 l 121 1278 l 231 1278 l 326 1051 z "},"Ï":{"ha":338,"x_min":8,"x_max":336,"o":"m 314 9 q 260 12 287 11 q 205 12 233 12 q 116 11 161 12 q 26 5 71 9 l 28 151 q 59 148 43 149 q 90 146 75 147 q 98 355 94 251 q 102 564 102 459 q 100 702 102 633 q 96 839 98 770 q 60 838 78 839 q 22 836 41 838 l 24 978 q 128 973 76 975 q 233 971 180 971 q 271 971 252 971 q 310 972 290 971 l 306 838 q 275 838 290 838 q 244 839 260 839 q 231 596 235 717 q 227 354 227 476 q 231 142 227 248 q 275 142 252 142 q 321 144 298 143 l 314 9 m 153 1090 q 147 1063 153 1076 q 131 1040 141 1050 q 108 1025 121 1030 q 80 1019 95 1019 q 53 1025 66 1019 q 30 1040 39 1030 q 14 1063 20 1050 q 8 1090 8 1076 q 14 1118 8 1105 q 30 1141 20 1132 q 53 1157 39 1151 q 80 1162 66 1162 q 108 1157 95 1162 q 131 1141 121 1151 q 147 1118 141 1132 q 153 1090 153 1105 m 336 1090 q 330 1063 336 1076 q 314 1040 324 1050 q 291 1025 304 1030 q 264 1019 278 1019 q 236 1025 249 1019 q 213 1040 222 1030 q 197 1063 203 1050 q 191 1090 191 1076 q 197 1118 191 1105 q 213 1141 203 1132 q 236 1157 222 1151 q 264 1162 249 1162 q 291 1157 278 1162 q 314 1141 304 1151 q 330 1118 324 1132 q 336 1090 336 1105 z "},"Ì":{"ha":338,"x_min":-51,"x_max":321,"o":"m 314 9 q 260 12 287 11 q 205 12 233 12 q 116 11 161 12 q 26 5 71 9 l 28 151 q 59 148 43 149 q 90 146 75 147 q 98 355 94 251 q 102 564 102 459 q 100 702 102 633 q 96 839 98 770 q 60 838 78 839 q 22 836 41 838 l 24 978 q 128 973 76 975 q 233 971 180 971 q 271 971 252 971 q 310 972 290 971 l 306 838 q 275 838 290 838 q 244 839 260 839 q 231 596 235 717 q 227 354 227 476 q 231 142 227 248 q 275 142 252 142 q 321 144 298 143 l 314 9 m 192 1054 l 128 1007 l -51 1200 q -14 1230 -33 1215 q 22 1258 3 1243 q 59 1284 41 1272 l 192 1054 z "},"Ó":{"ha":532,"x_min":28,"x_max":504,"o":"m 504 475 q 485 243 504 338 q 435 89 467 149 q 359 3 403 30 q 267 -24 316 -24 q 174 2 217 -24 q 98 85 130 27 q 46 239 65 144 q 28 475 28 335 q 46 713 28 615 q 98 872 65 811 q 174 961 130 934 q 267 989 217 989 q 359 962 316 989 q 435 874 403 935 q 485 715 467 813 q 504 475 504 617 m 353 475 q 346 654 353 581 q 327 773 339 728 q 300 840 315 819 q 267 860 284 860 q 232 839 248 860 q 204 773 216 819 q 186 653 193 727 q 179 475 179 580 q 186 299 179 370 q 204 185 193 229 q 232 124 216 142 q 267 106 248 106 q 300 125 284 106 q 327 188 315 144 q 346 302 339 232 q 353 475 353 373 m 389 1300 q 426 1273 406 1288 q 461 1246 445 1259 q 498 1215 480 1231 l 319 1023 l 256 1069 l 389 1300 z "},"Ô":{"ha":532,"x_min":28,"x_max":504,"o":"m 504 475 q 485 243 504 338 q 435 89 467 149 q 359 3 403 30 q 267 -24 316 -24 q 174 2 217 -24 q 98 85 130 27 q 46 239 65 144 q 28 475 28 335 q 46 713 28 615 q 98 872 65 811 q 174 961 130 934 q 267 989 217 989 q 359 962 316 989 q 435 874 403 935 q 485 715 467 813 q 504 475 504 617 m 353 475 q 346 654 353 581 q 327 773 339 728 q 300 840 315 819 q 267 860 284 860 q 232 839 248 860 q 204 773 216 819 q 186 653 193 727 q 179 475 179 580 q 186 299 179 370 q 204 185 193 229 q 232 124 216 142 q 267 106 248 106 q 300 125 284 106 q 327 188 315 144 q 346 302 339 232 q 353 475 353 373 m 420 1062 l 314 1023 l 261 1183 l 217 1019 l 113 1061 l 216 1289 l 325 1289 l 420 1062 z "},"Ò":{"ha":532,"x_min":28,"x_max":504,"o":"m 504 475 q 485 243 504 338 q 435 89 467 149 q 359 3 403 30 q 267 -24 316 -24 q 174 2 217 -24 q 98 85 130 27 q 46 239 65 144 q 28 475 28 335 q 46 713 28 615 q 98 872 65 811 q 174 961 130 934 q 267 989 217 989 q 359 962 316 989 q 435 874 403 935 q 485 715 467 813 q 504 475 504 617 m 353 475 q 346 654 353 581 q 327 773 339 728 q 300 840 315 819 q 267 860 284 860 q 232 839 248 860 q 204 773 216 819 q 186 653 193 727 q 179 475 179 580 q 186 299 179 370 q 204 185 193 229 q 232 124 216 142 q 267 106 248 106 q 300 125 284 106 q 327 188 315 144 q 346 302 339 232 q 353 475 353 373 m 276 1062 l 212 1015 l 33 1208 q 71 1238 52 1223 q 106 1266 87 1251 q 143 1293 125 1280 l 276 1062 z "},"Ú":{"ha":503,"x_min":31,"x_max":461,"o":"m 432 982 q 454 702 448 844 q 460 407 460 561 q 455 303 460 355 q 440 206 451 252 q 413 120 430 159 q 370 51 395 80 q 309 6 344 22 q 228 -11 273 -11 q 157 4 187 -11 q 104 46 126 20 q 68 110 83 73 q 45 188 54 146 q 34 277 37 231 q 31 370 31 323 q 42 655 31 511 q 69 956 54 800 l 211 953 q 188 659 199 807 q 178 353 178 510 q 180 267 178 307 q 190 195 183 226 q 207 146 197 164 q 233 127 218 127 q 267 156 252 127 q 293 232 282 185 q 309 340 303 279 q 315 463 315 400 q 314 583 315 522 q 311 705 313 643 q 306 832 309 767 q 297 966 302 897 l 432 982 m 352 1286 q 388 1259 369 1274 q 424 1232 408 1244 q 461 1201 443 1217 l 282 1008 l 218 1055 l 352 1286 z "},"Û":{"ha":503,"x_min":31,"x_max":460,"o":"m 432 982 q 454 702 448 844 q 460 407 460 561 q 455 303 460 355 q 440 206 451 252 q 413 120 430 159 q 370 51 395 80 q 309 6 344 22 q 228 -11 273 -11 q 157 4 187 -11 q 104 46 126 20 q 68 110 83 73 q 45 188 54 146 q 34 277 37 231 q 31 370 31 323 q 42 655 31 511 q 69 956 54 800 l 211 953 q 188 659 199 807 q 178 353 178 510 q 180 267 178 307 q 190 195 183 226 q 207 146 197 164 q 233 127 218 127 q 267 156 252 127 q 293 232 282 185 q 309 340 303 279 q 315 463 315 400 q 314 583 315 522 q 311 705 313 643 q 306 832 309 767 q 297 966 302 897 l 432 982 m 399 1048 l 293 1010 l 240 1169 l 196 1006 l 92 1047 l 195 1275 l 304 1275 l 399 1048 z "},"Ù":{"ha":503,"x_min":31,"x_max":460,"o":"m 432 982 q 454 702 448 844 q 460 407 460 561 q 455 303 460 355 q 440 206 451 252 q 413 120 430 159 q 370 51 395 80 q 309 6 344 22 q 228 -11 273 -11 q 157 4 187 -11 q 104 46 126 20 q 68 110 83 73 q 45 188 54 146 q 34 277 37 231 q 31 370 31 323 q 42 655 31 511 q 69 956 54 800 l 211 953 q 188 659 199 807 q 178 353 178 510 q 180 267 178 307 q 190 195 183 226 q 207 146 197 164 q 233 127 218 127 q 267 156 252 127 q 293 232 282 185 q 309 340 303 279 q 315 463 315 400 q 314 583 315 522 q 311 705 313 643 q 306 832 309 767 q 297 966 302 897 l 432 982 m 292 1047 l 228 1000 l 49 1193 q 86 1223 67 1208 q 122 1251 102 1236 q 159 1278 141 1265 l 292 1047 z "},"ı":{"ha":243,"x_min":32,"x_max":208,"o":"m 208 704 q 199 586 202 650 q 194 455 195 522 q 193 322 193 388 q 195 200 193 257 q 200 100 197 144 q 207 35 203 57 q 151 33 180 35 q 94 30 125 32 q 32 24 63 28 q 51 319 47 192 q 50 534 54 446 q 37 710 47 635 q 107 704 76 705 q 161 703 138 703 q 208 704 187 703 z "},"Ø":{"ha":532,"x_min":28,"x_max":510,"o":"m 510 1002 q 494 955 503 981 q 476 902 486 933 q 453 835 465 871 q 490 684 477 773 q 504 475 504 595 q 485 243 504 338 q 435 89 467 149 q 359 3 403 30 q 267 -24 316 -24 q 223 -19 245 -24 q 183 -4 202 -15 l 168 -61 q 125 -55 147 -58 q 85 -51 107 -53 q 43 -49 63 -49 l 29 -49 q 57 16 42 -21 q 90 100 73 54 q 44 251 61 159 q 28 475 28 342 q 46 713 28 615 q 98 872 65 811 q 174 961 130 934 q 267 989 217 989 q 319 981 294 989 q 368 956 345 973 q 375 980 372 969 q 380 998 378 990 q 385 1013 382 1006 l 510 1002 m 179 475 q 180 416 179 444 q 182 364 180 389 q 219 478 201 421 q 256 592 238 536 q 289 700 273 648 q 319 799 305 752 q 295 846 309 831 q 267 860 281 860 q 232 839 248 860 q 204 773 216 819 q 186 653 193 727 q 179 475 179 580 m 353 475 q 353 504 353 490 q 351 532 353 518 q 285 328 318 431 q 225 135 252 226 q 245 113 235 119 q 267 106 255 106 q 300 125 284 106 q 327 188 315 144 q 346 302 339 232 q 353 475 353 373 z "},"ø":{"ha":464,"x_min":25,"x_max":439,"o":"m 437 802 q 425 767 432 787 q 410 726 418 750 q 392 673 402 703 q 426 562 414 631 q 439 389 439 493 q 431 243 439 306 q 410 135 424 181 q 377 59 396 90 q 334 11 357 29 q 283 -15 311 -7 q 228 -22 256 -22 q 195 -20 211 -22 q 164 -12 180 -18 l 151 -61 q 115 -55 134 -58 q 80 -51 100 -53 q 40 -49 60 -49 l 26 -49 q 50 3 38 -25 q 75 64 62 31 q 54 115 63 85 q 38 181 44 144 q 28 264 32 218 q 25 367 25 311 q 43 567 25 489 q 90 690 61 645 q 157 752 119 735 q 233 770 194 770 q 309 755 273 770 q 316 779 313 768 q 321 797 319 789 q 326 812 324 806 l 437 802 m 168 319 q 215 458 192 389 q 257 587 237 527 q 244 596 251 594 q 231 599 238 599 q 203 586 215 599 q 184 543 192 572 q 172 468 176 514 q 168 357 168 422 l 168 319 m 293 392 q 250 264 271 328 q 210 139 229 200 q 236 129 222 129 q 279 191 266 129 q 293 383 293 252 l 293 392 z "},"œ":{"ha":720,"x_min":25,"x_max":696,"o":"m 696 18 q 581 -10 633 -3 q 496 -17 530 -17 q 425 -4 456 -17 q 367 45 395 9 q 303 -7 338 8 q 228 -22 268 -22 q 173 -16 199 -22 q 125 6 147 -10 q 84 50 102 22 q 52 121 65 78 q 32 225 39 165 q 25 367 25 286 q 43 567 25 489 q 90 690 61 645 q 157 752 119 735 q 233 770 194 770 q 274 766 254 770 q 314 754 294 763 q 351 729 333 745 q 383 688 368 713 q 438 733 407 717 q 505 749 469 749 q 582 728 547 749 q 641 663 616 707 q 679 553 665 620 q 692 395 692 486 q 688 288 692 343 l 447 256 q 456 208 450 231 q 471 169 462 186 q 494 141 481 151 q 528 131 508 131 q 545 132 530 131 q 581 134 559 132 q 628 138 602 136 q 677 146 653 141 l 696 18 m 236 129 q 259 144 248 129 q 276 188 269 160 q 288 255 283 216 q 292 342 292 294 q 279 534 292 469 q 231 599 267 599 q 203 586 215 599 q 184 543 192 572 q 172 468 176 514 q 168 357 168 422 q 173 247 168 290 q 188 177 178 203 q 209 140 197 151 q 236 129 222 129 m 443 371 l 555 392 l 555 418 q 547 507 555 475 q 528 553 538 538 q 500 574 515 571 q 469 555 480 572 q 451 514 457 539 q 444 456 446 488 q 443 392 443 425 l 443 371 z "},"Œ":{"ha":743,"x_min":28,"x_max":726,"o":"m 726 -1 q 548 2 633 3 q 371 -5 463 1 l 371 11 q 267 -24 325 -24 q 174 2 217 -24 q 98 85 130 27 q 46 239 65 144 q 28 475 28 335 q 46 713 28 615 q 98 872 65 811 q 174 961 130 934 q 267 989 217 989 q 322 980 295 989 q 372 953 349 972 q 371 963 371 958 q 371 974 371 968 q 459 969 417 970 q 542 968 501 968 q 625 970 583 968 q 714 977 667 972 l 714 821 q 617 834 665 830 q 522 836 569 838 q 514 667 516 751 q 510 498 511 583 q 647 498 578 494 l 647 363 q 579 365 614 364 q 510 364 545 366 l 507 122 q 615 127 562 123 q 726 140 667 132 l 726 -1 m 353 475 q 346 654 353 581 q 327 773 339 728 q 300 840 315 819 q 267 860 284 860 q 232 839 248 860 q 204 773 216 819 q 186 653 193 727 q 179 475 179 580 q 186 299 179 370 q 204 185 193 229 q 232 124 216 142 q 267 106 248 106 q 300 125 284 106 q 327 188 315 144 q 346 302 339 232 q 353 475 353 373 z "},"Ł":{"ha":431,"x_min":-5,"x_max":422,"o":"m 313 479 l 205 425 l 203 122 q 311 127 258 123 q 422 140 363 132 l 422 -1 q 331 1 376 1 q 243 2 287 2 q 156 -1 200 1 q 66 -5 113 -3 q 75 178 72 87 q 79 363 78 270 l 28 336 l -5 464 l 81 503 q 77 738 81 621 q 66 974 73 855 q 117 972 90 972 q 167 973 139 972 q 224 977 195 974 q 211 775 215 880 q 205 561 207 670 l 283 597 l 313 479 z "},"ł":{"ha":309,"x_min":-5,"x_max":313,"o":"m 313 479 l 215 431 q 215 227 215 307 q 216 100 216 146 q 218 18 217 46 q 178 16 201 18 q 134 12 159 14 q 78 7 109 10 q 72 191 75 104 q 66 355 70 277 l 28 336 l -5 464 l 61 494 q 53 693 57 607 q 45 839 49 779 q 39 960 42 908 l 215 968 l 215 566 l 283 597 l 313 479 z "},"∂":{"ha":467,"x_min":26,"x_max":440,"o":"m 150 1042 q 161 1036 149 1042 q 193 1015 173 1029 q 240 975 214 1000 q 293 915 266 951 q 347 829 321 878 q 394 715 374 780 q 428 569 415 650 q 440 389 440 488 q 433 243 440 306 q 411 135 425 181 q 378 59 397 90 q 335 11 359 29 q 285 -15 312 -7 q 229 -22 258 -22 q 175 -16 201 -22 q 126 6 149 -10 q 85 50 104 22 q 54 121 66 78 q 34 225 41 165 q 26 367 26 286 q 44 567 26 489 q 92 690 62 645 q 158 752 121 735 q 235 770 196 770 q 176 863 214 814 q 75 960 138 911 l 150 1042 m 294 383 q 290 490 294 448 q 277 556 285 532 q 257 590 269 581 q 232 599 245 599 q 205 586 216 599 q 185 543 193 572 q 174 468 178 514 q 170 357 170 422 q 175 247 170 290 q 189 177 180 203 q 211 140 198 151 q 237 129 223 129 q 281 191 267 129 q 294 383 294 252 z "},"ð":{"ha":465,"x_min":25,"x_max":439,"o":"m 376 930 l 306 895 q 367 781 342 841 q 408 656 392 721 q 431 525 424 592 q 439 389 439 457 q 431 243 439 306 q 410 135 424 181 q 377 59 396 90 q 334 11 357 29 q 283 -15 311 -7 q 228 -22 256 -22 q 173 -16 199 -22 q 125 6 147 -10 q 84 50 102 22 q 52 121 65 78 q 32 225 39 165 q 25 367 25 286 q 43 567 25 489 q 90 690 61 645 q 157 752 119 735 q 233 770 194 770 q 216 804 226 786 q 193 839 205 821 l 92 787 l 58 888 l 123 917 q 100 938 112 927 q 74 960 87 949 l 149 1042 q 176 1026 161 1036 q 206 1005 189 1018 q 243 972 223 991 l 347 1021 l 376 930 m 293 383 q 288 490 293 448 q 275 556 283 532 q 256 590 267 581 q 231 599 244 599 q 203 586 215 599 q 184 543 192 572 q 172 468 176 514 q 168 357 168 422 q 173 247 168 290 q 188 177 178 203 q 209 140 197 151 q 236 129 222 129 q 279 191 266 129 q 293 383 293 252 z "},"Ä":{"ha":489,"x_min":5,"x_max":490,"o":"m 322 -5 q 316 89 319 41 q 309 184 313 136 q 251 189 279 186 q 195 191 223 191 l 186 191 q 180 94 182 142 q 175 0 177 47 l 5 3 q 81 486 47 245 q 139 971 115 726 l 343 968 q 405 487 369 726 q 490 5 441 248 l 322 -5 m 243 800 q 217 551 229 675 q 195 301 205 427 q 224 300 209 300 q 254 300 239 300 l 298 300 q 273 550 287 426 q 243 800 258 674 m 228 1072 q 222 1045 228 1058 q 207 1022 216 1032 q 183 1007 197 1013 q 155 1002 170 1002 q 128 1007 141 1002 q 105 1022 115 1013 q 89 1045 95 1032 q 83 1072 83 1058 q 89 1101 83 1087 q 105 1124 95 1114 q 128 1139 115 1133 q 155 1145 141 1145 q 183 1139 170 1145 q 207 1124 197 1133 q 222 1101 216 1114 q 228 1072 228 1087 m 411 1072 q 405 1045 411 1058 q 390 1022 399 1032 q 367 1007 380 1013 q 339 1002 353 1002 q 311 1007 324 1002 q 288 1022 298 1013 q 272 1045 278 1032 q 267 1072 267 1058 q 272 1101 267 1087 q 288 1124 278 1114 q 311 1139 298 1133 q 339 1145 324 1145 q 367 1139 353 1145 q 390 1124 380 1133 q 405 1101 399 1114 q 411 1072 411 1087 z "},"Å":{"ha":488,"x_min":5,"x_max":490,"o":"m 378 1023 q 369 979 378 1000 q 346 942 361 958 q 407 473 372 706 q 490 5 442 240 l 322 -5 q 316 89 319 41 q 309 184 313 136 q 251 189 279 186 q 195 191 223 191 l 186 191 q 180 94 182 142 q 175 0 177 47 l 5 3 q 80 478 46 241 q 138 956 114 715 q 122 988 127 970 q 117 1023 117 1005 q 127 1074 117 1050 q 156 1116 138 1098 q 197 1144 174 1134 q 248 1154 221 1154 q 297 1144 273 1154 q 339 1116 321 1134 q 367 1074 357 1098 q 378 1023 378 1050 m 243 800 q 217 551 229 675 q 195 301 205 427 q 224 300 209 300 q 254 300 239 300 l 298 300 q 273 550 287 426 q 243 800 258 674 m 296 1023 q 281 1058 296 1044 q 245 1072 267 1072 q 212 1058 227 1072 q 197 1023 197 1044 q 201 1006 197 1014 q 212 991 205 998 q 228 980 219 984 q 245 977 236 977 q 281 991 267 977 q 296 1023 296 1005 z "},"Ç":{"ha":431,"x_min":26,"x_max":427,"o":"m 317 -144 q 309 -181 317 -165 q 289 -211 302 -198 q 259 -231 276 -223 q 222 -241 241 -239 q 186 -244 202 -245 q 159 -239 170 -243 q 136 -231 146 -236 l 136 -155 q 146 -161 139 -159 q 161 -166 153 -164 q 178 -169 170 -168 q 191 -170 186 -170 q 218 -164 206 -170 q 229 -139 229 -158 q 225 -124 229 -130 q 214 -114 220 -118 q 199 -109 207 -111 q 183 -107 191 -107 q 164 -108 174 -107 q 144 -113 154 -109 l 192 11 q 132 64 161 29 q 78 156 102 99 q 41 296 55 214 q 26 490 26 378 q 41 671 26 594 q 79 804 56 749 q 132 895 102 859 q 192 951 161 930 q 251 980 222 972 q 301 987 280 987 q 340 983 321 987 q 374 973 356 980 q 406 954 392 966 l 392 818 q 356 832 373 827 q 325 836 340 836 q 274 821 296 836 q 236 781 252 806 q 209 724 220 755 q 191 659 198 692 q 172 481 174 581 q 192 304 174 382 q 211 240 199 271 q 238 183 222 208 q 276 144 254 159 q 328 129 298 129 q 401 151 359 129 l 427 17 q 374 -2 400 5 q 328 -12 349 -8 q 282 -16 304 -15 q 261 -14 271 -16 q 239 -8 250 -12 l 228 -56 q 264 -61 248 -55 q 292 -80 280 -68 q 310 -108 304 -92 q 317 -144 317 -125 z "},"É":{"ha":416,"x_min":45,"x_max":400,"o":"m 321 363 q 278 365 300 364 q 235 366 256 366 q 209 365 222 366 q 183 364 196 364 l 180 122 q 289 127 236 123 q 400 140 341 132 l 400 -1 q 327 1 362 0 q 256 1 291 1 q 151 0 203 1 q 45 -5 100 -2 q 55 244 51 121 q 58 494 58 368 q 55 734 58 615 q 45 974 52 853 q 197 968 125 968 q 289 970 243 968 q 387 977 335 972 l 387 821 q 304 832 345 828 q 222 836 263 836 l 196 836 q 187 667 189 751 q 183 498 184 583 q 219 497 201 497 q 256 497 237 497 q 288 497 271 497 q 321 498 304 497 l 321 363 m 282 1280 q 318 1254 299 1268 q 354 1226 338 1239 q 391 1196 373 1211 l 212 1003 l 149 1050 l 282 1280 z "},"Ñ":{"ha":576,"x_min":45,"x_max":536,"o":"m 536 978 q 523 708 528 842 q 518 439 518 574 q 521 231 518 334 q 532 25 524 129 l 395 29 q 341 204 368 117 q 290 378 315 292 q 237 549 264 464 q 182 720 210 635 q 188 367 184 543 q 204 16 193 191 l 47 17 q 56 452 56 233 q 53 718 56 586 q 45 982 50 849 l 235 978 q 309 675 269 829 q 392 371 348 521 q 378 678 387 524 q 358 979 369 831 l 536 978 m 490 1126 q 456 1072 475 1096 q 414 1035 439 1052 q 358 1018 389 1018 q 322 1029 338 1019 q 291 1051 306 1039 q 261 1073 277 1063 q 228 1083 246 1083 q 190 1066 204 1083 q 158 1018 176 1050 l 90 1085 q 112 1130 101 1109 q 137 1165 123 1150 q 169 1187 151 1179 q 212 1196 186 1196 q 260 1186 240 1196 q 295 1166 279 1177 q 324 1146 311 1156 q 351 1137 337 1137 q 385 1148 370 1137 q 410 1173 399 1160 q 432 1210 422 1190 l 490 1126 z "},"Ö":{"ha":532,"x_min":28,"x_max":504,"o":"m 504 475 q 485 243 504 338 q 435 89 467 149 q 359 3 403 30 q 267 -24 316 -24 q 174 2 217 -24 q 98 85 130 27 q 46 239 65 144 q 28 475 28 335 q 46 713 28 615 q 98 872 65 811 q 174 961 130 934 q 267 989 217 989 q 359 962 316 989 q 435 874 403 935 q 485 715 467 813 q 504 475 504 617 m 353 475 q 346 654 353 581 q 327 773 339 728 q 300 840 315 819 q 267 860 284 860 q 232 839 248 860 q 204 773 216 819 q 186 653 193 727 q 179 475 179 580 q 186 299 179 370 q 204 185 193 229 q 232 124 216 142 q 267 106 248 106 q 300 125 284 106 q 327 188 315 144 q 346 302 339 232 q 353 475 353 373 m 246 1091 q 240 1064 246 1077 q 225 1041 235 1051 q 202 1026 215 1031 q 174 1021 189 1021 q 146 1026 159 1021 q 123 1041 133 1031 q 107 1064 113 1051 q 102 1091 102 1077 q 107 1120 102 1106 q 123 1143 113 1133 q 146 1158 133 1152 q 174 1164 159 1164 q 202 1158 189 1164 q 225 1143 215 1152 q 240 1120 235 1133 q 246 1091 246 1106 m 429 1091 q 424 1064 429 1077 q 408 1041 418 1051 q 385 1026 398 1031 q 357 1021 372 1021 q 329 1026 342 1021 q 306 1041 316 1031 q 291 1064 296 1051 q 285 1091 285 1077 q 291 1120 285 1106 q 306 1143 296 1133 q 329 1158 316 1152 q 357 1164 342 1164 q 385 1158 372 1164 q 408 1143 398 1152 q 424 1120 418 1133 q 429 1091 429 1106 z "},"Ü":{"ha":503,"x_min":31,"x_max":460,"o":"m 432 982 q 454 702 448 844 q 460 407 460 561 q 455 303 460 355 q 440 206 451 252 q 413 120 430 159 q 370 51 395 80 q 309 6 344 22 q 228 -11 273 -11 q 157 4 187 -11 q 104 46 126 20 q 68 110 83 73 q 45 188 54 146 q 34 277 37 231 q 31 370 31 323 q 42 655 31 511 q 69 956 54 800 l 211 953 q 188 659 199 807 q 178 353 178 510 q 180 267 178 307 q 190 195 183 226 q 207 146 197 164 q 233 127 218 127 q 267 156 252 127 q 293 232 282 185 q 309 340 303 279 q 315 463 315 400 q 314 583 315 522 q 311 705 313 643 q 306 832 309 767 q 297 966 302 897 l 432 982 m 225 1083 q 219 1056 225 1069 q 204 1033 214 1043 q 181 1018 194 1023 q 153 1013 168 1013 q 125 1018 138 1013 q 102 1033 112 1023 q 86 1056 92 1043 q 81 1083 81 1069 q 86 1112 81 1098 q 102 1135 92 1125 q 125 1150 112 1144 q 153 1156 138 1156 q 181 1150 168 1156 q 204 1135 194 1144 q 219 1112 214 1125 q 225 1083 225 1098 m 408 1083 q 402 1056 408 1069 q 387 1033 397 1043 q 364 1018 377 1023 q 336 1013 351 1013 q 308 1018 321 1013 q 285 1033 295 1023 q 270 1056 275 1043 q 264 1083 264 1069 q 270 1112 264 1098 q 285 1135 275 1125 q 308 1150 295 1144 q 336 1156 321 1156 q 364 1150 351 1156 q 387 1135 377 1144 q 402 1112 397 1125 q 408 1083 408 1098 z "},"á":{"ha":482,"x_min":16,"x_max":476,"o":"m 443 432 q 442 218 443 325 q 437 -5 441 111 l 319 1 l 319 93 q 273 37 299 56 q 224 8 248 18 q 171 -4 197 -3 q 110 11 138 -4 q 60 50 81 25 q 27 105 39 74 q 16 171 16 137 q 32 247 16 210 q 89 315 49 285 q 182 385 142 357 q 247 435 221 412 q 286 478 273 458 q 298 526 298 499 q 283 593 298 571 q 244 615 269 615 q 219 607 229 615 q 202 587 208 600 q 192 559 195 574 q 189 529 189 544 q 190 507 189 519 q 195 481 191 494 l 39 478 q 37 500 37 490 q 36 521 36 511 q 50 604 36 563 q 92 677 64 645 q 159 729 119 709 q 249 749 198 749 q 353 721 315 749 q 411 649 391 694 q 437 548 431 604 q 443 432 443 491 m 290 240 q 296 279 294 257 q 301 323 299 297 q 304 382 303 349 q 283 355 294 367 q 264 335 273 344 q 245 317 254 325 q 212 288 230 304 q 180 254 195 272 q 156 218 165 237 q 146 182 146 199 q 159 147 146 163 q 191 131 172 131 q 220 139 205 131 q 249 162 235 147 q 274 197 263 177 q 290 240 285 216 m 367 1060 q 403 1033 384 1048 q 439 1006 422 1019 q 476 975 458 991 l 297 783 l 233 829 l 367 1060 z "},"à":{"ha":482,"x_min":16,"x_max":443,"o":"m 443 432 q 442 218 443 325 q 437 -5 441 111 l 319 1 l 319 93 q 273 37 299 56 q 224 8 248 18 q 171 -4 197 -3 q 110 11 138 -4 q 60 50 81 25 q 27 105 39 74 q 16 171 16 137 q 32 247 16 210 q 89 315 49 285 q 182 385 142 357 q 247 435 221 412 q 286 478 273 458 q 298 526 298 499 q 283 593 298 571 q 244 615 269 615 q 219 607 229 615 q 202 587 208 600 q 192 559 195 574 q 189 529 189 544 q 190 507 189 519 q 195 481 191 494 l 39 478 q 37 500 37 490 q 36 521 36 511 q 50 604 36 563 q 92 677 64 645 q 159 729 119 709 q 249 749 198 749 q 353 721 315 749 q 411 649 391 694 q 437 548 431 604 q 443 432 443 491 m 290 240 q 296 279 294 257 q 301 323 299 297 q 304 382 303 349 q 283 355 294 367 q 264 335 273 344 q 245 317 254 325 q 212 288 230 304 q 180 254 195 272 q 156 218 165 237 q 146 182 146 199 q 159 147 146 163 q 191 131 172 131 q 220 139 205 131 q 249 162 235 147 q 274 197 263 177 q 290 240 285 216 m 268 832 l 204 785 l 25 978 q 62 1008 43 994 q 98 1036 79 1021 q 135 1063 117 1050 l 268 832 z "},"â":{"ha":482,"x_min":16,"x_max":443,"o":"m 443 432 q 442 218 443 325 q 437 -5 441 111 l 319 1 l 319 93 q 273 37 299 56 q 224 8 248 18 q 171 -4 197 -3 q 110 11 138 -4 q 60 50 81 25 q 27 105 39 74 q 16 171 16 137 q 32 247 16 210 q 89 315 49 285 q 182 385 142 357 q 247 435 221 412 q 286 478 273 458 q 298 526 298 499 q 283 593 298 571 q 244 615 269 615 q 219 607 229 615 q 202 587 208 600 q 192 559 195 574 q 189 529 189 544 q 190 507 189 519 q 195 481 191 494 l 39 478 q 37 500 37 490 q 36 521 36 511 q 50 604 36 563 q 92 677 64 645 q 159 729 119 709 q 249 749 198 749 q 353 721 315 749 q 411 649 391 694 q 437 548 431 604 q 443 432 443 491 m 290 240 q 296 279 294 257 q 301 323 299 297 q 304 382 303 349 q 283 355 294 367 q 264 335 273 344 q 245 317 254 325 q 212 288 230 304 q 180 254 195 272 q 156 218 165 237 q 146 182 146 199 q 159 147 146 163 q 191 131 172 131 q 220 139 205 131 q 249 162 235 147 q 274 197 263 177 q 290 240 285 216 m 382 824 l 277 785 l 224 945 l 180 781 l 75 823 l 178 1050 l 288 1050 l 382 824 z "},"ä":{"ha":482,"x_min":16,"x_max":443,"o":"m 443 432 q 442 218 443 325 q 437 -5 441 111 l 319 1 l 319 93 q 273 37 299 56 q 224 8 248 18 q 171 -4 197 -3 q 110 11 138 -4 q 60 50 81 25 q 27 105 39 74 q 16 171 16 137 q 32 247 16 210 q 89 315 49 285 q 182 385 142 357 q 247 435 221 412 q 286 478 273 458 q 298 526 298 499 q 283 593 298 571 q 244 615 269 615 q 219 607 229 615 q 202 587 208 600 q 192 559 195 574 q 189 529 189 544 q 190 507 189 519 q 195 481 191 494 l 39 478 q 37 500 37 490 q 36 521 36 511 q 50 604 36 563 q 92 677 64 645 q 159 729 119 709 q 249 749 198 749 q 353 721 315 749 q 411 649 391 694 q 437 548 431 604 q 443 432 443 491 m 290 240 q 296 279 294 257 q 301 323 299 297 q 304 382 303 349 q 283 355 294 367 q 264 335 273 344 q 245 317 254 325 q 212 288 230 304 q 180 254 195 272 q 156 218 165 237 q 146 182 146 199 q 159 147 146 163 q 191 131 172 131 q 220 139 205 131 q 249 162 235 147 q 274 197 263 177 q 290 240 285 216 m 218 854 q 213 827 218 840 q 197 805 207 814 q 174 789 187 795 q 146 784 161 784 q 118 789 132 784 q 95 805 105 795 q 80 827 85 814 q 74 854 74 840 q 80 883 74 869 q 95 906 85 897 q 118 921 105 916 q 146 927 132 927 q 174 921 161 927 q 197 906 187 916 q 213 883 207 897 q 218 854 218 869 m 401 854 q 396 827 401 840 q 380 805 390 814 q 357 789 370 795 q 330 784 344 784 q 301 789 315 784 q 278 805 288 795 q 263 827 269 814 q 257 854 257 840 q 263 883 257 869 q 278 906 269 897 q 301 921 288 916 q 330 927 315 927 q 357 921 344 927 q 380 906 370 916 q 396 883 390 897 q 401 854 401 869 z "},"ã":{"ha":482,"x_min":16,"x_max":443,"o":"m 443 432 q 442 218 443 325 q 437 -5 441 111 l 319 1 l 319 93 q 273 37 299 56 q 224 8 248 18 q 171 -4 197 -3 q 110 11 138 -4 q 60 50 81 25 q 27 105 39 74 q 16 171 16 137 q 32 247 16 210 q 89 315 49 285 q 182 385 142 357 q 247 435 221 412 q 286 478 273 458 q 298 526 298 499 q 283 593 298 571 q 244 615 269 615 q 219 607 229 615 q 202 587 208 600 q 192 559 195 574 q 189 529 189 544 q 190 507 189 519 q 195 481 191 494 l 39 478 q 37 500 37 490 q 36 521 36 511 q 50 604 36 563 q 92 677 64 645 q 159 729 119 709 q 249 749 198 749 q 353 721 315 749 q 411 649 391 694 q 437 548 431 604 q 443 432 443 491 m 290 240 q 296 279 294 257 q 301 323 299 297 q 304 382 303 349 q 283 355 294 367 q 264 335 273 344 q 245 317 254 325 q 212 288 230 304 q 180 254 195 272 q 156 218 165 237 q 146 182 146 199 q 159 147 146 163 q 191 131 172 131 q 220 139 205 131 q 249 162 235 147 q 274 197 263 177 q 290 240 285 216 m 437 894 q 403 840 422 863 q 361 802 386 819 q 305 785 336 785 q 269 796 285 786 q 238 819 253 806 q 209 841 224 831 q 175 850 193 850 q 137 834 151 850 q 105 785 123 817 l 37 852 q 59 897 48 877 q 84 932 70 918 q 116 955 98 947 q 159 963 134 963 q 207 954 187 963 q 242 934 227 945 q 271 914 258 923 q 298 905 284 905 q 332 916 317 905 q 357 941 347 927 q 379 977 370 957 l 437 894 z "},"å":{"ha":482,"x_min":16,"x_max":443,"o":"m 443 432 q 442 218 443 325 q 437 -5 441 111 l 319 1 l 319 93 q 273 37 299 56 q 224 8 248 18 q 171 -4 197 -3 q 110 11 138 -4 q 60 50 81 25 q 27 105 39 74 q 16 171 16 137 q 32 247 16 210 q 89 315 49 285 q 182 385 142 357 q 247 435 221 412 q 286 478 273 458 q 298 526 298 499 q 283 593 298 571 q 244 615 269 615 q 219 607 229 615 q 202 587 208 600 q 192 559 195 574 q 189 529 189 544 q 190 507 189 519 q 195 481 191 494 l 39 478 q 37 500 37 490 q 36 521 36 511 q 50 604 36 563 q 92 677 64 645 q 159 729 119 709 q 249 749 198 749 q 353 721 315 749 q 411 649 391 694 q 437 548 431 604 q 443 432 443 491 m 290 240 q 296 279 294 257 q 301 323 299 297 q 304 382 303 349 q 283 355 294 367 q 264 335 273 344 q 245 317 254 325 q 212 288 230 304 q 180 254 195 272 q 156 218 165 237 q 146 182 146 199 q 159 147 146 163 q 191 131 172 131 q 220 139 205 131 q 249 162 235 147 q 274 197 263 177 q 290 240 285 216 m 286 920 q 272 955 286 941 q 236 969 257 969 q 203 955 218 969 q 188 920 188 941 q 203 887 188 901 q 236 873 218 873 q 272 887 257 873 q 286 920 286 901 m 368 920 q 358 871 368 895 q 329 830 347 848 q 288 803 311 813 q 238 793 264 793 q 188 803 212 793 q 146 830 164 813 q 118 871 128 848 q 107 920 107 895 q 118 971 107 947 q 146 1013 128 995 q 188 1041 164 1031 q 238 1051 212 1051 q 288 1041 264 1051 q 329 1013 311 1031 q 358 971 347 995 q 368 920 368 947 z "},"ç":{"ha":371,"x_min":25,"x_max":359,"o":"m 282 -158 q 275 -195 282 -178 q 254 -225 267 -212 q 223 -245 241 -237 q 187 -256 206 -253 q 151 -258 167 -259 q 124 -253 136 -256 q 102 -244 111 -250 l 102 -170 q 112 -175 104 -173 q 127 -179 119 -178 q 143 -182 135 -181 q 155 -183 151 -183 q 183 -177 171 -183 q 195 -153 195 -172 q 190 -138 195 -144 q 179 -128 186 -132 q 164 -122 172 -124 q 149 -121 156 -121 q 129 -122 139 -121 q 110 -126 119 -123 l 155 -3 q 89 57 115 20 q 50 141 64 94 q 30 242 35 188 q 25 354 25 297 q 27 432 25 389 q 35 519 28 475 q 55 604 41 563 q 91 678 68 646 q 149 729 114 710 q 233 749 184 749 q 275 745 255 749 q 313 737 296 742 q 342 726 330 732 q 359 715 354 720 l 349 557 q 326 576 339 569 q 298 586 312 583 q 273 590 285 589 q 257 591 262 591 q 221 574 237 591 q 194 524 205 556 q 177 445 182 491 q 171 340 171 398 q 179 239 171 285 q 206 160 186 193 q 259 108 226 127 q 343 85 292 88 l 339 -32 q 316 -34 328 -33 q 294 -35 305 -35 q 246 -32 269 -35 q 204 -24 224 -29 l 193 -69 q 229 -75 213 -68 q 257 -93 245 -81 q 276 -122 269 -105 q 282 -158 282 -138 z "},"é":{"ha":450,"x_min":22,"x_max":452,"o":"m 427 18 q 312 -10 363 -3 q 227 -17 260 -17 q 154 -1 185 -17 q 100 43 123 16 q 62 105 77 70 q 39 180 47 141 q 26 260 30 220 q 22 336 22 300 q 37 502 22 426 q 78 632 51 577 q 145 718 105 687 q 236 749 185 749 q 313 728 278 749 q 372 663 347 707 q 409 553 396 620 q 422 395 422 486 q 421 342 422 369 q 418 288 420 316 l 178 256 q 186 208 180 231 q 202 169 192 186 q 225 141 212 151 q 258 131 239 131 q 332 135 295 131 q 408 146 368 140 l 427 18 m 174 371 l 286 392 l 286 418 q 277 507 286 475 q 258 553 269 538 q 231 574 246 571 q 199 555 211 572 q 182 514 188 539 q 175 456 176 488 q 174 392 174 425 l 174 371 m 343 1063 q 379 1036 360 1050 q 415 1008 399 1021 q 452 978 434 994 l 273 785 l 210 832 l 343 1063 z "},"è":{"ha":450,"x_min":-9,"x_max":427,"o":"m 427 18 q 312 -10 363 -3 q 227 -17 260 -17 q 154 -1 185 -17 q 100 43 123 16 q 62 105 77 70 q 39 180 47 141 q 26 260 30 220 q 22 336 22 300 q 37 502 22 426 q 78 632 51 577 q 145 718 105 687 q 236 749 185 749 q 313 728 278 749 q 372 663 347 707 q 409 553 396 620 q 422 395 422 486 q 421 342 422 369 q 418 288 420 316 l 178 256 q 186 208 180 231 q 202 169 192 186 q 225 141 212 151 q 258 131 239 131 q 332 135 295 131 q 408 146 368 140 l 427 18 m 174 371 l 286 392 l 286 418 q 277 507 286 475 q 258 553 269 538 q 231 574 246 571 q 199 555 211 572 q 182 514 188 539 q 175 456 176 488 q 174 392 174 425 l 174 371 m 234 827 l 170 780 l -9 972 q 28 1003 9 988 q 64 1030 45 1016 q 101 1057 83 1045 l 234 827 z "},"ê":{"ha":450,"x_min":22,"x_max":427,"o":"m 427 18 q 312 -10 363 -3 q 227 -17 260 -17 q 154 -1 185 -17 q 100 43 123 16 q 62 105 77 70 q 39 180 47 141 q 26 260 30 220 q 22 336 22 300 q 37 502 22 426 q 78 632 51 577 q 145 718 105 687 q 236 749 185 749 q 313 728 278 749 q 372 663 347 707 q 409 553 396 620 q 422 395 422 486 q 421 342 422 369 q 418 288 420 316 l 178 256 q 186 208 180 231 q 202 169 192 186 q 225 141 212 151 q 258 131 239 131 q 332 135 295 131 q 408 146 368 140 l 427 18 m 174 371 l 286 392 l 286 418 q 277 507 286 475 q 258 553 269 538 q 231 574 246 571 q 199 555 211 572 q 182 514 188 539 q 175 456 176 488 q 174 392 174 425 l 174 371 m 376 820 l 271 781 l 218 941 l 174 777 l 69 819 l 172 1046 l 281 1046 l 376 820 z "},"ë":{"ha":450,"x_min":22,"x_max":427,"o":"m 427 18 q 312 -10 363 -3 q 227 -17 260 -17 q 154 -1 185 -17 q 100 43 123 16 q 62 105 77 70 q 39 180 47 141 q 26 260 30 220 q 22 336 22 300 q 37 502 22 426 q 78 632 51 577 q 145 718 105 687 q 236 749 185 749 q 313 728 278 749 q 372 663 347 707 q 409 553 396 620 q 422 395 422 486 q 421 342 422 369 q 418 288 420 316 l 178 256 q 186 208 180 231 q 202 169 192 186 q 225 141 212 151 q 258 131 239 131 q 332 135 295 131 q 408 146 368 140 l 427 18 m 174 371 l 286 392 l 286 418 q 277 507 286 475 q 258 553 269 538 q 231 574 246 571 q 199 555 211 572 q 182 514 188 539 q 175 456 176 488 q 174 392 174 425 l 174 371 m 204 846 q 198 819 204 832 q 183 797 193 806 q 160 781 173 787 q 132 776 146 776 q 104 781 117 776 q 81 797 91 787 q 65 819 71 806 q 60 846 60 832 q 65 875 60 861 q 81 898 71 888 q 104 913 91 907 q 132 919 117 919 q 160 913 146 919 q 183 898 173 907 q 198 875 193 888 q 204 846 204 861 m 387 846 q 381 819 387 832 q 366 797 376 806 q 343 781 356 787 q 315 776 330 776 q 287 781 300 776 q 264 797 274 787 q 249 819 254 806 q 243 846 243 832 q 249 875 243 861 q 264 898 254 888 q 287 913 274 907 q 315 919 300 919 q 343 913 330 919 q 366 898 356 907 q 381 875 376 888 q 387 846 387 861 z "},"í":{"ha":243,"x_min":32,"x_max":340,"o":"m 208 704 q 199 586 202 650 q 194 455 195 522 q 193 322 193 388 q 195 200 193 257 q 200 100 197 144 q 207 35 203 57 q 151 33 180 35 q 94 30 125 32 q 32 24 63 28 q 51 319 47 192 q 50 534 54 446 q 37 710 47 635 q 107 704 76 705 q 161 703 138 703 q 208 704 187 703 m 231 1027 q 267 1000 248 1015 q 302 972 286 985 q 340 942 321 958 l 161 749 l 97 796 l 231 1027 z "},"ì":{"ha":243,"x_min":-90,"x_max":208,"o":"m 208 704 q 199 586 202 650 q 194 455 195 522 q 193 322 193 388 q 195 200 193 257 q 200 100 197 144 q 207 35 203 57 q 151 33 180 35 q 94 30 125 32 q 32 24 63 28 q 51 319 47 192 q 50 534 54 446 q 37 710 47 635 q 107 704 76 705 q 161 703 138 703 q 208 704 187 703 m 153 810 l 90 764 l -90 956 q -52 987 -71 972 q -17 1014 -36 1000 q 20 1041 3 1029 l 153 810 z "},"î":{"ha":243,"x_min":-27,"x_max":280,"o":"m 208 704 q 199 586 202 650 q 194 455 195 522 q 193 322 193 388 q 195 200 193 257 q 200 100 197 144 q 207 35 203 57 q 151 33 180 35 q 94 30 125 32 q 32 24 63 28 q 51 319 47 192 q 50 534 54 446 q 37 710 47 635 q 107 704 76 705 q 161 703 138 703 q 208 704 187 703 m 280 796 l 174 758 l 121 917 l 77 753 l -27 795 l 76 1023 l 185 1023 l 280 796 z "},"ï":{"ha":243,"x_min":-37,"x_max":291,"o":"m 208 704 q 199 586 202 650 q 194 455 195 522 q 193 322 193 388 q 195 200 193 257 q 200 100 197 144 q 207 35 203 57 q 151 33 180 35 q 94 30 125 32 q 32 24 63 28 q 51 319 47 192 q 50 534 54 446 q 37 710 47 635 q 107 704 76 705 q 161 703 138 703 q 208 704 187 703 m 108 829 q 102 802 108 815 q 86 780 96 789 q 63 764 77 770 q 35 759 50 759 q 8 764 21 759 q -15 780 -5 770 q -31 802 -25 789 q -37 829 -37 815 q -31 858 -37 844 q -15 881 -25 871 q 8 896 -5 890 q 35 902 21 902 q 63 896 50 902 q 86 881 77 890 q 102 858 96 871 q 108 829 108 844 m 291 829 q 285 802 291 815 q 270 780 279 789 q 247 764 260 770 q 219 759 233 759 q 191 764 204 759 q 168 780 178 770 q 152 802 158 789 q 146 829 146 815 q 152 858 146 844 q 168 881 158 871 q 191 896 178 890 q 219 902 204 902 q 247 896 233 902 q 270 881 260 890 q 285 858 279 871 q 291 829 291 844 z "},"ñ":{"ha":532,"x_min":41,"x_max":496,"o":"m 315 4 q 337 225 330 113 q 343 460 343 337 q 338 526 343 501 q 323 564 332 551 q 304 581 315 577 q 285 585 294 585 q 259 580 271 585 q 237 562 248 575 q 219 524 227 548 q 204 459 210 499 q 195 362 198 419 q 192 225 192 304 q 192 166 192 197 q 192 107 192 135 q 193 58 193 79 q 195 28 193 37 l 41 29 q 44 139 43 91 q 46 229 45 188 q 47 305 47 269 q 47 375 47 340 q 47 439 47 406 q 46 510 47 472 q 45 593 46 548 q 43 693 44 638 l 201 697 l 199 628 q 238 683 217 663 q 280 715 259 704 q 320 731 300 727 q 355 734 340 734 q 425 705 397 734 q 468 628 452 676 q 490 517 484 579 q 496 387 496 454 q 493 288 496 338 q 488 190 491 238 q 481 96 485 141 q 475 12 477 51 l 315 4 m 469 887 q 435 833 454 857 q 393 795 418 812 q 337 779 368 779 q 301 789 317 779 q 270 812 285 800 q 240 834 256 824 q 207 844 225 844 q 169 827 183 844 q 137 779 155 810 l 69 846 q 91 890 80 870 q 116 925 102 911 q 148 948 130 940 q 191 956 165 956 q 239 947 219 956 q 274 927 258 938 q 303 907 290 916 q 330 898 316 898 q 364 909 349 898 q 389 934 378 920 q 411 970 401 950 l 469 887 z "},"ó":{"ha":464,"x_min":25,"x_max":479,"o":"m 439 389 q 431 243 439 306 q 410 135 424 181 q 377 59 396 90 q 334 11 357 29 q 283 -15 311 -7 q 228 -22 256 -22 q 173 -16 199 -22 q 125 6 147 -10 q 84 50 102 22 q 52 121 65 78 q 32 225 39 165 q 25 367 25 286 q 43 567 25 489 q 90 690 61 645 q 157 752 119 735 q 233 770 194 770 q 284 765 258 770 q 332 745 309 760 q 374 703 355 730 q 408 634 394 677 q 431 532 422 592 q 439 389 439 471 m 293 383 q 288 490 293 448 q 275 556 283 532 q 256 590 267 581 q 231 599 244 599 q 203 586 215 599 q 184 543 192 572 q 172 468 176 514 q 168 357 168 422 q 173 247 168 290 q 188 177 178 203 q 209 140 197 151 q 236 129 222 129 q 279 191 266 129 q 293 383 293 252 m 370 1082 q 406 1055 387 1069 q 441 1027 425 1040 q 479 997 460 1013 l 300 804 l 236 851 l 370 1082 z "},"ò":{"ha":464,"x_min":-10,"x_max":439,"o":"m 439 389 q 431 243 439 306 q 410 135 424 181 q 377 59 396 90 q 334 11 357 29 q 283 -15 311 -7 q 228 -22 256 -22 q 173 -16 199 -22 q 125 6 147 -10 q 84 50 102 22 q 52 121 65 78 q 32 225 39 165 q 25 367 25 286 q 43 567 25 489 q 90 690 61 645 q 157 752 119 735 q 233 770 194 770 q 284 765 258 770 q 332 745 309 760 q 374 703 355 730 q 408 634 394 677 q 431 532 422 592 q 439 389 439 471 m 293 383 q 288 490 293 448 q 275 556 283 532 q 256 590 267 581 q 231 599 244 599 q 203 586 215 599 q 184 543 192 572 q 172 468 176 514 q 168 357 168 422 q 173 247 168 290 q 188 177 178 203 q 209 140 197 151 q 236 129 222 129 q 279 191 266 129 q 293 383 293 252 m 233 851 l 169 804 l -10 997 q 27 1027 8 1013 q 63 1055 43 1040 q 100 1082 82 1069 l 233 851 z "},"ô":{"ha":464,"x_min":25,"x_max":439,"o":"m 439 389 q 431 243 439 306 q 410 135 424 181 q 377 59 396 90 q 334 11 357 29 q 283 -15 311 -7 q 228 -22 256 -22 q 173 -16 199 -22 q 125 6 147 -10 q 84 50 102 22 q 52 121 65 78 q 32 225 39 165 q 25 367 25 286 q 43 567 25 489 q 90 690 61 645 q 157 752 119 735 q 233 770 194 770 q 284 765 258 770 q 332 745 309 760 q 374 703 355 730 q 408 634 394 677 q 431 532 422 592 q 439 389 439 471 m 293 383 q 288 490 293 448 q 275 556 283 532 q 256 590 267 581 q 231 599 244 599 q 203 586 215 599 q 184 543 192 572 q 172 468 176 514 q 168 357 168 422 q 173 247 168 290 q 188 177 178 203 q 209 140 197 151 q 236 129 222 129 q 279 191 266 129 q 293 383 293 252 m 385 846 l 279 807 l 227 966 l 182 803 l 78 844 l 181 1072 l 290 1072 l 385 846 z "},"ö":{"ha":464,"x_min":25,"x_max":439,"o":"m 439 389 q 431 243 439 306 q 410 135 424 181 q 377 59 396 90 q 334 11 357 29 q 283 -15 311 -7 q 228 -22 256 -22 q 173 -16 199 -22 q 125 6 147 -10 q 84 50 102 22 q 52 121 65 78 q 32 225 39 165 q 25 367 25 286 q 43 567 25 489 q 90 690 61 645 q 157 752 119 735 q 233 770 194 770 q 284 765 258 770 q 332 745 309 760 q 374 703 355 730 q 408 634 394 677 q 431 532 422 592 q 439 389 439 471 m 293 383 q 288 490 293 448 q 275 556 283 532 q 256 590 267 581 q 231 599 244 599 q 203 586 215 599 q 184 543 192 572 q 172 468 176 514 q 168 357 168 422 q 173 247 168 290 q 188 177 178 203 q 209 140 197 151 q 236 129 222 129 q 279 191 266 129 q 293 383 293 252 m 212 866 q 207 839 212 852 q 191 816 201 826 q 168 801 181 806 q 140 795 155 795 q 112 801 125 795 q 89 816 99 806 q 74 839 79 826 q 68 866 68 852 q 74 895 68 881 q 89 918 79 908 q 112 933 99 927 q 140 939 125 939 q 168 933 155 939 q 191 918 181 927 q 207 895 201 908 q 212 866 212 881 m 395 866 q 390 839 395 852 q 374 816 384 826 q 351 801 364 806 q 323 795 338 795 q 295 801 309 795 q 272 816 282 806 q 257 839 262 826 q 251 866 251 852 q 257 895 251 881 q 272 918 262 908 q 295 933 282 927 q 323 939 309 939 q 351 933 338 939 q 374 918 364 927 q 390 895 384 908 q 395 866 395 881 z "},"õ":{"ha":464,"x_min":25,"x_max":439,"o":"m 439 389 q 431 243 439 306 q 410 135 424 181 q 377 59 396 90 q 334 11 357 29 q 283 -15 311 -7 q 228 -22 256 -22 q 173 -16 199 -22 q 125 6 147 -10 q 84 50 102 22 q 52 121 65 78 q 32 225 39 165 q 25 367 25 286 q 43 567 25 489 q 90 690 61 645 q 157 752 119 735 q 233 770 194 770 q 284 765 258 770 q 332 745 309 760 q 374 703 355 730 q 408 634 394 677 q 431 532 422 592 q 439 389 439 471 m 293 383 q 288 490 293 448 q 275 556 283 532 q 256 590 267 581 q 231 599 244 599 q 203 586 215 599 q 184 543 192 572 q 172 468 176 514 q 168 357 168 422 q 173 247 168 290 q 188 177 178 203 q 209 140 197 151 q 236 129 222 129 q 279 191 266 129 q 293 383 293 252 m 432 910 q 397 856 417 880 q 356 819 380 836 q 300 802 331 802 q 263 812 279 802 q 233 835 248 823 q 203 857 218 847 q 170 867 188 867 q 132 850 146 867 q 100 802 117 833 l 32 869 q 54 913 43 893 q 78 948 64 934 q 110 971 92 963 q 154 979 128 979 q 201 970 182 979 q 237 950 221 961 q 266 930 252 939 q 293 921 279 921 q 327 932 312 921 q 352 957 341 943 q 374 994 364 973 l 432 910 z "},"ú":{"ha":504,"x_min":29,"x_max":476,"o":"m 468 669 q 460 453 463 560 q 458 239 458 347 q 459 113 458 175 q 461 -14 459 50 l 326 -17 l 326 68 q 281 17 306 35 q 233 -8 256 -1 q 194 -17 210 -16 q 175 -18 178 -18 q 104 19 132 -9 q 59 91 76 48 q 36 189 43 134 q 29 302 29 243 q 33 408 29 354 q 43 513 37 461 q 57 613 50 565 q 72 704 64 662 l 220 701 q 207 614 214 661 q 196 519 201 568 q 188 421 191 470 q 184 328 184 372 q 188 252 184 287 q 199 190 191 216 q 218 150 206 164 q 248 135 230 135 q 286 163 271 135 q 309 236 300 191 q 320 337 317 281 q 323 450 323 393 q 322 532 323 493 q 319 601 321 570 q 315 667 317 636 l 468 669 m 367 998 q 403 971 384 985 q 439 943 422 956 q 476 913 458 928 l 297 720 l 233 767 l 367 998 z "},"ù":{"ha":504,"x_min":29,"x_max":468,"o":"m 468 669 q 460 453 463 560 q 458 239 458 347 q 459 113 458 175 q 461 -14 459 50 l 326 -17 l 326 68 q 281 17 306 35 q 233 -8 256 -1 q 194 -17 210 -16 q 175 -18 178 -18 q 104 19 132 -9 q 59 91 76 48 q 36 189 43 134 q 29 302 29 243 q 33 408 29 354 q 43 513 37 461 q 57 613 50 565 q 72 704 64 662 l 220 701 q 207 614 214 661 q 196 519 201 568 q 188 421 191 470 q 184 328 184 372 q 188 252 184 287 q 199 190 191 216 q 218 150 206 164 q 248 135 230 135 q 286 163 271 135 q 309 236 300 191 q 320 337 317 281 q 323 450 323 393 q 322 532 323 493 q 319 601 321 570 q 315 667 317 636 l 468 669 m 294 784 l 231 737 l 52 930 q 89 960 70 945 q 124 988 105 973 q 161 1015 144 1002 l 294 784 z "},"û":{"ha":504,"x_min":29,"x_max":468,"o":"m 468 669 q 460 453 463 560 q 458 239 458 347 q 459 113 458 175 q 461 -14 459 50 l 326 -17 l 326 68 q 281 17 306 35 q 233 -8 256 -1 q 194 -17 210 -16 q 175 -18 178 -18 q 104 19 132 -9 q 59 91 76 48 q 36 189 43 134 q 29 302 29 243 q 33 408 29 354 q 43 513 37 461 q 57 613 50 565 q 72 704 64 662 l 220 701 q 207 614 214 661 q 196 519 201 568 q 188 421 191 470 q 184 328 184 372 q 188 252 184 287 q 199 190 191 216 q 218 150 206 164 q 248 135 230 135 q 286 163 271 135 q 309 236 300 191 q 320 337 317 281 q 323 450 323 393 q 322 532 323 493 q 319 601 321 570 q 315 667 317 636 l 468 669 m 417 784 l 311 745 l 258 905 l 214 741 l 110 783 l 213 1010 l 322 1010 l 417 784 z "},"ü":{"ha":504,"x_min":29,"x_max":468,"o":"m 468 669 q 460 453 463 560 q 458 239 458 347 q 459 113 458 175 q 461 -14 459 50 l 326 -17 l 326 68 q 281 17 306 35 q 233 -8 256 -1 q 194 -17 210 -16 q 175 -18 178 -18 q 104 19 132 -9 q 59 91 76 48 q 36 189 43 134 q 29 302 29 243 q 33 408 29 354 q 43 513 37 461 q 57 613 50 565 q 72 704 64 662 l 220 701 q 207 614 214 661 q 196 519 201 568 q 188 421 191 470 q 184 328 184 372 q 188 252 184 287 q 199 190 191 216 q 218 150 206 164 q 248 135 230 135 q 286 163 271 135 q 309 236 300 191 q 320 337 317 281 q 323 450 323 393 q 322 532 323 493 q 319 601 321 570 q 315 667 317 636 l 468 669 m 248 813 q 242 786 248 799 q 226 763 236 773 q 203 748 216 753 q 175 743 190 743 q 148 748 161 743 q 124 763 134 753 q 109 786 115 773 q 103 813 103 799 q 109 842 103 828 q 124 865 115 855 q 148 880 134 874 q 175 886 161 886 q 203 880 190 886 q 226 865 216 874 q 242 842 236 855 q 248 813 248 828 m 431 813 q 425 786 431 799 q 409 763 419 773 q 386 748 399 753 q 359 743 373 743 q 331 748 344 743 q 308 763 317 753 q 292 786 298 773 q 286 813 286 799 q 292 842 286 828 q 308 865 298 855 q 331 880 317 874 q 359 886 344 886 q 386 880 373 886 q 409 865 399 874 q 425 842 419 855 q 431 813 431 828 z "},"€":{"ha":554,"x_min":18,"x_max":532,"o":"m 138 607 q 163 745 146 686 q 204 846 181 804 q 255 915 228 888 q 310 959 283 943 q 362 981 337 975 q 407 987 388 987 q 446 983 427 987 q 480 973 462 980 q 511 954 498 966 l 497 818 q 462 832 478 827 q 431 836 446 836 q 373 815 397 836 q 332 762 349 795 q 305 690 315 730 q 289 612 295 650 l 424 616 l 389 507 l 278 507 l 278 481 q 277 475 277 477 q 277 469 277 472 q 278 461 277 465 l 379 464 l 345 354 l 288 354 q 303 276 293 316 q 331 203 314 236 q 374 150 349 171 q 433 129 399 129 q 507 151 465 129 l 532 17 q 480 -2 506 5 q 433 -12 454 -8 q 387 -16 409 -15 q 317 0 355 -16 q 243 57 279 16 q 178 170 207 98 q 138 354 150 241 l 18 354 l 40 454 l 132 457 l 132 490 l 132 507 l 61 507 l 85 606 l 138 607 z "},"¥":{"ha":525,"x_min":20,"x_max":507,"o":"m 155 432 q 88 700 123 564 q 20 960 53 835 l 189 974 q 198 856 192 918 q 214 730 205 794 q 233 600 222 665 q 256 471 244 534 q 281 602 269 535 q 304 734 293 669 q 325 861 315 799 q 340 977 334 922 l 507 972 q 427 705 465 840 q 355 437 389 570 l 443 440 l 439 334 l 328 332 l 317 286 l 317 283 l 443 288 l 439 180 l 317 179 q 321 90 318 133 q 329 -5 323 47 l 167 -5 q 177 90 173 47 q 184 178 181 133 l 69 178 l 64 277 l 187 279 l 187 298 l 179 330 l 69 330 l 64 429 l 155 432 z "},"æ":{"ha":732,"x_min":16,"x_max":708,"o":"m 708 18 q 594 -10 646 -3 q 509 -17 542 -17 q 448 -6 475 -17 q 401 23 422 4 q 365 69 380 42 q 336 129 349 96 q 315 85 327 104 q 290 52 303 66 q 262 28 277 37 q 235 12 248 18 q 171 -4 204 -3 q 110 11 138 -4 q 60 50 81 25 q 27 105 39 74 q 16 171 16 137 q 32 247 16 210 q 89 315 49 285 q 182 385 142 357 q 247 435 221 412 q 286 478 273 458 q 298 526 298 499 q 283 593 298 571 q 244 615 269 615 q 219 607 229 615 q 202 587 208 600 q 192 559 195 574 q 189 529 189 544 q 190 507 189 519 q 195 481 191 494 l 39 478 q 37 500 37 490 q 36 521 36 511 q 51 614 36 576 q 88 677 66 652 q 137 717 111 703 q 188 739 164 732 q 229 747 212 745 q 249 749 245 749 q 336 731 301 749 q 392 684 370 714 q 449 732 417 715 q 518 749 480 749 q 594 728 560 749 q 653 663 629 707 q 691 553 677 620 q 704 395 704 486 q 700 288 704 343 l 460 256 q 468 208 463 231 q 484 169 474 186 q 507 141 494 151 q 541 131 521 131 q 558 132 543 131 q 594 134 572 132 q 641 138 615 136 q 690 146 666 141 l 708 18 m 191 131 q 235 144 216 131 q 265 179 253 157 q 285 228 277 201 q 297 283 293 255 q 302 337 301 311 q 304 382 304 363 q 283 355 294 367 q 264 335 273 344 q 245 317 254 325 q 212 288 230 304 q 180 254 195 272 q 156 218 165 237 q 146 182 146 199 q 159 147 146 163 q 191 131 172 131 m 456 371 l 568 392 l 568 418 q 559 507 568 475 q 541 553 551 538 q 513 574 528 571 q 481 555 493 572 q 464 514 470 539 q 457 456 458 488 q 456 392 456 425 l 456 371 z "},"Æ":{"ha":679,"x_min":-9,"x_max":663,"o":"m 663 -1 q 589 1 625 0 q 518 1 554 1 q 414 0 466 1 q 307 -5 362 -2 l 315 184 q 257 189 286 186 q 200 191 229 191 l 192 191 l 158 0 l -9 3 q 123 486 60 245 q 239 971 186 726 q 304 969 270 970 q 369 968 333 968 q 441 968 405 968 q 498 968 471 968 q 549 970 524 969 q 599 973 574 971 q 650 977 624 975 l 650 821 q 485 836 566 836 l 458 836 q 450 667 452 751 q 446 498 447 583 q 481 497 463 497 q 518 497 499 497 q 550 497 534 497 q 583 498 566 497 l 583 363 q 541 365 562 364 q 497 366 519 366 q 472 365 485 366 q 446 364 458 364 l 443 122 q 551 127 498 123 q 663 140 604 132 l 663 -1 m 317 772 q 263 537 290 654 q 214 301 237 420 q 243 300 229 300 q 273 300 258 300 l 318 300 q 320 397 319 349 q 321 494 321 446 q 317 772 321 632 z "},"≠":{"ha":446,"x_min":36,"x_max":408,"o":"m 379 746 q 367 718 374 734 q 335 642 354 688 l 408 640 l 408 515 l 285 514 l 252 422 l 408 418 l 408 293 l 208 292 q 193 240 200 266 q 179 189 185 214 q 138 196 159 193 q 97 201 119 199 q 54 201 75 203 l 94 292 l 36 292 l 36 428 l 147 425 l 182 514 l 36 514 l 36 650 l 229 644 q 245 690 238 669 q 258 726 252 711 q 268 757 264 743 l 379 746 z "},"™":{"ha":612,"x_min":50,"x_max":574,"o":"m 496 561 q 498 660 497 610 q 500 752 500 703 q 501 843 501 801 q 489 784 496 817 q 476 714 482 751 q 464 640 469 678 q 454 567 458 602 l 390 568 l 339 848 q 339 772 339 815 q 339 689 339 730 q 341 613 340 648 q 345 562 342 579 l 254 558 q 262 611 259 581 q 268 672 266 640 q 271 737 270 704 q 271 800 271 770 q 268 949 271 872 q 305 945 286 946 q 341 944 325 944 q 379 945 360 944 l 424 679 q 437 769 431 722 q 446 856 442 816 q 454 947 451 903 q 488 946 470 947 q 525 946 504 945 q 570 947 546 946 q 565 773 564 846 q 567 654 565 701 q 574 562 570 598 l 496 561 m 231 895 l 171 895 q 168 812 168 855 q 167 725 167 769 q 169 639 168 682 q 172 559 170 597 l 103 559 q 107 639 105 597 q 112 725 110 682 q 114 812 113 769 q 114 895 115 855 q 79 894 95 895 q 50 893 62 893 l 50 950 q 92 949 68 949 q 142 948 117 949 q 192 948 168 948 q 233 949 216 948 l 231 895 z "},"$":{"ha":317,"x_min":24,"x_max":292,"o":"m 180 741 q 232 731 204 739 q 292 711 260 724 l 283 595 q 253 613 269 606 q 224 623 237 620 q 193 629 208 627 q 157 610 172 627 q 142 567 142 593 q 153 526 142 543 q 179 493 163 508 q 215 462 195 477 q 251 427 234 446 q 279 381 267 407 q 292 319 290 355 q 281 259 292 285 q 255 214 271 233 q 217 184 238 196 q 174 168 195 173 l 179 -43 l 119 -43 l 125 163 q 111 163 121 163 q 85 167 100 164 q 55 177 71 170 q 25 195 39 183 l 31 309 q 71 286 50 294 q 107 273 91 277 q 144 268 126 269 q 176 321 176 286 q 165 355 176 338 q 137 388 154 371 q 100 424 120 405 q 63 466 80 443 q 35 518 46 490 q 24 583 24 547 q 53 682 24 642 q 129 734 82 721 l 123 937 l 183 937 l 180 741 z "},"¢":{"ha":310,"x_min":21,"x_max":290,"o":"m 229 534 q 268 525 251 530 q 290 514 284 519 l 282 397 q 262 412 274 407 q 239 420 250 418 q 218 423 227 422 q 205 424 208 424 q 177 411 189 424 q 156 373 164 397 q 142 314 147 349 q 138 239 138 280 q 144 164 138 197 q 166 106 151 131 q 209 68 182 82 q 277 52 236 54 l 273 -35 q 256 -36 264 -36 q 239 -36 248 -36 q 177 -30 204 -36 q 131 -14 151 -23 l 102 -224 l 41 -224 l 86 12 q 75 22 79 17 q 72 26 73 25 q 50 66 59 42 q 34 119 40 90 q 24 181 27 148 q 21 250 21 215 q 29 359 21 305 q 53 454 37 412 q 76 494 62 478 q 107 520 90 511 q 143 534 124 530 q 180 539 162 538 l 212 757 l 272 757 l 229 534 z "},"Þ":{"ha":463,"x_min":37,"x_max":452,"o":"m 447 428 q 409 294 438 356 q 378 241 397 268 q 334 192 360 215 q 275 151 309 169 q 199 123 241 133 q 200 62 200 92 q 203 -5 201 31 l 37 -5 q 58 490 54 239 q 52 989 62 741 q 142 984 98 985 q 222 982 186 982 l 205 798 l 225 796 q 274 785 248 794 q 328 759 301 777 q 378 712 354 741 q 419 644 402 684 q 445 550 437 604 q 447 428 452 496 m 203 686 q 197 558 199 616 q 194 446 195 499 q 193 343 193 393 q 195 239 193 292 q 233 260 216 247 q 262 291 250 274 q 282 327 274 308 q 296 363 291 345 q 311 456 309 406 q 298 559 310 512 q 284 600 292 580 q 266 637 277 620 q 239 667 254 654 q 203 686 223 680 z "},"ß":{"ha":607,"x_min":8,"x_max":602,"o":"m 293 1026 q 379 1008 338 1026 q 450 959 420 990 q 498 886 480 928 q 515 798 515 845 q 508 734 515 763 q 488 682 500 706 q 463 638 476 659 q 437 599 449 618 q 417 563 425 581 q 410 526 410 545 q 424 467 410 492 q 458 419 437 441 q 503 375 479 397 q 549 326 528 353 q 585 262 570 298 q 602 175 600 226 q 582 75 602 115 q 531 10 562 35 q 465 -25 501 -15 q 397 -36 429 -36 q 351 -31 374 -35 q 309 -18 332 -26 q 269 7 287 -9 l 275 161 q 325 131 300 142 q 371 115 350 120 q 418 107 395 109 q 448 136 437 117 q 458 178 458 155 q 444 236 458 210 q 409 286 430 262 q 363 334 388 310 q 317 387 338 358 q 282 451 296 415 q 268 533 268 486 q 275 589 268 566 q 294 630 283 612 q 317 663 304 648 q 341 693 330 678 q 359 726 352 709 q 367 766 367 743 q 360 815 367 795 q 343 849 353 836 q 320 868 333 862 q 296 875 308 875 q 256 861 272 875 q 231 810 241 848 q 217 705 222 772 q 212 532 213 638 q 210 357 211 447 q 209 274 210 318 q 209 185 209 231 q 208 92 208 139 q 208 -1 208 44 l 77 -5 q 71 298 72 168 q 69 521 69 428 l 69 589 l 8 589 l 8 710 l 71 710 q 73 768 72 749 q 74 787 73 780 q 92 886 74 842 q 140 961 110 930 q 210 1009 170 992 q 293 1026 250 1026 z "},"µ":{"ha":509,"x_min":43,"x_max":482,"o":"m 482 669 q 474 453 477 560 q 472 239 472 347 q 472 113 472 175 q 475 -14 473 50 l 340 -17 l 340 68 q 295 17 320 35 q 247 -8 270 -1 q 208 -17 224 -16 q 189 -18 192 -18 q 177 -15 182 -17 q 167 -11 172 -13 l 186 -268 l 43 -268 l 43 302 q 47 408 43 354 q 57 513 51 461 q 71 613 63 565 q 86 704 79 662 l 233 701 q 221 614 227 661 q 210 519 214 568 q 202 421 205 470 q 199 328 199 372 q 202 252 199 287 q 213 190 205 216 q 232 150 220 164 q 261 135 243 135 q 299 163 284 135 q 323 236 314 191 q 335 337 332 281 q 338 450 338 393 q 336 532 338 493 q 333 601 334 570 q 329 667 331 636 l 482 669 z "},"ƒ":{"ha":425,"x_min":-64,"x_max":419,"o":"m -47 -110 q -19 -128 -33 -123 q 7 -132 -5 -132 q 60 -111 40 -132 q 91 -54 80 -89 q 105 24 102 -20 q 109 111 109 67 l 109 589 l 45 589 l 45 707 l 110 707 l 110 787 q 122 897 109 850 q 159 974 135 943 q 218 1021 184 1005 q 296 1036 253 1036 q 355 1028 324 1036 q 419 1003 386 1021 l 403 857 q 374 874 388 869 q 349 879 360 879 q 304 864 322 879 q 275 826 286 850 q 258 770 264 802 q 250 707 252 739 l 361 707 l 361 589 l 248 589 l 248 -40 q 234 -143 248 -97 q 196 -222 220 -189 q 136 -273 171 -255 q 60 -290 102 -290 q 0 -282 31 -290 q -64 -256 -31 -273 l -47 -110 z "},"∫":{"ha":435,"x_min":-3,"x_max":439,"o":"m 14 -12 q 42 -30 28 -26 q 68 -35 56 -35 q 102 -22 88 -35 q 123 12 115 -9 q 136 60 132 33 q 141 113 140 86 q 142 165 142 140 q 142 208 142 191 q 142 364 142 288 q 142 512 142 441 q 142 645 142 583 q 143 758 142 707 q 143 844 143 808 q 143 899 143 880 q 315 1147 143 1147 q 375 1139 344 1147 q 439 1114 406 1131 l 422 982 q 394 1000 408 995 q 368 1004 380 1004 q 319 983 336 1004 q 293 929 301 962 q 282 856 284 897 q 281 777 281 815 l 281 71 q 272 -33 281 14 q 243 -111 262 -79 q 193 -161 224 -144 q 121 -179 163 -179 q 61 -171 92 -179 q -3 -144 31 -162 l 14 -12 z "},"%":{"ha":621,"x_min":21,"x_max":600,"o":"m 301 714 q 290 620 301 659 q 260 554 279 580 q 215 515 241 528 q 161 503 190 503 q 107 515 133 503 q 62 553 81 527 q 32 618 43 578 q 21 714 21 659 q 32 812 21 772 q 62 877 43 852 q 107 913 81 902 q 161 924 133 924 q 215 912 190 924 q 260 874 241 900 q 290 809 279 849 q 301 714 301 770 m 207 714 q 194 828 207 793 q 161 863 180 863 q 143 855 151 863 q 128 830 134 848 q 119 784 122 812 q 115 714 115 755 q 129 600 115 635 q 161 564 142 564 q 194 600 181 564 q 207 714 207 636 m 600 257 q 589 162 600 202 q 559 96 578 122 q 514 58 540 71 q 460 46 488 46 q 406 58 431 46 q 361 96 380 71 q 331 161 342 121 q 319 257 319 201 q 331 355 319 315 q 361 419 342 395 q 406 455 380 444 q 460 467 431 467 q 514 455 488 467 q 559 417 540 443 q 589 352 578 392 q 600 257 600 313 m 505 257 q 492 370 505 335 q 460 406 479 406 q 441 398 450 406 q 427 372 433 390 q 417 327 420 355 q 414 257 414 298 q 427 142 414 178 q 460 107 440 107 q 492 143 479 107 q 505 257 505 178 m 524 868 q 453 717 491 801 q 374 535 416 633 q 289 327 333 437 q 200 94 245 216 q 159 103 179 99 q 123 109 142 106 q 90 111 104 112 q 152 234 120 167 q 217 374 184 302 q 279 518 249 446 q 336 659 310 591 q 384 784 363 726 q 416 885 404 842 l 524 868 z "},"¹":{"ha":236,"x_min":-4,"x_max":199,"o":"m 199 917 q 190 755 193 837 q 187 596 187 674 l 187 513 l 98 513 q 101 624 100 566 q 103 737 103 682 q 102 783 103 758 q 102 831 102 808 l 46 794 l -4 842 q 58 881 26 861 q 114 920 89 902 l 199 917 z "},"²":{"ha":283,"x_min":24,"x_max":250,"o":"m 250 804 q 241 744 250 774 q 215 685 231 713 q 179 629 199 656 q 136 576 158 602 l 248 576 l 248 514 l 36 514 l 36 578 q 79 627 56 600 q 121 684 102 654 q 153 746 140 713 q 165 811 165 778 q 155 840 165 832 q 121 848 144 848 q 99 844 111 848 q 76 833 89 840 q 47 814 62 826 l 24 885 q 53 906 37 898 q 85 918 69 913 q 116 923 102 922 q 139 924 130 924 q 191 914 170 924 q 225 887 212 904 q 244 849 238 871 q 250 804 250 827 z "},"³":{"ha":286,"x_min":21,"x_max":262,"o":"m 262 618 q 248 564 262 586 q 212 528 233 542 q 168 508 191 514 q 125 501 144 501 q 117 502 124 501 q 96 505 109 503 q 66 513 83 508 q 28 529 48 519 l 41 608 q 71 590 57 596 q 96 580 85 583 q 119 575 108 576 q 156 590 142 575 q 170 624 170 605 q 163 646 170 635 q 144 663 156 656 q 116 676 132 671 q 81 682 100 681 l 81 736 q 110 752 96 743 q 134 772 124 761 q 151 795 144 783 q 157 821 157 808 q 147 845 157 832 q 117 857 138 857 q 94 852 111 857 q 47 825 77 847 l 21 889 q 59 911 40 903 q 94 924 77 920 q 122 928 110 928 q 142 929 135 929 q 185 921 165 929 q 221 900 205 913 q 244 868 236 886 q 253 829 253 850 q 230 769 253 798 q 168 720 206 741 q 220 688 201 706 q 248 655 239 671 q 262 618 260 637 z "},"¾":{"ha":603,"x_min":22,"x_max":575,"o":"m 510 868 q 439 717 477 801 q 360 535 401 633 q 275 327 319 437 q 186 94 231 216 q 174 98 186 95 q 146 103 163 100 q 110 109 129 106 q 77 111 91 111 q 139 234 106 167 q 203 374 171 302 q 266 518 235 446 q 322 659 296 591 q 369 784 349 726 q 403 885 390 842 l 510 868 m 454 439 q 440 341 446 391 q 432 244 434 291 l 485 244 q 486 285 486 265 q 486 325 486 305 q 486 390 486 357 q 484 454 485 422 l 575 454 q 570 336 571 395 q 568 220 568 277 q 569 136 568 179 q 571 53 570 94 l 476 53 q 480 118 479 85 q 484 186 482 151 l 332 184 q 364 439 353 307 l 454 439 m 264 618 q 249 564 264 586 q 214 528 235 542 q 169 508 193 514 q 126 501 145 501 q 118 502 125 501 q 98 505 111 503 q 67 513 85 508 q 29 529 50 519 l 43 608 q 72 590 58 596 q 97 580 86 583 q 121 575 109 576 q 157 590 144 575 q 171 624 171 605 q 164 646 171 635 q 145 663 157 656 q 117 676 134 671 q 82 682 101 681 l 82 736 q 112 752 98 743 q 136 772 125 761 q 152 795 146 783 q 158 821 158 808 q 149 845 158 832 q 118 857 139 857 q 95 852 113 857 q 49 825 78 847 l 22 889 q 60 911 41 903 q 95 924 79 920 q 124 928 111 928 q 143 929 136 929 q 186 921 166 929 q 222 900 207 913 q 246 868 237 886 q 254 829 254 850 q 231 769 254 798 q 170 720 208 741 q 221 688 202 706 q 250 655 240 671 q 264 618 261 637 z "},"‰":{"ha":935,"x_min":21,"x_max":914,"o":"m 301 714 q 290 620 301 659 q 260 554 279 580 q 215 515 241 528 q 161 503 190 503 q 107 515 133 503 q 62 553 81 527 q 32 618 43 578 q 21 714 21 659 q 32 812 21 772 q 62 877 43 852 q 107 913 81 902 q 161 924 133 924 q 215 912 190 924 q 260 874 241 900 q 290 809 279 849 q 301 714 301 770 m 207 714 q 194 828 207 793 q 161 863 180 863 q 143 855 151 863 q 128 830 134 848 q 119 784 122 812 q 115 714 115 755 q 129 600 115 635 q 161 564 142 564 q 194 600 181 564 q 207 714 207 636 m 600 257 q 589 162 600 202 q 559 96 578 122 q 514 58 540 71 q 460 46 488 46 q 406 58 431 46 q 361 96 380 71 q 331 161 342 121 q 319 257 319 201 q 331 355 319 315 q 361 419 342 395 q 406 455 380 444 q 460 467 431 467 q 514 455 488 467 q 559 417 540 443 q 589 352 578 392 q 600 257 600 313 m 505 257 q 492 370 505 335 q 460 406 479 406 q 441 398 450 406 q 427 372 433 390 q 417 327 420 355 q 414 257 414 298 q 427 142 414 178 q 460 107 440 107 q 492 143 479 107 q 505 257 505 178 m 524 868 q 453 717 491 801 q 374 535 416 633 q 289 327 333 437 q 200 94 245 216 q 159 103 179 99 q 123 109 142 106 q 90 111 104 112 q 152 234 120 167 q 217 374 184 302 q 279 518 249 446 q 336 659 310 591 q 384 784 363 726 q 416 885 404 842 l 524 868 m 914 257 q 903 162 914 202 q 872 96 892 122 q 828 58 853 71 q 774 46 802 46 q 720 58 745 46 q 675 96 694 71 q 645 161 656 121 q 633 257 633 201 q 645 355 633 315 q 675 419 656 395 q 720 455 694 444 q 774 467 745 467 q 828 455 802 467 q 872 417 853 443 q 903 352 892 392 q 914 257 914 313 m 819 257 q 806 370 819 335 q 774 406 793 406 q 755 398 764 406 q 741 372 747 390 q 731 327 734 355 q 728 257 728 298 q 741 142 728 178 q 774 107 754 107 q 806 143 793 107 q 819 257 819 178 z "},"½":{"ha":589,"x_min":18,"x_max":561,"o":"m 489 868 q 419 717 456 801 q 340 535 381 633 q 255 327 298 437 q 165 94 211 216 q 154 98 165 95 q 125 103 142 100 q 89 109 108 106 q 56 111 70 111 q 118 234 85 167 q 182 374 150 302 q 245 518 214 446 q 301 659 275 591 q 349 784 328 726 q 382 885 370 842 l 489 868 m 221 917 q 212 755 214 837 q 210 596 210 674 l 210 513 l 121 513 q 123 624 122 566 q 125 737 125 682 q 124 783 125 758 q 123 831 123 808 l 68 794 l 18 842 q 80 881 49 861 q 136 920 111 902 l 221 917 m 559 317 q 555 298 559 314 q 541 254 552 281 q 507 191 530 227 q 447 113 485 155 l 558 113 l 558 50 l 347 50 l 347 114 q 390 163 368 136 q 432 220 413 190 q 464 282 451 250 q 476 347 476 314 q 466 376 476 368 q 432 385 455 385 q 410 380 422 384 q 387 369 400 376 q 358 350 374 362 l 335 421 q 364 442 348 434 q 397 454 380 450 q 427 459 413 458 q 450 460 441 460 q 501 450 480 460 q 535 424 522 440 q 555 385 549 407 q 561 340 561 363 q 561 329 561 335 q 559 317 561 323 z "},"¼":{"ha":583,"x_min":18,"x_max":554,"o":"m 489 868 q 419 717 456 801 q 340 535 381 633 q 255 327 298 437 q 165 94 211 216 q 154 98 165 95 q 125 103 142 100 q 89 109 108 106 q 56 111 70 111 q 118 234 85 167 q 182 374 150 302 q 245 518 214 446 q 301 659 275 591 q 349 784 328 726 q 382 885 370 842 l 489 868 m 433 439 q 419 341 425 391 q 411 244 413 291 l 464 244 q 465 285 465 265 q 465 325 465 305 q 465 390 465 357 q 463 454 464 422 l 554 454 q 549 336 550 395 q 547 220 547 277 q 548 136 547 179 q 550 53 549 94 l 456 53 q 459 118 458 85 q 463 186 461 151 l 311 184 q 330 310 321 246 q 343 439 338 373 l 433 439 m 221 917 q 212 755 214 837 q 210 596 210 674 l 210 513 l 121 513 q 123 624 122 566 q 125 737 125 682 q 124 783 125 758 q 123 831 123 808 l 68 794 l 18 842 q 80 881 49 861 q 136 920 111 902 l 221 917 z "},"ª":{"ha":317,"x_min":22,"x_max":278,"o":"m 278 703 q 277 647 277 675 q 277 592 277 623 q 275 532 277 562 l 200 536 l 201 576 q 174 551 189 560 q 146 538 159 543 q 115 533 130 534 q 79 541 96 533 q 49 560 62 548 q 30 588 37 572 q 22 621 22 604 q 33 659 22 640 q 66 693 43 677 q 122 727 99 713 q 161 752 146 741 q 184 774 177 764 q 192 799 192 785 q 183 832 192 821 q 160 843 174 843 q 135 830 143 843 q 126 799 126 817 q 126 788 126 793 q 129 775 127 783 l 36 774 q 35 784 35 779 q 35 794 35 789 q 40 830 35 814 q 53 859 45 846 q 72 879 62 871 q 94 893 83 888 q 154 909 121 906 q 221 896 196 909 q 258 861 245 883 q 274 811 271 840 q 278 751 278 782 l 278 703 m 127 600 q 153 606 141 600 q 175 626 165 612 q 190 664 184 640 q 196 725 195 688 q 161 691 178 703 q 130 671 144 680 q 108 653 117 663 q 100 627 100 644 q 108 608 100 616 q 127 600 116 600 z "},"º":{"ha":294,"x_min":24,"x_max":271,"o":"m 271 728 q 258 626 271 665 q 225 563 245 586 q 184 531 206 540 q 144 522 162 522 q 108 530 129 522 q 68 558 87 537 q 37 618 50 580 q 24 717 24 656 q 37 815 24 777 q 69 877 50 854 q 110 909 88 900 q 149 918 132 918 q 193 908 171 918 q 232 876 214 899 q 260 817 249 854 q 271 728 271 781 m 183 725 q 173 818 183 791 q 146 844 163 844 q 109 713 109 844 q 120 616 109 646 q 150 587 132 587 q 175 624 168 587 q 183 725 183 660 z "},"®":{"ha":364,"x_min":28,"x_max":336,"o":"m 336 734 q 324 619 336 664 q 290 548 311 574 q 239 512 268 522 q 179 503 211 503 q 120 511 148 503 q 72 543 93 519 q 40 610 52 567 q 28 721 28 652 q 41 836 28 791 q 76 906 54 880 q 126 941 98 931 q 182 950 153 950 q 238 943 210 950 q 288 912 266 935 q 323 847 310 889 q 336 734 336 804 m 289 733 q 280 829 289 793 q 255 884 271 865 q 221 909 240 903 q 183 916 202 916 q 144 907 163 916 q 111 878 125 899 q 87 819 96 857 q 78 724 78 782 q 86 630 78 666 q 108 574 94 594 q 140 546 121 553 q 180 539 159 539 q 226 550 204 539 q 264 589 248 560 l 210 586 l 168 686 q 171 636 168 661 q 175 587 173 611 l 115 587 q 123 775 123 681 q 123 828 123 802 q 121 882 122 854 q 145 886 134 885 q 167 886 157 886 q 192 884 176 886 q 223 872 208 882 q 250 845 238 863 q 261 796 261 827 q 248 739 261 766 q 204 697 235 712 q 233 644 218 669 q 267 596 248 619 q 283 652 277 619 q 289 733 289 685 m 168 718 q 195 732 185 722 q 208 754 204 743 q 214 783 213 767 q 213 793 214 784 q 209 814 212 802 q 197 837 205 826 q 175 852 189 848 q 170 787 171 820 q 168 721 168 754 l 168 718 z "},"©":{"ha":534,"x_min":36,"x_max":498,"o":"m 366 273 q 337 265 351 268 q 312 260 323 262 q 288 258 299 258 q 244 268 268 258 q 199 302 220 277 q 164 372 178 328 q 150 486 150 416 q 158 568 150 533 q 178 628 165 603 q 207 668 191 652 q 240 693 223 684 q 272 706 256 703 q 298 710 287 710 q 319 708 309 710 q 338 703 328 707 q 354 694 347 700 l 347 633 q 311 642 327 642 q 284 635 296 642 q 263 617 272 628 q 249 591 255 606 q 239 562 243 576 q 229 482 231 526 q 240 403 231 437 q 250 374 244 388 q 265 348 256 359 q 286 330 274 337 q 314 323 298 323 q 332 326 322 323 q 353 334 341 328 l 366 273 m 428 488 q 422 590 428 547 q 405 663 416 633 q 378 712 393 693 q 346 742 363 731 q 309 756 328 752 q 271 760 290 760 q 212 747 241 760 q 161 703 184 735 q 125 615 139 671 q 111 472 111 559 q 123 331 111 385 q 157 247 136 277 q 206 205 178 216 q 267 195 234 195 q 329 208 299 195 q 380 253 358 220 q 415 343 402 286 q 428 488 428 399 m 498 489 q 480 315 498 383 q 429 209 461 248 q 354 155 397 170 q 262 140 311 140 q 174 153 216 140 q 102 201 133 165 q 54 301 72 237 q 36 469 36 366 q 45 592 36 539 q 71 683 54 644 q 109 746 87 721 q 157 785 132 770 q 211 806 183 800 q 268 812 239 812 q 325 808 296 812 q 378 791 353 804 q 426 756 404 779 q 464 698 448 734 q 489 610 480 662 q 498 489 498 559 z "},"∏":{"ha":555,"x_min":20,"x_max":536,"o":"m 532 832 q 491 833 515 833 q 436 835 467 833 q 428 629 430 736 q 426 412 425 521 q 430 197 427 303 q 437 -3 433 92 l 293 -3 q 301 198 298 92 q 306 413 304 304 q 305 629 307 522 q 300 835 304 737 l 256 835 q 247 629 250 737 q 245 413 245 522 q 250 198 246 304 q 257 -3 253 92 l 113 -3 q 120 197 117 92 q 124 412 123 303 q 124 628 125 521 q 119 833 123 736 q 62 833 88 833 q 20 831 36 832 l 21 972 q 86 970 45 971 q 176 968 127 968 q 278 967 225 967 q 381 966 332 966 q 472 967 431 966 q 536 968 513 967 l 532 832 z "},"π":{"ha":559,"x_min":5,"x_max":554,"o":"m 550 574 q 508 574 531 574 q 456 575 484 575 q 454 462 454 528 q 453 320 453 396 q 453 161 452 243 q 456 -1 454 78 l 307 -4 q 312 170 310 86 q 315 327 314 253 q 317 464 317 401 q 317 575 317 526 l 248 575 q 245 461 246 528 q 244 319 244 395 q 244 160 243 243 q 248 -1 245 78 l 98 -4 q 103 169 101 86 q 107 325 106 252 q 109 460 109 398 q 109 572 109 523 q 51 570 77 571 q 5 567 25 568 l 11 715 q 83 711 40 713 q 177 708 127 709 q 281 706 227 707 q 386 707 336 706 q 480 708 437 707 q 554 711 524 709 l 550 574 z "},"…":{"ha":616,"x_min":22,"x_max":595,"o":"m 183 56 q 177 24 183 39 q 159 -1 170 9 q 134 -19 149 -12 q 103 -25 119 -25 q 72 -19 86 -25 q 46 -1 57 -12 q 29 24 35 9 q 22 56 22 39 q 29 87 22 72 q 46 113 35 102 q 72 130 57 123 q 103 136 86 136 q 134 130 119 136 q 159 113 149 123 q 177 87 170 102 q 183 56 183 72 m 389 56 q 382 24 389 39 q 365 -1 376 9 q 339 -19 354 -12 q 309 -25 325 -25 q 277 -19 292 -25 q 252 -1 262 -12 q 234 24 241 9 q 228 56 228 39 q 234 87 228 72 q 252 113 241 102 q 277 130 262 123 q 309 136 292 136 q 339 130 325 136 q 365 113 354 123 q 382 87 376 102 q 389 56 389 72 m 595 56 q 588 24 595 39 q 571 -1 582 9 q 545 -19 560 -12 q 514 -25 530 -25 q 483 -19 497 -25 q 457 -1 468 -12 q 440 24 446 9 q 433 56 433 39 q 440 87 433 72 q 457 113 446 102 q 483 130 468 123 q 514 136 497 136 q 545 130 530 136 q 571 113 560 123 q 588 87 582 102 q 595 56 595 72 z "},"ﬁ":{"ha":608,"x_min":11,"x_max":614,"o":"m 614 901 q 607 862 614 880 q 587 831 601 844 q 553 810 574 818 q 504 803 532 803 q 429 822 454 803 q 397 872 404 842 q 338 880 368 880 q 290 875 310 880 q 255 851 269 869 q 233 800 241 833 q 221 708 224 766 l 574 704 q 567 624 570 667 q 562 535 564 581 q 559 443 559 490 q 558 350 558 395 q 559 248 558 297 q 562 157 560 199 q 566 84 564 116 q 572 35 569 52 q 516 33 545 35 q 460 30 491 32 q 397 24 429 28 q 413 252 409 151 q 416 435 416 354 q 416 514 416 477 q 414 581 415 551 l 215 585 l 215 532 q 213 357 214 447 q 212 274 212 318 q 211 185 212 231 q 211 92 211 139 q 211 -1 211 44 l 79 -5 q 75 189 77 100 q 73 350 73 277 q 72 482 72 423 q 72 587 72 541 l 11 589 l 11 711 l 74 710 q 76 768 75 749 q 77 787 77 780 q 96 887 77 843 q 149 963 116 932 q 227 1010 182 994 q 319 1026 271 1026 q 411 1021 366 1026 q 504 1000 456 1016 q 552 982 532 991 q 587 962 573 973 q 607 936 600 951 q 614 901 614 922 z "},"ﬂ":{"ha":571,"x_min":11,"x_max":526,"o":"m 526 18 q 486 16 509 18 q 442 12 467 14 q 386 7 416 10 q 377 317 382 176 q 367 569 372 458 q 358 762 362 681 q 351 890 354 842 q 335 893 343 892 q 321 895 327 895 q 267 878 286 895 q 238 833 248 861 q 227 773 229 806 q 221 707 224 739 l 328 707 l 328 583 l 215 583 l 215 532 q 213 357 214 447 q 212 274 212 318 q 211 185 212 231 q 211 92 211 139 q 211 -1 211 44 l 79 -5 q 74 298 75 168 q 72 521 72 428 l 72 589 l 11 589 l 11 707 l 74 707 q 76 768 75 747 q 77 787 77 779 q 92 896 77 849 q 134 975 106 943 q 201 1022 162 1006 q 289 1038 241 1038 q 365 1030 329 1038 q 430 1012 400 1023 q 483 989 460 1001 q 522 970 507 978 l 522 968 l 524 968 q 524 692 524 814 q 524 474 524 570 q 525 308 524 379 q 525 186 525 237 q 526 18 526 68 z "}," ":{"ha":229,"x_min":0,"x_max":0,"o":""},"­":{"ha":449,"x_min":39,"x_max":411,"o":"m 411 529 l 411 404 l 39 403 l 39 539 l 411 529 z "},"ȷ":{"ha":233,"x_min":-139,"x_max":193,"o":"m 193 182 q 193 94 193 140 q 188 2 193 47 q 171 -84 183 -43 q 135 -157 159 -125 q 73 -207 111 -188 q -24 -225 34 -225 q -72 -222 -50 -225 q -108 -215 -93 -219 q -139 -204 -125 -210 l -134 -69 q -101 -75 -119 -73 q -66 -79 -86 -77 q -25 -81 -47 -81 q 37 -20 20 -81 q 54 164 54 41 q 53 252 54 205 q 50 347 52 298 q 46 444 48 395 q 41 537 43 492 q 29 747 36 642 l 182 747 q 187 519 184 627 q 189 424 188 473 q 191 331 191 376 q 193 248 192 286 q 193 182 193 209 z "},"̒":{"ha":196,"x_min":36,"x_max":164,"o":"m 36 817 q 40 851 36 836 q 51 880 43 867 q 69 907 58 894 q 93 933 79 920 l 134 916 q 125 905 130 911 q 111 875 117 893 q 149 853 134 871 q 164 811 164 835 q 159 787 164 798 q 145 766 154 775 q 125 752 137 758 q 100 747 113 747 q 54 767 73 747 q 36 817 36 786 z "},"̕":{"ha":195,"x_min":32,"x_max":160,"o":"m 160 869 q 156 833 160 849 q 145 802 153 817 q 128 775 138 788 q 103 747 117 762 l 62 765 q 71 776 66 770 q 77 789 74 781 q 83 806 81 796 q 47 828 62 810 q 32 869 32 846 q 37 894 32 882 q 50 914 41 905 q 71 928 59 923 q 96 933 82 933 q 121 928 109 933 q 141 914 133 923 q 155 894 150 905 q 160 869 160 882 z "},"̦":{"ha":207,"x_min":39,"x_max":167,"o":"m 167 -106 q 163 -142 167 -126 q 152 -173 159 -159 q 135 -200 145 -187 q 110 -228 124 -214 l 69 -210 q 77 -199 73 -205 q 84 -186 81 -193 q 90 -170 87 -179 q 54 -148 68 -165 q 39 -106 39 -130 q 43 -81 39 -93 q 57 -60 48 -69 q 78 -46 66 -52 q 103 -41 90 -41 q 128 -46 117 -41 q 149 -60 140 -52 q 162 -81 157 -69 q 167 -106 167 -93 z "},"¤":{"ha":456,"x_min":49,"x_max":407,"o":"m 277 467 q 262 502 277 488 q 227 515 248 515 q 193 502 208 515 q 178 467 178 488 q 193 433 178 448 q 227 419 208 419 q 262 433 248 419 q 277 467 277 448 m 313 292 q 291 319 302 305 q 268 346 279 332 q 248 341 258 342 q 228 339 238 339 q 208 340 217 339 q 189 345 199 341 q 166 318 178 332 q 144 292 155 305 l 49 387 q 76 409 62 398 q 103 431 90 419 q 98 448 100 439 q 97 467 97 457 q 104 509 97 488 q 77 532 91 521 q 49 554 62 543 l 144 650 l 189 590 q 228 597 208 597 q 249 595 238 597 q 271 589 260 593 q 294 616 282 602 q 318 643 305 629 l 407 555 q 378 532 392 544 q 351 509 365 520 q 356 488 355 498 q 358 467 358 477 q 350 422 358 443 q 374 400 361 411 q 400 380 387 390 l 313 292 z "},"Ā":{"ha":489,"x_min":5,"x_max":490,"o":"m 322 -5 q 316 89 319 41 q 309 184 313 136 q 251 189 279 186 q 195 191 223 191 l 186 191 q 180 94 182 142 q 175 0 177 47 l 5 3 q 81 486 47 245 q 139 971 115 726 l 343 968 q 405 487 369 726 q 490 5 441 248 l 322 -5 m 243 800 q 217 551 229 675 q 195 301 205 427 q 224 300 209 300 q 254 300 239 300 l 298 300 q 273 550 287 426 q 243 800 258 674 m 403 1139 l 403 1013 l 85 1018 q 87 1063 86 1041 q 87 1103 87 1082 q 85 1139 87 1123 q 123 1138 101 1138 q 171 1137 146 1137 q 224 1137 197 1137 q 277 1137 251 1137 q 403 1139 337 1138 z "},"Ă":{"ha":489,"x_min":5,"x_max":490,"o":"m 322 -5 q 316 89 319 41 q 309 184 313 136 q 251 189 279 186 q 195 191 223 191 l 186 191 q 180 94 182 142 q 175 0 177 47 l 5 3 q 81 486 47 245 q 139 971 115 726 l 343 968 q 405 487 369 726 q 490 5 441 248 l 322 -5 m 243 800 q 217 551 229 675 q 195 301 205 427 q 224 300 209 300 q 254 300 239 300 l 298 300 q 273 550 287 426 q 243 800 258 674 m 395 1232 q 392 1153 398 1193 q 369 1080 387 1113 q 320 1026 351 1047 q 241 1005 289 1005 q 168 1023 197 1005 q 121 1073 138 1041 q 99 1146 104 1104 q 100 1238 94 1189 l 205 1253 q 204 1208 204 1231 q 207 1167 203 1185 q 220 1136 211 1148 q 248 1124 230 1124 q 273 1134 263 1124 q 289 1160 283 1143 q 297 1200 295 1177 q 298 1249 299 1222 q 330 1241 313 1244 q 361 1236 347 1238 q 395 1232 379 1233 z "},"Ą":{"ha":489,"x_min":5,"x_max":507,"o":"m 507 -176 q 446 -224 475 -208 q 380 -240 416 -240 q 343 -232 360 -240 q 314 -210 326 -224 q 296 -179 302 -197 q 289 -142 289 -161 q 292 -115 289 -130 q 301 -82 294 -100 q 321 -44 309 -64 q 354 -3 334 -24 l 322 -5 q 316 89 319 41 q 309 184 313 136 q 251 189 279 186 q 195 191 223 191 l 186 191 q 180 94 182 142 q 175 0 177 47 l 5 3 q 81 486 47 245 q 139 971 115 726 l 343 968 q 405 487 369 726 q 490 5 441 248 l 431 1 q 410 -24 421 -9 q 389 -54 399 -38 q 373 -88 380 -71 q 367 -123 367 -106 q 374 -141 367 -135 q 392 -147 381 -147 q 426 -134 412 -147 q 453 -106 440 -120 l 507 -176 m 243 800 q 217 551 229 675 q 195 301 205 427 q 224 300 209 300 q 254 300 239 300 l 298 300 q 273 550 287 426 q 243 800 258 674 z "},"Ć":{"ha":431,"x_min":26,"x_max":471,"o":"m 427 17 q 374 -2 400 5 q 328 -12 349 -8 q 282 -16 304 -15 q 230 -7 258 -16 q 173 23 201 2 q 118 82 144 45 q 71 175 92 119 q 39 309 51 231 q 26 490 26 387 q 41 671 26 594 q 79 804 56 749 q 132 895 102 859 q 192 951 161 930 q 251 980 222 972 q 301 987 280 987 q 340 983 321 987 q 374 973 356 980 q 406 954 392 966 l 392 818 q 356 832 373 827 q 325 836 340 836 q 274 821 296 836 q 236 781 252 806 q 209 724 220 755 q 191 659 198 692 q 172 481 174 581 q 192 304 174 382 q 211 240 199 271 q 238 183 222 208 q 276 144 254 159 q 328 129 298 129 q 401 151 359 129 l 427 17 m 361 1297 q 398 1270 378 1284 q 433 1242 417 1255 q 471 1212 452 1227 l 292 1019 l 228 1066 l 361 1297 z "},"Ĉ":{"ha":431,"x_min":26,"x_max":427,"o":"m 427 17 q 374 -2 400 5 q 328 -12 349 -8 q 282 -16 304 -15 q 230 -7 258 -16 q 173 23 201 2 q 118 82 144 45 q 71 175 92 119 q 39 309 51 231 q 26 490 26 387 q 41 671 26 594 q 79 804 56 749 q 132 895 102 859 q 192 951 161 930 q 251 980 222 972 q 301 987 280 987 q 340 983 321 987 q 374 973 356 980 q 406 954 392 966 l 392 818 q 356 832 373 827 q 325 836 340 836 q 274 821 296 836 q 236 781 252 806 q 209 724 220 755 q 191 659 198 692 q 172 481 174 581 q 192 304 174 382 q 211 240 199 271 q 238 183 222 208 q 276 144 254 159 q 328 129 298 129 q 401 151 359 129 l 427 17 m 395 1061 l 289 1022 l 236 1181 l 192 1018 l 87 1059 l 191 1287 l 300 1287 l 395 1061 z "},"Ċ":{"ha":431,"x_min":26,"x_max":427,"o":"m 427 17 q 374 -2 400 5 q 328 -12 349 -8 q 282 -16 304 -15 q 230 -7 258 -16 q 173 23 201 2 q 118 82 144 45 q 71 175 92 119 q 39 309 51 231 q 26 490 26 387 q 41 671 26 594 q 79 804 56 749 q 132 895 102 859 q 192 951 161 930 q 251 980 222 972 q 301 987 280 987 q 340 983 321 987 q 374 973 356 980 q 406 954 392 966 l 392 818 q 356 832 373 827 q 325 836 340 836 q 274 821 296 836 q 236 781 252 806 q 209 724 220 755 q 191 659 198 692 q 172 481 174 581 q 192 304 174 382 q 211 240 199 271 q 238 183 222 208 q 276 144 254 159 q 328 129 298 129 q 401 151 359 129 l 427 17 m 321 1093 q 315 1065 321 1078 q 299 1043 309 1053 q 276 1027 290 1033 q 248 1022 263 1022 q 221 1027 234 1022 q 198 1043 208 1033 q 182 1065 188 1053 q 176 1093 176 1078 q 182 1121 176 1107 q 198 1144 188 1135 q 221 1159 208 1154 q 248 1165 234 1165 q 276 1159 263 1165 q 299 1144 290 1154 q 315 1121 309 1135 q 321 1093 321 1107 z "},"Č":{"ha":431,"x_min":26,"x_max":427,"o":"m 427 17 q 374 -2 400 5 q 328 -12 349 -8 q 282 -16 304 -15 q 230 -7 258 -16 q 173 23 201 2 q 118 82 144 45 q 71 175 92 119 q 39 309 51 231 q 26 490 26 387 q 41 671 26 594 q 79 804 56 749 q 132 895 102 859 q 192 951 161 930 q 251 980 222 972 q 301 987 280 987 q 340 983 321 987 q 374 973 356 980 q 406 954 392 966 l 392 818 q 356 832 373 827 q 325 836 340 836 q 274 821 296 836 q 236 781 252 806 q 209 724 220 755 q 191 659 198 692 q 172 481 174 581 q 192 304 174 382 q 211 240 199 271 q 238 183 222 208 q 276 144 254 159 q 328 129 298 129 q 401 151 359 129 l 427 17 m 397 1244 l 302 1018 l 193 1018 l 90 1246 l 195 1287 l 239 1123 l 292 1283 l 397 1244 z "},"Ď":{"ha":500,"x_min":40,"x_max":472,"o":"m 472 461 q 457 280 472 356 q 416 150 441 203 q 360 63 391 96 q 296 12 328 30 q 233 -13 263 -7 q 179 -20 202 -20 l 40 -8 q 54 270 49 130 q 58 553 58 410 q 56 766 58 661 q 47 978 53 872 q 79 980 64 979 q 110 981 95 981 q 293 942 222 981 q 403 835 363 904 q 457 671 443 766 q 472 461 472 576 m 334 479 q 332 550 334 513 q 327 625 331 588 q 313 698 322 663 q 290 763 304 733 q 255 813 276 792 q 205 843 235 834 q 198 697 201 768 q 193 557 195 627 q 190 420 191 488 q 189 283 189 352 q 189 193 189 239 q 191 100 189 147 q 245 123 222 103 q 284 175 268 144 q 310 244 300 205 q 325 325 319 283 q 332 406 330 366 q 334 479 334 446 m 376 1244 l 281 1018 l 172 1018 l 69 1246 l 174 1287 l 218 1123 l 271 1283 l 376 1244 z "},"Đ":{"ha":517,"x_min":1,"x_max":489,"o":"m 489 461 q 474 280 489 356 q 433 150 458 203 q 377 63 408 96 q 313 12 345 30 q 250 -13 280 -7 q 196 -20 219 -20 l 57 -8 q 67 189 63 90 q 74 389 71 288 l 1 389 l 1 525 l 75 522 q 73 751 75 637 q 64 978 70 865 q 152 980 113 983 q 219 973 191 978 q 275 960 252 968 q 318 940 295 951 q 366 909 342 929 q 412 855 389 888 q 451 768 434 821 q 478 640 468 715 q 489 461 489 565 m 290 390 l 205 390 q 204 247 204 318 q 207 100 205 176 q 261 124 239 104 q 300 175 284 144 q 326 245 316 206 q 341 325 336 283 q 348 406 347 366 q 350 479 350 446 q 349 550 350 513 q 343 625 347 588 q 330 698 338 663 q 307 763 321 733 q 272 813 293 792 q 222 843 252 834 q 214 677 217 757 q 208 518 210 597 l 290 515 l 290 390 z "},"Ē":{"ha":416,"x_min":45,"x_max":400,"o":"m 321 363 q 278 365 300 364 q 235 366 256 366 q 209 365 222 366 q 183 364 196 364 l 180 122 q 289 127 236 123 q 400 140 341 132 l 400 -1 q 327 1 362 0 q 256 1 291 1 q 151 0 203 1 q 45 -5 100 -2 q 55 244 51 121 q 58 494 58 368 q 55 734 58 615 q 45 974 52 853 q 197 968 125 968 q 289 970 243 968 q 387 977 335 972 l 387 821 q 304 832 345 828 q 222 836 263 836 l 196 836 q 187 667 189 751 q 183 498 184 583 q 219 497 201 497 q 256 497 237 497 q 288 497 271 497 q 321 498 304 497 l 321 363 m 374 1140 l 374 1014 l 56 1019 q 58 1065 57 1042 q 58 1104 58 1084 q 56 1140 58 1124 q 94 1139 72 1139 q 142 1138 117 1139 q 195 1138 168 1138 q 248 1139 222 1139 q 374 1140 308 1139 z "},"Ĕ":{"ha":416,"x_min":45,"x_max":400,"o":"m 321 363 q 278 365 300 364 q 235 366 256 366 q 209 365 222 366 q 183 364 196 364 l 180 122 q 289 127 236 123 q 400 140 341 132 l 400 -1 q 327 1 362 0 q 256 1 291 1 q 151 0 203 1 q 45 -5 100 -2 q 55 244 51 121 q 58 494 58 368 q 55 734 58 615 q 45 974 52 853 q 197 968 125 968 q 289 970 243 968 q 387 977 335 972 l 387 821 q 304 832 345 828 q 222 836 263 836 l 196 836 q 187 667 189 751 q 183 498 184 583 q 219 497 201 497 q 256 497 237 497 q 288 497 271 497 q 321 498 304 497 l 321 363 m 366 1230 q 363 1152 369 1192 q 339 1079 357 1112 q 291 1025 321 1046 q 212 1004 260 1004 q 139 1022 168 1004 q 92 1071 109 1040 q 70 1145 75 1103 q 71 1237 65 1187 l 176 1251 q 175 1207 175 1230 q 178 1165 174 1184 q 191 1135 182 1147 q 219 1123 201 1123 q 244 1133 234 1123 q 260 1159 254 1142 q 268 1198 266 1176 q 269 1247 270 1221 q 300 1239 283 1242 q 332 1234 317 1236 q 366 1230 350 1232 z "},"Ė":{"ha":416,"x_min":45,"x_max":400,"o":"m 321 363 q 278 365 300 364 q 235 366 256 366 q 209 365 222 366 q 183 364 196 364 l 180 122 q 289 127 236 123 q 400 140 341 132 l 400 -1 q 327 1 362 0 q 256 1 291 1 q 151 0 203 1 q 45 -5 100 -2 q 55 244 51 121 q 58 494 58 368 q 55 734 58 615 q 45 974 52 853 q 197 968 125 968 q 289 970 243 968 q 387 977 335 972 l 387 821 q 304 832 345 828 q 222 836 263 836 l 196 836 q 187 667 189 751 q 183 498 184 583 q 219 497 201 497 q 256 497 237 497 q 288 497 271 497 q 321 498 304 497 l 321 363 m 292 1076 q 286 1049 292 1062 q 270 1026 280 1036 q 247 1011 260 1017 q 219 1006 234 1006 q 192 1011 205 1006 q 169 1026 178 1017 q 153 1049 159 1036 q 147 1076 147 1062 q 153 1105 147 1091 q 169 1128 159 1118 q 192 1143 178 1137 q 219 1149 205 1149 q 247 1143 234 1149 q 270 1128 260 1137 q 286 1105 280 1118 q 292 1076 292 1091 z "},"Ę":{"ha":416,"x_min":45,"x_max":400,"o":"m 400 -176 q 338 -224 368 -208 q 273 -240 309 -240 q 236 -232 253 -240 q 208 -210 220 -224 q 189 -179 195 -197 q 182 -142 182 -161 q 185 -114 182 -130 q 195 -80 188 -98 q 216 -41 203 -62 q 252 1 230 -20 q 150 0 200 1 q 45 -5 99 -2 q 55 244 51 121 q 58 494 58 368 q 55 734 58 615 q 45 974 52 853 q 197 968 125 968 q 289 970 243 968 q 387 977 335 972 l 387 821 q 304 832 345 828 q 222 836 263 836 l 196 836 q 187 667 189 751 q 183 498 184 583 q 219 497 201 497 q 256 497 237 497 q 288 497 271 497 q 321 498 304 497 l 321 363 q 278 365 300 364 q 235 366 256 366 q 209 365 222 366 q 183 364 196 364 l 180 122 q 289 127 236 123 q 400 140 341 132 l 400 -1 q 361 0 380 0 q 323 0 342 0 q 302 -24 313 -10 q 281 -55 291 -39 q 266 -88 272 -71 q 260 -123 260 -106 q 267 -141 260 -135 q 285 -147 274 -147 q 319 -134 304 -147 q 346 -106 333 -120 l 400 -176 z "},"Ě":{"ha":416,"x_min":45,"x_max":400,"o":"m 321 363 q 278 365 300 364 q 235 366 256 366 q 209 365 222 366 q 183 364 196 364 l 180 122 q 289 127 236 123 q 400 140 341 132 l 400 -1 q 327 1 362 0 q 256 1 291 1 q 151 0 203 1 q 45 -5 100 -2 q 55 244 51 121 q 58 494 58 368 q 55 734 58 615 q 45 974 52 853 q 197 968 125 968 q 289 970 243 968 q 387 977 335 972 l 387 821 q 304 832 345 828 q 222 836 263 836 l 196 836 q 187 667 189 751 q 183 498 184 583 q 219 497 201 497 q 256 497 237 497 q 288 497 271 497 q 321 498 304 497 l 321 363 m 366 1228 l 271 1002 l 161 1002 l 58 1230 l 163 1271 l 207 1107 l 260 1267 l 366 1228 z "},"Ĝ":{"ha":454,"x_min":26,"x_max":431,"o":"m 431 486 q 424 431 427 462 q 417 364 420 399 q 413 289 414 328 q 411 211 411 250 q 412 185 411 202 q 414 149 413 169 q 417 107 416 129 q 421 67 419 86 q 424 35 422 49 q 427 17 425 22 q 374 -2 400 5 q 328 -12 349 -8 q 282 -16 304 -15 q 230 -7 258 -16 q 173 23 201 2 q 118 82 144 45 q 71 175 92 119 q 39 309 51 231 q 26 490 26 387 q 41 671 26 594 q 79 804 56 749 q 132 895 102 859 q 192 951 161 930 q 251 980 222 972 q 301 987 280 987 q 340 983 321 987 q 374 973 356 980 q 406 954 392 966 l 392 818 q 356 832 373 827 q 325 836 340 836 q 274 821 296 836 q 236 781 252 806 q 209 724 220 755 q 191 659 198 692 q 172 481 174 581 q 188 323 174 395 q 203 262 194 292 q 225 205 212 231 q 257 160 239 179 q 298 134 275 141 q 290 309 297 222 q 269 484 283 395 l 431 486 m 404 1054 l 298 1015 l 245 1175 l 201 1011 l 97 1053 l 200 1280 l 309 1280 l 404 1054 z "},"Ğ":{"ha":454,"x_min":26,"x_max":431,"o":"m 431 486 q 424 431 427 462 q 417 364 420 399 q 413 289 414 328 q 411 211 411 250 q 412 185 411 202 q 414 149 413 169 q 417 107 416 129 q 421 67 419 86 q 424 35 422 49 q 427 17 425 22 q 374 -2 400 5 q 328 -12 349 -8 q 282 -16 304 -15 q 230 -7 258 -16 q 173 23 201 2 q 118 82 144 45 q 71 175 92 119 q 39 309 51 231 q 26 490 26 387 q 41 671 26 594 q 79 804 56 749 q 132 895 102 859 q 192 951 161 930 q 251 980 222 972 q 301 987 280 987 q 340 983 321 987 q 374 973 356 980 q 406 954 392 966 l 392 818 q 356 832 373 827 q 325 836 340 836 q 274 821 296 836 q 236 781 252 806 q 209 724 220 755 q 191 659 198 692 q 172 481 174 581 q 188 323 174 395 q 203 262 194 292 q 225 205 212 231 q 257 160 239 179 q 298 134 275 141 q 290 309 297 222 q 269 484 283 395 l 431 486 m 422 1249 q 419 1170 425 1210 q 395 1097 413 1130 q 346 1043 377 1064 q 268 1022 315 1022 q 194 1040 224 1022 q 148 1089 165 1058 q 126 1163 131 1121 q 126 1255 121 1206 l 232 1270 q 230 1225 231 1248 q 234 1184 230 1202 q 247 1153 237 1165 q 275 1141 256 1141 q 299 1151 290 1141 q 315 1177 309 1160 q 323 1217 321 1194 q 325 1265 326 1239 q 356 1258 339 1261 q 388 1253 373 1255 q 422 1249 406 1250 z "},"Ġ":{"ha":454,"x_min":26,"x_max":431,"o":"m 431 486 q 424 431 427 462 q 417 364 420 399 q 413 289 414 328 q 411 211 411 250 q 412 185 411 202 q 414 149 413 169 q 417 107 416 129 q 421 67 419 86 q 424 35 422 49 q 427 17 425 22 q 374 -2 400 5 q 328 -12 349 -8 q 282 -16 304 -15 q 230 -7 258 -16 q 173 23 201 2 q 118 82 144 45 q 71 175 92 119 q 39 309 51 231 q 26 490 26 387 q 41 671 26 594 q 79 804 56 749 q 132 895 102 859 q 192 951 161 930 q 251 980 222 972 q 301 987 280 987 q 340 983 321 987 q 374 973 356 980 q 406 954 392 966 l 392 818 q 356 832 373 827 q 325 836 340 836 q 274 821 296 836 q 236 781 252 806 q 209 724 220 755 q 191 659 198 692 q 172 481 174 581 q 188 323 174 395 q 203 262 194 292 q 225 205 212 231 q 257 160 239 179 q 298 134 275 141 q 290 309 297 222 q 269 484 283 395 l 431 486 m 345 1091 q 339 1064 345 1077 q 323 1041 333 1051 q 300 1026 313 1031 q 272 1021 287 1021 q 244 1026 258 1021 q 221 1041 231 1031 q 206 1064 212 1051 q 200 1091 200 1077 q 206 1120 200 1106 q 221 1143 212 1133 q 244 1158 231 1152 q 272 1164 258 1164 q 300 1158 287 1164 q 323 1143 313 1152 q 339 1120 333 1133 q 345 1091 345 1106 z "},"Ģ":{"ha":454,"x_min":26,"x_max":431,"o":"m 431 486 q 424 431 427 462 q 417 364 420 399 q 413 289 414 328 q 411 211 411 250 q 412 185 411 202 q 414 149 413 169 q 417 107 416 129 q 421 67 419 86 q 424 35 422 49 q 427 17 425 22 q 374 -2 400 5 q 328 -12 349 -8 q 282 -16 304 -15 q 230 -7 258 -16 q 173 23 201 2 q 118 82 144 45 q 71 175 92 119 q 39 309 51 231 q 26 490 26 387 q 41 671 26 594 q 79 804 56 749 q 132 895 102 859 q 192 951 161 930 q 251 980 222 972 q 301 987 280 987 q 340 983 321 987 q 374 973 356 980 q 406 954 392 966 l 392 818 q 356 832 373 827 q 325 836 340 836 q 274 821 296 836 q 236 781 252 806 q 209 724 220 755 q 191 659 198 692 q 172 481 174 581 q 188 323 174 395 q 203 262 194 292 q 225 205 212 231 q 257 160 239 179 q 298 134 275 141 q 290 309 297 222 q 269 484 283 395 l 431 486 m 334 -117 q 330 -154 334 -138 q 319 -184 326 -170 q 301 -212 312 -199 q 277 -239 291 -225 l 236 -221 q 244 -210 240 -216 q 251 -198 248 -205 q 257 -181 254 -191 q 220 -159 235 -177 q 205 -117 205 -141 q 210 -93 205 -104 q 224 -72 215 -81 q 244 -58 233 -63 q 270 -53 256 -53 q 295 -58 283 -53 q 315 -72 307 -63 q 329 -93 324 -81 q 334 -117 334 -104 z "},"Ĥ":{"ha":559,"x_min":45,"x_max":525,"o":"m 225 974 q 214 708 218 840 q 207 443 209 576 q 241 441 224 441 q 275 441 258 441 q 320 442 297 441 q 366 444 342 443 q 367 503 367 474 q 367 562 367 532 q 365 768 367 665 q 358 974 363 870 l 525 974 q 506 649 513 810 q 500 325 500 488 q 502 165 500 245 q 507 5 504 86 l 353 5 q 359 166 356 86 q 364 326 361 246 q 287 330 326 328 q 211 332 249 332 l 205 332 l 205 192 q 205 98 205 144 q 207 5 205 52 l 52 5 q 56 198 55 103 q 57 390 57 294 q 45 974 57 682 l 225 974 m 449 1048 l 343 1010 l 290 1169 l 246 1006 l 142 1047 l 245 1275 l 354 1275 l 449 1048 z "},"Ħ":{"ha":559,"x_min":7,"x_max":554,"o":"m 54 625 q 51 800 53 713 q 45 974 48 886 l 225 974 q 217 799 221 885 q 211 624 213 712 l 367 621 q 363 797 366 709 q 358 974 361 885 l 525 974 q 512 795 517 884 q 504 618 507 707 l 554 618 l 554 513 l 501 513 q 500 419 500 466 q 500 325 500 372 q 502 165 500 245 q 507 5 504 86 l 353 5 q 359 166 356 86 q 364 326 361 246 q 287 330 326 328 q 211 332 249 332 l 205 332 l 205 192 q 205 98 205 144 q 207 5 205 52 l 52 5 q 56 198 55 103 q 57 390 57 294 l 57 513 l 7 513 l 7 627 l 54 625 m 366 444 q 366 478 366 461 q 367 513 367 495 l 208 513 q 207 477 207 495 q 207 443 207 460 q 241 441 224 441 q 275 441 258 441 q 320 442 297 441 q 366 444 342 443 z "},"Ĩ":{"ha":338,"x_min":-30,"x_max":370,"o":"m 314 9 q 260 12 287 11 q 205 12 233 12 q 116 11 161 12 q 26 5 71 9 l 28 151 q 59 148 43 149 q 90 146 75 147 q 98 355 94 251 q 102 564 102 459 q 100 702 102 633 q 96 839 98 770 q 60 838 78 839 q 22 836 41 838 l 24 978 q 128 973 76 975 q 233 971 180 971 q 271 971 252 971 q 310 972 290 971 l 306 838 q 275 838 290 838 q 244 839 260 839 q 231 596 235 717 q 227 354 227 476 q 231 142 227 248 q 275 142 252 142 q 321 144 298 143 l 314 9 m 370 1114 q 336 1060 355 1084 q 294 1023 319 1040 q 238 1006 269 1006 q 202 1017 218 1006 q 171 1039 186 1027 q 141 1061 157 1051 q 108 1071 126 1071 q 70 1054 84 1071 q 38 1006 56 1038 l -30 1073 q -8 1118 -19 1097 q 17 1153 3 1138 q 48 1175 31 1167 q 92 1183 66 1183 q 140 1174 120 1183 q 175 1154 159 1165 q 204 1134 191 1143 q 231 1125 217 1125 q 265 1136 250 1125 q 290 1161 279 1147 q 312 1198 302 1177 l 370 1114 z "},"Ī":{"ha":338,"x_min":9,"x_max":328,"o":"m 314 9 q 260 12 287 11 q 205 12 233 12 q 116 11 161 12 q 26 5 71 9 l 28 151 q 59 148 43 149 q 90 146 75 147 q 98 355 94 251 q 102 564 102 459 q 100 702 102 633 q 96 839 98 770 q 60 838 78 839 q 22 836 41 838 l 24 978 q 128 973 76 975 q 233 971 180 971 q 271 971 252 971 q 310 972 290 971 l 306 838 q 275 838 290 838 q 244 839 260 839 q 231 596 235 717 q 227 354 227 476 q 231 142 227 248 q 275 142 252 142 q 321 144 298 143 l 314 9 m 328 1149 l 328 1023 l 9 1028 q 12 1074 11 1051 q 12 1113 12 1093 q 9 1149 12 1133 q 48 1148 26 1148 q 96 1147 71 1147 q 149 1147 121 1147 q 201 1147 176 1147 q 328 1149 262 1148 z "},"Ĭ":{"ha":338,"x_min":22,"x_max":330,"o":"m 314 9 q 260 12 287 11 q 205 12 233 12 q 116 11 161 12 q 26 5 71 9 l 28 151 q 59 148 43 149 q 90 146 75 147 q 98 355 94 251 q 102 564 102 459 q 100 702 102 633 q 96 839 98 770 q 60 838 78 839 q 22 836 41 838 l 24 978 q 128 973 76 975 q 233 971 180 971 q 271 971 252 971 q 310 972 290 971 l 306 838 q 275 838 290 838 q 244 839 260 839 q 231 596 235 717 q 227 354 227 476 q 231 142 227 248 q 275 142 252 142 q 321 144 298 143 l 314 9 m 328 1235 q 325 1156 330 1196 q 301 1083 319 1116 q 252 1029 283 1050 q 174 1008 221 1008 q 100 1026 130 1008 q 54 1076 71 1044 q 32 1150 37 1107 q 32 1242 26 1192 l 138 1256 q 136 1212 136 1234 q 139 1170 136 1189 q 153 1140 143 1152 q 180 1128 162 1128 q 205 1137 195 1128 q 221 1164 215 1147 q 229 1203 227 1181 q 231 1252 231 1225 q 262 1244 245 1247 q 294 1239 279 1241 q 328 1235 311 1236 z "},"Į":{"ha":338,"x_min":22,"x_max":321,"o":"m 275 -170 q 214 -217 243 -201 q 149 -233 184 -233 q 111 -225 128 -233 q 82 -203 94 -217 q 64 -172 71 -189 q 57 -135 57 -154 q 60 -106 57 -123 q 71 -72 63 -90 q 93 -32 79 -53 q 129 11 107 -11 l 26 5 l 28 151 q 59 148 43 149 q 90 146 75 147 q 98 355 94 251 q 102 564 102 459 q 100 702 102 633 q 96 839 98 770 q 60 838 78 839 q 22 836 41 838 l 24 978 q 128 973 76 975 q 233 971 180 971 q 271 971 252 971 q 310 972 290 971 l 306 838 q 275 838 290 838 q 244 839 260 839 q 231 596 235 717 q 227 354 227 476 q 231 142 227 248 q 275 142 252 142 q 321 144 298 143 l 314 9 q 260 12 287 11 q 205 12 233 12 l 203 12 q 181 -13 193 2 q 159 -44 169 -27 q 142 -80 149 -61 q 135 -117 135 -98 q 142 -134 135 -128 q 160 -140 149 -140 q 194 -127 180 -140 q 221 -98 208 -113 l 275 -170 z "},"İ":{"ha":338,"x_min":22,"x_max":321,"o":"m 314 9 q 260 12 287 11 q 205 12 233 12 q 116 11 161 12 q 26 5 71 9 l 28 151 q 59 148 43 149 q 90 146 75 147 q 98 355 94 251 q 102 564 102 459 q 100 702 102 633 q 96 839 98 770 q 60 838 78 839 q 22 836 41 838 l 24 978 q 128 973 76 975 q 233 971 180 971 q 271 971 252 971 q 310 972 290 971 l 306 838 q 275 838 290 838 q 244 839 260 839 q 231 596 235 717 q 227 354 227 476 q 231 142 227 248 q 275 142 252 142 q 321 144 298 143 l 314 9 m 243 1079 q 237 1052 243 1065 q 221 1029 231 1039 q 198 1014 212 1019 q 170 1008 185 1008 q 143 1014 156 1008 q 120 1029 130 1019 q 104 1052 110 1039 q 98 1079 98 1065 q 104 1107 98 1094 q 120 1131 110 1121 q 143 1146 130 1140 q 170 1152 156 1152 q 198 1146 185 1152 q 221 1131 212 1140 q 237 1107 231 1121 q 243 1079 243 1094 z "},"Ĳ":{"ha":733,"x_min":22,"x_max":693,"o":"m 314 9 q 260 12 287 11 q 205 12 233 12 q 116 11 161 12 q 26 5 71 9 l 28 151 q 59 148 43 149 q 90 146 75 147 q 98 355 94 251 q 102 564 102 459 q 100 702 102 633 q 96 839 98 770 q 60 838 78 839 q 22 836 41 838 l 24 978 q 128 973 76 975 q 233 971 180 971 q 271 971 252 971 q 310 972 290 971 l 306 838 q 275 838 290 838 q 244 839 260 839 q 231 596 235 717 q 227 354 227 476 q 231 142 227 248 q 275 142 252 142 q 321 144 298 143 l 314 9 m 693 979 q 687 691 689 815 q 684 483 685 568 q 682 313 682 384 q 662 165 681 226 q 613 66 642 104 q 550 10 585 28 q 485 -9 515 -8 q 467 -9 481 -9 q 432 -6 453 -9 q 388 1 412 -4 q 343 17 364 7 l 363 135 q 394 123 378 126 q 425 119 410 119 q 490 131 465 119 q 530 174 515 143 q 551 258 545 205 q 556 393 556 311 q 556 417 556 407 q 556 444 556 428 q 555 485 556 459 q 553 557 555 511 q 550 671 552 602 q 545 843 548 741 l 437 843 l 437 977 l 693 979 z "},"Ĵ":{"ha":396,"x_min":5,"x_max":400,"o":"m 355 979 q 349 691 351 815 q 346 483 347 568 q 345 313 345 384 q 324 165 343 226 q 276 66 304 104 q 212 10 247 28 q 147 -9 178 -8 q 130 -9 144 -9 q 95 -6 115 -9 q 50 1 74 -4 q 5 17 26 7 l 25 135 q 57 123 41 126 q 87 119 73 119 q 152 131 127 119 q 193 174 178 143 q 213 258 208 205 q 218 393 218 311 q 218 417 218 407 q 218 444 218 428 q 218 485 218 459 q 216 557 217 511 q 212 671 214 602 q 207 843 210 741 l 100 843 l 100 977 l 355 979 m 400 1051 l 294 1013 l 241 1172 l 197 1008 l 93 1050 l 196 1278 l 305 1278 l 400 1051 z "},"Ķ":{"ha":492,"x_min":45,"x_max":503,"o":"m 205 979 q 190 724 195 850 q 182 471 184 597 q 272 725 230 597 q 354 982 314 852 l 503 971 q 393 704 445 838 q 294 433 340 570 q 381 223 334 326 q 481 20 428 120 l 330 3 q 260 198 297 102 q 180 389 222 294 l 180 304 q 184 9 180 156 l 45 11 q 52 287 49 149 q 54 564 54 425 q 53 771 54 667 q 49 979 51 874 l 205 979 m 310 -106 q 306 -142 310 -126 q 295 -173 302 -159 q 278 -200 288 -187 q 253 -228 267 -214 l 212 -210 q 220 -199 216 -205 q 227 -186 224 -193 q 233 -170 231 -179 q 197 -148 212 -165 q 182 -106 182 -130 q 186 -81 182 -93 q 200 -60 191 -69 q 221 -46 209 -52 q 246 -41 233 -41 q 271 -46 260 -41 q 292 -60 283 -52 q 305 -81 300 -69 q 310 -106 310 -93 z "},"Ĺ":{"ha":410,"x_min":45,"x_max":400,"o":"m 400 -1 q 327 1 362 0 q 256 1 291 1 q 151 0 203 1 q 45 -5 100 -2 q 55 244 51 121 q 58 494 58 368 q 55 734 58 615 q 45 974 52 853 q 60 973 52 973 q 79 972 68 972 q 103 972 90 972 q 150 974 125 972 q 201 977 176 975 q 189 771 193 879 q 184 553 185 663 q 183 333 183 443 q 180 122 182 224 q 289 127 236 123 q 400 140 341 132 l 400 -1 m 231 1297 q 267 1270 248 1284 q 302 1242 286 1255 q 340 1212 321 1227 l 161 1019 l 97 1066 l 231 1297 z "},"Ļ":{"ha":410,"x_min":45,"x_max":400,"o":"m 400 -1 q 327 1 362 0 q 256 1 291 1 q 151 0 203 1 q 45 -5 100 -2 q 55 244 51 121 q 58 494 58 368 q 55 734 58 615 q 45 974 52 853 q 60 973 52 973 q 79 972 68 972 q 103 972 90 972 q 150 974 125 972 q 201 977 176 975 q 189 771 193 879 q 184 553 185 663 q 183 333 183 443 q 180 122 182 224 q 289 127 236 123 q 400 140 341 132 l 400 -1 m 269 -106 q 265 -142 269 -126 q 254 -173 261 -159 q 236 -200 247 -187 q 212 -228 226 -214 l 171 -210 q 179 -199 175 -205 q 186 -186 182 -193 q 192 -170 189 -179 q 155 -148 170 -165 q 140 -106 140 -130 q 145 -81 140 -93 q 159 -60 150 -69 q 179 -46 168 -52 q 205 -41 191 -41 q 230 -46 218 -41 q 250 -60 241 -52 q 264 -81 259 -69 q 269 -106 269 -93 z "},"Ŀ":{"ha":578,"x_min":45,"x_max":554,"o":"m 400 -1 q 327 1 362 0 q 256 1 291 1 q 151 0 203 1 q 45 -5 100 -2 q 55 244 51 121 q 58 494 58 368 q 55 734 58 615 q 45 974 52 853 q 60 973 52 973 q 79 972 68 972 q 103 972 90 972 q 150 974 125 972 q 201 977 176 975 q 189 771 193 879 q 184 553 185 663 q 183 333 183 443 q 180 122 182 224 q 289 127 236 123 q 400 140 341 132 l 400 -1 m 554 498 q 547 464 554 480 q 528 436 540 448 q 500 417 516 424 q 465 410 484 410 q 430 417 446 410 q 401 436 414 424 q 382 464 389 448 q 375 498 375 480 q 382 534 375 517 q 401 562 389 550 q 430 582 414 574 q 465 589 446 589 q 500 582 484 589 q 528 562 516 574 q 547 534 540 550 q 554 498 554 517 z "},"Ľ":{"ha":410,"x_min":45,"x_max":400,"o":"m 400 -1 q 327 1 362 0 q 256 1 291 1 q 151 0 203 1 q 45 -5 100 -2 q 55 244 51 121 q 58 494 58 368 q 55 734 58 615 q 45 974 52 853 q 60 973 52 973 q 79 972 68 972 q 103 972 90 972 q 150 974 125 972 q 201 977 176 975 q 189 771 193 879 q 184 553 185 663 q 183 333 183 443 q 180 122 182 224 q 289 127 236 123 q 400 140 341 132 l 400 -1 m 370 1017 q 366 980 370 996 q 355 949 362 964 q 337 922 348 935 q 313 895 327 909 l 272 912 q 280 923 276 917 q 287 936 283 928 q 293 953 290 943 q 256 975 271 957 q 241 1017 241 993 q 246 1041 241 1029 q 260 1061 251 1053 q 280 1075 269 1070 q 305 1080 292 1080 q 331 1075 319 1080 q 351 1061 342 1070 q 365 1041 359 1053 q 370 1017 370 1029 z "},"Ń":{"ha":576,"x_min":45,"x_max":536,"o":"m 536 978 q 523 708 528 842 q 518 439 518 574 q 521 231 518 334 q 532 25 524 129 l 395 29 q 341 204 368 117 q 290 378 315 292 q 237 549 264 464 q 182 720 210 635 q 188 367 184 543 q 204 16 193 191 l 47 17 q 56 452 56 233 q 53 718 56 586 q 45 982 50 849 l 235 978 q 309 675 269 829 q 392 371 348 521 q 378 678 387 524 q 358 979 369 831 l 536 978 m 382 1284 q 419 1258 399 1272 q 454 1230 438 1243 q 492 1200 473 1215 l 313 1007 l 249 1054 l 382 1284 z "},"Ņ":{"ha":576,"x_min":45,"x_max":536,"o":"m 536 978 q 523 708 528 842 q 518 439 518 574 q 521 231 518 334 q 532 25 524 129 l 395 29 q 341 204 368 117 q 290 378 315 292 q 237 549 264 464 q 182 720 210 635 q 188 367 184 543 q 204 16 193 191 l 47 17 q 56 452 56 233 q 53 718 56 586 q 45 982 50 849 l 235 978 q 309 675 269 829 q 392 371 348 521 q 378 678 387 524 q 358 979 369 831 l 536 978 m 351 -77 q 348 -113 351 -97 q 337 -144 344 -130 q 319 -171 330 -158 q 294 -199 309 -184 l 254 -180 q 262 -170 258 -176 q 269 -157 265 -164 q 275 -140 272 -150 q 238 -118 253 -136 q 223 -77 223 -100 q 228 -52 223 -64 q 241 -31 233 -40 q 262 -17 250 -22 q 288 -12 274 -12 q 313 -17 301 -12 q 333 -31 324 -22 q 347 -52 342 -40 q 351 -77 351 -64 z "},"Ň":{"ha":576,"x_min":45,"x_max":536,"o":"m 536 978 q 523 708 528 842 q 518 439 518 574 q 521 231 518 334 q 532 25 524 129 l 395 29 q 341 204 368 117 q 290 378 315 292 q 237 549 264 464 q 182 720 210 635 q 188 367 184 543 q 204 16 193 191 l 47 17 q 56 452 56 233 q 53 718 56 586 q 45 982 50 849 l 235 978 q 309 675 269 829 q 392 371 348 521 q 378 678 387 524 q 358 979 369 831 l 536 978 m 442 1248 l 347 1021 l 238 1021 l 135 1249 l 239 1291 l 283 1126 l 336 1286 l 442 1248 z "},"Ŋ":{"ha":576,"x_min":45,"x_max":536,"o":"m 536 978 q 523 708 528 842 q 518 439 518 574 q 519 351 518 393 q 523 266 521 309 q 527 177 525 222 q 529 81 528 132 q 524 15 529 50 q 510 -55 519 -20 q 484 -122 500 -90 q 447 -181 469 -155 q 396 -223 425 -207 q 332 -241 368 -239 q 314 -241 328 -241 q 279 -238 300 -241 q 235 -231 259 -236 q 191 -215 212 -225 l 210 -97 q 241 -109 225 -106 q 272 -113 258 -113 q 325 -106 302 -113 q 363 -84 347 -100 q 387 -40 378 -68 q 395 29 395 -13 q 341 204 368 117 q 290 378 315 292 q 237 549 264 464 q 182 720 210 635 q 188 367 184 543 q 204 16 193 191 l 47 17 q 56 452 56 233 q 53 718 56 586 q 45 982 50 849 l 235 978 q 309 675 269 829 q 392 371 348 521 q 378 678 387 524 q 358 979 369 831 l 536 978 z "},"Ō":{"ha":532,"x_min":28,"x_max":504,"o":"m 504 475 q 485 243 504 338 q 435 89 467 149 q 359 3 403 30 q 267 -24 316 -24 q 174 2 217 -24 q 98 85 130 27 q 46 239 65 144 q 28 475 28 335 q 46 713 28 615 q 98 872 65 811 q 174 961 130 934 q 267 989 217 989 q 359 962 316 989 q 435 874 403 935 q 485 715 467 813 q 504 475 504 617 m 353 475 q 346 654 353 581 q 327 773 339 728 q 300 840 315 819 q 267 860 284 860 q 232 839 248 860 q 204 773 216 819 q 186 653 193 727 q 179 475 179 580 q 186 299 179 370 q 204 185 193 229 q 232 124 216 142 q 267 106 248 106 q 300 125 284 106 q 327 188 315 144 q 346 302 339 232 q 353 475 353 373 m 425 1158 l 425 1032 l 107 1038 q 109 1083 109 1061 q 110 1122 110 1102 q 107 1158 109 1143 q 146 1157 123 1158 q 194 1157 168 1157 q 246 1157 219 1156 q 299 1157 273 1157 q 425 1158 359 1158 z "},"Ŏ":{"ha":532,"x_min":28,"x_max":504,"o":"m 504 475 q 485 243 504 338 q 435 89 467 149 q 359 3 403 30 q 267 -24 316 -24 q 174 2 217 -24 q 98 85 130 27 q 46 239 65 144 q 28 475 28 335 q 46 713 28 615 q 98 872 65 811 q 174 961 130 934 q 267 989 217 989 q 359 962 316 989 q 435 874 403 935 q 485 715 467 813 q 504 475 504 617 m 353 475 q 346 654 353 581 q 327 773 339 728 q 300 840 315 819 q 267 860 284 860 q 232 839 248 860 q 204 773 216 819 q 186 653 193 727 q 179 475 179 580 q 186 299 179 370 q 204 185 193 229 q 232 124 216 142 q 267 106 248 106 q 300 125 284 106 q 327 188 315 144 q 346 302 339 232 q 353 475 353 373 m 418 1251 q 415 1173 420 1213 q 391 1100 409 1133 q 342 1046 373 1067 q 264 1025 311 1025 q 190 1043 220 1025 q 144 1092 161 1061 q 122 1166 127 1124 q 122 1258 117 1208 l 228 1272 q 226 1228 227 1251 q 230 1186 226 1205 q 243 1156 233 1168 q 271 1144 252 1144 q 295 1154 286 1144 q 311 1180 305 1163 q 319 1219 317 1197 q 321 1268 321 1242 q 352 1260 335 1263 q 384 1255 369 1257 q 418 1251 401 1253 z "},"Ő":{"ha":532,"x_min":28,"x_max":557,"o":"m 504 475 q 485 243 504 338 q 435 89 467 149 q 359 3 403 30 q 267 -24 316 -24 q 174 2 217 -24 q 98 85 130 27 q 46 239 65 144 q 28 475 28 335 q 46 713 28 615 q 98 872 65 811 q 174 961 130 934 q 267 989 217 989 q 359 962 316 989 q 435 874 403 935 q 485 715 467 813 q 504 475 504 617 m 353 475 q 346 654 353 581 q 327 773 339 728 q 300 840 315 819 q 267 860 284 860 q 232 839 248 860 q 204 773 216 819 q 186 653 193 727 q 179 475 179 580 q 186 299 179 370 q 204 185 193 229 q 232 124 216 142 q 267 106 248 106 q 300 125 284 106 q 327 188 315 144 q 346 302 339 232 q 353 475 353 373 m 245 1291 l 369 1234 l 218 1013 l 154 1046 l 245 1291 m 436 1291 l 557 1219 l 366 1013 l 302 1060 l 436 1291 z "},"Ŕ":{"ha":471,"x_min":37,"x_max":471,"o":"m 443 684 q 434 592 443 638 q 407 504 426 547 q 358 425 388 462 q 285 359 328 388 q 369 173 323 262 q 471 1 414 84 l 301 -8 l 186 319 q 193 155 189 237 q 203 -5 197 74 l 37 -5 q 53 302 48 149 q 58 612 58 456 q 57 792 58 703 q 52 974 56 882 q 124 988 87 985 q 187 991 161 991 q 232 988 205 991 q 286 972 258 984 q 343 940 315 961 q 393 885 371 919 q 429 801 415 850 q 443 684 443 752 m 184 429 q 226 449 208 436 q 258 479 244 463 q 280 515 271 496 q 296 553 290 534 q 311 650 309 597 q 311 666 311 651 q 307 705 311 682 q 297 755 304 728 q 279 807 291 782 q 248 852 267 833 q 201 880 229 872 q 189 668 193 774 q 184 456 184 563 l 184 429 m 347 1300 q 384 1273 364 1288 q 419 1246 403 1259 q 456 1215 438 1231 l 277 1023 l 214 1069 l 347 1300 z "},"Ŗ":{"ha":471,"x_min":37,"x_max":471,"o":"m 443 684 q 434 592 443 638 q 407 504 426 547 q 358 425 388 462 q 285 359 328 388 q 369 173 323 262 q 471 1 414 84 l 301 -8 l 186 319 q 193 155 189 237 q 203 -5 197 74 l 37 -5 q 53 302 48 149 q 58 612 58 456 q 57 792 58 703 q 52 974 56 882 q 124 988 87 985 q 187 991 161 991 q 232 988 205 991 q 286 972 258 984 q 343 940 315 961 q 393 885 371 919 q 429 801 415 850 q 443 684 443 752 m 184 429 q 226 449 208 436 q 258 479 244 463 q 280 515 271 496 q 296 553 290 534 q 311 650 309 597 q 311 666 311 651 q 307 705 311 682 q 297 755 304 728 q 279 807 291 782 q 248 852 267 833 q 201 880 229 872 q 189 668 193 774 q 184 456 184 563 l 184 429 m 299 -106 q 295 -142 299 -126 q 284 -173 292 -159 q 267 -200 277 -187 q 242 -228 256 -214 l 201 -210 q 210 -199 205 -205 q 216 -186 213 -193 q 222 -170 220 -179 q 186 -148 201 -165 q 171 -106 171 -130 q 176 -81 171 -93 q 189 -60 180 -69 q 210 -46 198 -52 q 235 -41 222 -41 q 260 -46 249 -41 q 281 -60 272 -52 q 294 -81 290 -69 q 299 -106 299 -93 z "},"Ř":{"ha":471,"x_min":37,"x_max":471,"o":"m 443 684 q 434 592 443 638 q 407 504 426 547 q 358 425 388 462 q 285 359 328 388 q 369 173 323 262 q 471 1 414 84 l 301 -8 l 186 319 q 193 155 189 237 q 203 -5 197 74 l 37 -5 q 53 302 48 149 q 58 612 58 456 q 57 792 58 703 q 52 974 56 882 q 124 988 87 985 q 187 991 161 991 q 232 988 205 991 q 286 972 258 984 q 343 940 315 961 q 393 885 371 919 q 429 801 415 850 q 443 684 443 752 m 184 429 q 226 449 208 436 q 258 479 244 463 q 280 515 271 496 q 296 553 290 534 q 311 650 309 597 q 311 666 311 651 q 307 705 311 682 q 297 755 304 728 q 279 807 291 782 q 248 852 267 833 q 201 880 229 872 q 189 668 193 774 q 184 456 184 563 l 184 429 m 375 1252 l 280 1025 l 171 1025 l 68 1253 l 172 1295 l 216 1131 l 269 1291 l 375 1252 z "},"Ś":{"ha":418,"x_min":16,"x_max":400,"o":"m 389 240 q 377 146 389 186 q 348 77 366 106 q 308 30 330 48 q 262 0 286 11 q 217 -15 239 -11 q 180 -20 196 -20 q 158 -19 172 -20 q 125 -14 144 -18 q 85 -4 107 -11 q 39 14 63 2 l 46 184 q 118 139 86 151 q 171 127 149 127 q 234 158 213 127 q 256 237 256 189 q 240 310 256 270 q 183 397 224 351 q 125 465 155 430 q 71 541 96 500 q 31 627 47 581 q 16 726 16 673 q 34 844 16 794 q 84 926 53 893 q 156 974 115 958 q 240 990 196 990 q 319 980 279 990 q 400 947 359 969 l 387 777 q 350 812 370 799 q 313 832 331 825 q 280 841 295 839 q 254 843 264 843 q 218 833 235 843 q 190 807 201 823 q 171 767 178 790 q 164 720 164 745 q 181 650 164 681 q 222 588 197 618 q 276 525 248 557 q 330 453 305 493 q 372 360 355 412 q 389 240 389 309 m 289 1300 q 325 1273 306 1288 q 361 1246 345 1259 q 398 1215 380 1231 l 219 1023 l 155 1069 l 289 1300 z "},"Ŝ":{"ha":418,"x_min":16,"x_max":400,"o":"m 389 240 q 377 146 389 186 q 348 77 366 106 q 308 30 330 48 q 262 0 286 11 q 217 -15 239 -11 q 180 -20 196 -20 q 158 -19 172 -20 q 125 -14 144 -18 q 85 -4 107 -11 q 39 14 63 2 l 46 184 q 118 139 86 151 q 171 127 149 127 q 234 158 213 127 q 256 237 256 189 q 240 310 256 270 q 183 397 224 351 q 125 465 155 430 q 71 541 96 500 q 31 627 47 581 q 16 726 16 673 q 34 844 16 794 q 84 926 53 893 q 156 974 115 958 q 240 990 196 990 q 319 980 279 990 q 400 947 359 969 l 387 777 q 350 812 370 799 q 313 832 331 825 q 280 841 295 839 q 254 843 264 843 q 218 833 235 843 q 190 807 201 823 q 171 767 178 790 q 164 720 164 745 q 181 650 164 681 q 222 588 197 618 q 276 525 248 557 q 330 453 305 493 q 372 360 355 412 q 389 240 389 309 m 363 1057 l 257 1018 l 204 1177 l 160 1014 l 56 1055 l 159 1283 l 268 1283 l 363 1057 z "},"Ş":{"ha":418,"x_min":16,"x_max":400,"o":"m 282 -144 q 275 -181 282 -165 q 254 -211 267 -198 q 223 -231 241 -223 q 187 -241 206 -239 q 151 -244 167 -245 q 124 -239 136 -243 q 102 -231 111 -236 l 102 -155 q 112 -161 104 -159 q 127 -166 119 -164 q 143 -169 135 -168 q 155 -170 151 -170 q 183 -164 171 -170 q 195 -139 195 -158 q 190 -124 195 -130 q 179 -114 186 -118 q 164 -109 172 -111 q 149 -107 156 -107 q 129 -108 139 -107 q 110 -113 119 -109 l 146 -17 q 98 -7 125 -14 q 39 14 71 -1 l 46 184 q 118 139 86 151 q 171 127 149 127 q 234 158 213 127 q 256 237 256 189 q 240 310 256 270 q 183 397 224 351 q 125 465 155 430 q 71 541 96 500 q 31 627 47 581 q 16 726 16 673 q 34 844 16 794 q 84 926 53 893 q 156 974 115 958 q 240 990 196 990 q 319 980 279 990 q 400 947 359 969 l 387 777 q 350 812 370 799 q 313 832 331 825 q 280 841 295 839 q 254 843 264 843 q 218 833 235 843 q 190 807 201 823 q 171 767 178 790 q 164 720 164 745 q 181 650 164 681 q 222 588 197 618 q 276 525 248 557 q 330 453 305 493 q 372 360 355 412 q 389 240 389 309 q 379 154 389 191 q 355 89 370 117 q 321 42 340 61 q 281 10 302 22 q 239 -9 260 -3 q 201 -18 218 -16 l 193 -56 q 229 -61 213 -55 q 257 -80 245 -68 q 276 -108 269 -92 q 282 -144 282 -125 z "},"Ţ":{"ha":396,"x_min":11,"x_max":387,"o":"m 383 832 q 333 834 361 833 q 273 835 305 835 q 266 704 269 772 q 260 567 262 637 q 258 428 258 498 q 257 289 257 357 q 258 138 257 211 q 262 -3 259 65 l 118 -3 q 127 243 124 113 q 131 505 131 373 q 129 673 131 591 q 125 833 127 755 q 63 833 92 833 q 11 831 34 832 l 12 972 q 67 969 37 970 q 131 968 98 968 q 200 967 165 967 q 269 966 235 966 q 333 966 303 966 q 387 968 363 966 l 383 832 m 261 -106 q 257 -142 261 -126 q 247 -173 254 -159 q 229 -200 239 -187 q 204 -228 218 -214 l 163 -210 q 172 -199 168 -205 q 178 -186 175 -193 q 184 -170 182 -179 q 148 -148 163 -165 q 133 -106 133 -130 q 138 -81 133 -93 q 151 -60 142 -69 q 172 -46 160 -52 q 197 -41 184 -41 q 222 -46 211 -41 q 243 -60 234 -52 q 256 -81 252 -69 q 261 -106 261 -93 z "},"Ť":{"ha":396,"x_min":11,"x_max":387,"o":"m 383 832 q 333 834 361 833 q 273 835 305 835 q 266 704 269 772 q 260 567 262 637 q 258 428 258 498 q 257 289 257 357 q 258 138 257 211 q 262 -3 259 65 l 118 -3 q 127 243 124 113 q 131 505 131 373 q 129 673 131 591 q 125 833 127 755 q 63 833 92 833 q 11 831 34 832 l 12 972 q 67 969 37 970 q 131 968 98 968 q 200 967 165 967 q 269 966 235 966 q 333 966 303 966 q 387 968 363 966 l 383 832 m 352 1238 l 257 1011 l 148 1011 l 45 1239 l 149 1280 l 193 1116 l 246 1276 l 352 1238 z "},"Ŧ":{"ha":396,"x_min":11,"x_max":387,"o":"m 349 454 l 257 454 l 257 289 q 258 138 257 211 q 262 -3 259 65 l 118 -3 q 126 218 123 101 q 131 454 130 334 l 39 454 l 39 571 l 131 568 l 125 833 q 63 833 92 833 q 11 831 34 832 l 12 972 q 67 969 37 970 q 131 968 98 968 q 200 967 165 967 q 269 966 235 966 q 333 966 303 966 q 387 968 363 966 l 383 832 q 333 834 361 833 q 273 835 305 835 q 265 703 268 771 q 260 564 262 635 l 349 562 l 349 454 z "},"Ũ":{"ha":503,"x_min":31,"x_max":460,"o":"m 432 982 q 454 702 448 844 q 460 407 460 561 q 455 303 460 355 q 440 206 451 252 q 413 120 430 159 q 370 51 395 80 q 309 6 344 22 q 228 -11 273 -11 q 157 4 187 -11 q 104 46 126 20 q 68 110 83 73 q 45 188 54 146 q 34 277 37 231 q 31 370 31 323 q 42 655 31 511 q 69 956 54 800 l 211 953 q 188 659 199 807 q 178 353 178 510 q 180 267 178 307 q 190 195 183 226 q 207 146 197 164 q 233 127 218 127 q 267 156 252 127 q 293 232 282 185 q 309 340 303 279 q 315 463 315 400 q 314 583 315 522 q 311 705 313 643 q 306 832 309 767 q 297 966 302 897 l 432 982 m 452 1121 q 417 1067 437 1090 q 375 1029 400 1046 q 319 1013 351 1013 q 283 1023 299 1013 q 253 1046 267 1034 q 223 1068 238 1058 q 189 1078 208 1078 q 151 1061 165 1078 q 119 1013 137 1044 l 52 1080 q 73 1124 62 1104 q 98 1159 84 1145 q 130 1182 112 1174 q 174 1190 148 1190 q 221 1181 201 1190 q 256 1161 241 1172 q 285 1141 272 1150 q 313 1132 298 1132 q 346 1143 332 1132 q 372 1168 361 1154 q 393 1204 384 1184 l 452 1121 z "},"Ū":{"ha":503,"x_min":31,"x_max":460,"o":"m 432 982 q 454 702 448 844 q 460 407 460 561 q 455 303 460 355 q 440 206 451 252 q 413 120 430 159 q 370 51 395 80 q 309 6 344 22 q 228 -11 273 -11 q 157 4 187 -11 q 104 46 126 20 q 68 110 83 73 q 45 188 54 146 q 34 277 37 231 q 31 370 31 323 q 42 655 31 511 q 69 956 54 800 l 211 953 q 188 659 199 807 q 178 353 178 510 q 180 267 178 307 q 190 195 183 226 q 207 146 197 164 q 233 127 218 127 q 267 156 252 127 q 293 232 282 185 q 309 340 303 279 q 315 463 315 400 q 314 583 315 522 q 311 705 313 643 q 306 832 309 767 q 297 966 302 897 l 432 982 m 410 1154 l 410 1028 l 92 1034 q 94 1079 93 1057 q 94 1118 94 1098 q 92 1154 94 1139 q 130 1153 108 1154 q 178 1153 153 1153 q 231 1153 203 1152 q 283 1153 258 1153 q 410 1154 344 1154 z "},"Ŭ":{"ha":503,"x_min":31,"x_max":460,"o":"m 432 982 q 454 702 448 844 q 460 407 460 561 q 455 303 460 355 q 440 206 451 252 q 413 120 430 159 q 370 51 395 80 q 309 6 344 22 q 228 -11 273 -11 q 157 4 187 -11 q 104 46 126 20 q 68 110 83 73 q 45 188 54 146 q 34 277 37 231 q 31 370 31 323 q 42 655 31 511 q 69 956 54 800 l 211 953 q 188 659 199 807 q 178 353 178 510 q 180 267 178 307 q 190 195 183 226 q 207 146 197 164 q 233 127 218 127 q 267 156 252 127 q 293 232 282 185 q 309 340 303 279 q 315 463 315 400 q 314 583 315 522 q 311 705 313 643 q 306 832 309 767 q 297 966 302 897 l 432 982 m 403 1235 q 400 1156 406 1196 q 376 1083 394 1116 q 327 1029 358 1050 q 249 1008 296 1008 q 175 1026 205 1008 q 129 1076 146 1044 q 107 1150 112 1107 q 107 1242 102 1192 l 213 1256 q 211 1212 212 1234 q 215 1170 211 1189 q 228 1140 218 1152 q 256 1128 237 1128 q 280 1137 271 1128 q 296 1164 290 1147 q 304 1203 302 1181 q 306 1252 307 1225 q 337 1244 320 1247 q 369 1239 354 1241 q 403 1235 387 1236 z "},"Ů":{"ha":503,"x_min":31,"x_max":460,"o":"m 432 982 q 454 702 448 844 q 460 407 460 561 q 455 303 460 355 q 440 206 451 252 q 413 120 430 159 q 370 51 395 80 q 309 6 344 22 q 228 -11 273 -11 q 157 4 187 -11 q 104 46 126 20 q 68 110 83 73 q 45 188 54 146 q 34 277 37 231 q 31 370 31 323 q 42 655 31 511 q 69 956 54 800 l 211 953 q 188 659 199 807 q 178 353 178 510 q 180 267 178 307 q 190 195 183 226 q 207 146 197 164 q 233 127 218 127 q 267 156 252 127 q 293 232 282 185 q 309 340 303 279 q 315 463 315 400 q 314 583 315 522 q 311 705 313 643 q 306 832 309 767 q 297 966 302 897 l 432 982 m 300 1133 q 285 1168 300 1154 q 250 1182 271 1182 q 216 1168 231 1182 q 201 1133 201 1154 q 216 1100 201 1114 q 250 1086 231 1086 q 285 1100 271 1086 q 300 1133 300 1114 m 382 1133 q 371 1084 382 1107 q 343 1043 361 1061 q 301 1016 325 1026 q 252 1006 277 1006 q 201 1016 225 1006 q 160 1043 178 1026 q 131 1084 142 1061 q 121 1133 121 1107 q 131 1184 121 1160 q 160 1226 142 1208 q 201 1254 178 1244 q 252 1264 225 1264 q 301 1254 277 1264 q 343 1226 325 1244 q 371 1184 361 1208 q 382 1133 382 1160 z "},"Ű":{"ha":503,"x_min":31,"x_max":521,"o":"m 432 982 q 454 702 448 844 q 460 407 460 561 q 455 303 460 355 q 440 206 451 252 q 413 120 430 159 q 370 51 395 80 q 309 6 344 22 q 228 -11 273 -11 q 157 4 187 -11 q 104 46 126 20 q 68 110 83 73 q 45 188 54 146 q 34 277 37 231 q 31 370 31 323 q 42 655 31 511 q 69 956 54 800 l 211 953 q 188 659 199 807 q 178 353 178 510 q 180 267 178 307 q 190 195 183 226 q 207 146 197 164 q 233 127 218 127 q 267 156 252 127 q 293 232 282 185 q 309 340 303 279 q 315 463 315 400 q 314 583 315 522 q 311 705 313 643 q 306 832 309 767 q 297 966 302 897 l 432 982 m 210 1280 l 333 1223 l 182 1002 l 118 1036 l 210 1280 m 400 1280 l 521 1209 l 330 1002 l 267 1050 l 400 1280 z "},"Ų":{"ha":503,"x_min":31,"x_max":460,"o":"m 366 -176 q 304 -224 333 -208 q 239 -240 275 -240 q 201 -232 218 -240 q 173 -210 184 -224 q 154 -179 161 -197 q 147 -142 147 -161 q 159 -84 147 -119 q 207 -9 170 -50 q 118 31 153 -4 q 64 119 84 66 q 38 238 45 172 q 31 370 31 303 q 42 655 31 511 q 69 956 54 800 l 211 953 q 188 659 199 807 q 178 353 178 510 q 180 267 178 307 q 190 195 183 226 q 207 146 197 164 q 233 127 218 127 q 267 156 252 127 q 293 232 282 185 q 309 340 303 279 q 315 463 315 400 q 314 583 315 522 q 311 705 313 643 q 306 832 309 767 q 297 966 302 897 l 432 982 q 454 702 448 844 q 460 407 460 561 q 452 271 460 338 q 424 148 444 203 q 370 52 404 92 q 286 -3 337 12 q 266 -28 276 -14 q 246 -58 255 -42 q 231 -90 237 -73 q 225 -123 225 -107 q 232 -141 225 -135 q 250 -147 239 -147 q 284 -134 270 -147 q 311 -106 298 -120 l 366 -176 z "},"Ŵ":{"ha":722,"x_min":25,"x_max":710,"o":"m 710 950 l 615 -26 l 436 -26 q 432 86 434 33 q 425 186 429 138 q 416 281 421 235 q 405 375 411 327 q 390 475 398 423 q 372 586 382 527 q 336 358 359 510 q 281 -20 313 207 l 93 -29 l 25 946 l 196 950 q 195 859 195 908 q 195 761 195 816 q 195 643 195 705 q 195 543 195 593 q 195 443 195 492 q 196 348 195 393 q 197 265 196 302 l 290 856 l 447 856 l 521 293 q 524 399 522 343 q 527 512 526 455 q 529 625 528 569 q 532 731 530 680 q 536 968 534 850 l 710 950 m 521 991 l 415 953 l 362 1112 l 318 949 l 214 990 l 317 1218 l 426 1218 l 521 991 z "}}}
